<?xml version="1.0" standalone="no"?>
<!DOCTYPE svg PUBLIC "-//W3C//DTD SVG 1.1//EN" "http://www.w3.org/Graphics/SVG/1.1/DTD/svg11.dtd">

<svg style="stroke-width:0.7pt; stroke-linejoin: round; stroke:#444; fill:white;" xmlns="http://www.w3.org/2000/svg" font-family="Helvetica, Arial, FreeSans, Sans, sans, sans-serif" height="655px" viewBox="0 0 1200 655" width="1200px" version="1.1" xmlns:xlink="http://www.w3.org/1999/xlink" enable-background="new 0 0 1200 655"><defs><style type="text/css">path { fill-rule: evenodd; }
#context path { fill: #eee; stroke: #bbb; } </style></defs><metadata><views><view padding="24.0" h="655.088031933" w="1200"><proj lon0="-98.606" id="lonlat" /><bbox y="-49.37" h="24.25" w="44.49" x="-20.12" /></view></views></metadata><g id="USA"><path data-fips="25" data-hasc="US.MA" data-iso="USA" d="M1097,225L1096,223L1096,223L1096,225L1094,226L1097,225Z M1084,224L1087,224L1085,221L1085,221L1083,222L1082,225L1084,224Z M1097,217L1097,217L1096,219L1097,217Z M1079,218L1082,217L1083,214L1084,217L1084,220L1087,219L1089,217L1092,217L1094,216L1098,214L1098,211L1097,208L1095,206L1092,206L1095,207L1096,209L1097,212L1095,214L1092,214L1087,213L1087,210L1084,209L1085,206L1083,204L1082,201L1079,201L1078,198L1080,196L1081,194L1084,192L1082,190L1080,186L1079,186L1079,186L1079,186L1077,187L1077,187L1076,187L1075,187L1075,187L1075,188L1074,188L1074,189L1073,189L1073,190L1072,190L1072,190L1070,190L1069,190L1066,190L1064,190L1062,190L1060,190L1058,190L1055,190L1052,190L1048,190L1047,190L1044,189L1042,189L1040,189L1038,189L1036,189L1034,189L1034,190L1033,192L1032,196L1031,199L1031,201L1030,205L1030,205L1030,207L1035,207L1039,207L1042,207L1043,208L1044,208L1044,207L1046,207L1048,207L1049,207L1051,207L1054,207L1057,207L1062,207L1064,208L1066,208L1069,207L1070,208L1070,209L1070,210L1070,210L1071,211L1071,211L1071,211L1071,212L1071,213L1071,213L1071,213L1072,214L1072,214L1073,215L1075,213L1074,216L1075,216L1075,217L1075,217L1075,218L1075,219L1075,220L1077,220L1079,218Z" data-oid="3513" /><path data-fips="32" data-hasc="US.MN" data-iso="USA" d="M601,170L607,170L613,170L620,170L626,170L632,170L638,170L645,170L651,170L657,170L663,170L670,170L676,170L682,170L688,170L688,169L688,167L688,164L688,161L686,159L684,157L680,156L677,153L675,150L671,147L668,146L666,143L661,142L658,139L659,137L659,134L659,130L659,128L660,124L661,122L660,119L657,118L657,115L659,112L661,110L664,108L666,107L668,106L668,103L668,100L668,97L668,94L670,91L672,89L675,90L678,88L681,87L684,85L688,83L692,80L696,78L700,75L703,76L707,76L710,76L713,76L714,75L715,72L717,68L719,65L720,62L722,58L719,58L716,58L712,57L709,55L702,56L699,56L697,54L695,52L692,54L688,57L685,57L682,56L680,55L677,53L674,52L673,50L669,50L667,52L665,50L664,47L660,47L660,44L655,43L650,42L646,44L643,45L639,45L638,42L635,42L630,40L624,40L622,38L622,35L621,33L620,30L620,27L618,25L614,24L613,24L613,28L613,30L613,33L574,33L574,36L575,39L576,42L575,45L575,48L576,51L576,55L577,58L578,60L578,63L579,65L581,68L581,71L581,73L581,77L581,80L581,83L582,86L582,89L582,92L583,95L583,97L586,101L586,104L586,107L586,110L586,112L585,114L582,116L580,118L582,120L584,123L587,124L588,127L588,132L588,138L588,143L588,149L588,154L588,159L588,165L588,170L595,170L601,170Z" data-oid="3514" /><path data-fips="30" data-hasc="US.MT" data-iso="USA" d="M274,147L277,146L280,146L283,145L285,144L288,145L291,144L293,145L296,144L299,143L300,140L303,140L304,142L306,144L308,146L308,145L308,142L308,139L308,136L308,133L374,133L378,133L442,133L443,131L443,128L443,126L443,123L443,120L442,118L442,115L442,112L442,110L442,105L442,101L442,96L442,92L442,88L442,84L442,80L442,76L442,71L442,67L442,63L442,59L442,55L442,51L442,46L442,42L442,38L442,33L279,33L275,33L271,33L212,33L212,36L212,39L212,42L212,45L212,48L212,51L212,54L212,57L213,60L215,62L217,64L218,67L218,70L218,72L221,74L223,76L225,77L227,79L229,81L232,84L233,86L235,88L238,89L239,92L242,92L245,91L244,94L244,97L243,99L242,102L241,104L242,107L243,109L243,112L241,114L242,116L241,119L243,120L246,121L248,119L250,117L253,116L255,118L256,121L257,124L257,126L259,128L261,130L262,133L262,136L264,137L266,138L268,140L270,142L270,144L271,147L274,147Z" data-oid="3515" /><path data-fips="38" data-hasc="US.ND" data-iso="USA" d="M586,107L586,104L586,101L583,97L583,95L582,92L582,89L582,86L581,83L581,80L581,77L581,73L581,71L581,68L579,65L578,63L578,60L577,58L576,55L576,51L575,48L575,45L576,42L575,39L574,36L574,33L482,33L478,33L473,33L442,33L442,38L442,42L442,46L442,51L442,55L442,59L442,63L442,67L442,71L442,76L442,80L442,84L442,88L442,92L442,96L442,101L442,105L442,110L448,110L492,110L497,110L501,110L528,110L533,110L537,110L564,110L568,110L573,110L586,110L586,107Z" data-oid="3516" /><path data-fips="16" data-hasc="US.ID" data-iso="USA" d="M197,208L200,208L204,208L207,208L211,208L215,208L218,208L222,208L225,208L229,208L232,208L236,208L240,208L243,208L247,208L250,208L254,208L257,208L261,208L275,208L279,208L283,208L297,208L301,208L304,208L308,208L308,204L308,200L308,196L308,192L308,188L308,185L308,181L308,177L308,173L308,169L308,165L308,161L308,157L308,153L308,149L308,146L306,144L304,142L303,140L300,140L299,143L296,144L293,145L291,144L288,145L285,144L283,145L280,146L277,146L274,147L271,147L270,144L270,142L268,140L266,138L264,137L262,136L262,133L261,130L259,128L257,126L257,124L256,121L255,118L253,116L250,117L248,119L246,121L243,120L241,119L242,116L241,114L243,112L243,109L242,107L241,104L242,102L243,99L244,97L244,94L245,91L242,92L239,92L238,89L235,88L233,86L232,84L229,81L227,79L225,77L223,76L221,74L218,72L218,70L218,67L217,64L215,62L213,60L212,57L212,54L212,51L212,48L212,45L212,42L212,39L212,36L212,33L193,33L193,37L193,41L193,45L193,49L193,53L193,57L193,61L193,65L193,69L193,73L193,77L193,81L193,85L193,89L193,93L193,97L194,100L195,103L194,106L196,108L196,109L198,112L201,114L203,116L203,119L202,121L200,124L200,127L199,129L197,134L196,136L194,139L192,141L191,145L190,147L190,150L192,151L194,153L194,155L195,158L194,161L193,163L193,167L193,172L193,177L193,182L193,187L193,192L193,198L193,203L193,208L197,208Z" data-oid="3518" /><path data-fips="53" data-hasc="US.WA" data-iso="USA" d="M81,76L81,76L80,76L81,79L81,76Z M90,73L88,71L89,71L88,72L88,75L90,73Z M87,65L87,65L87,66L88,68L87,65Z M90,58L87,58L88,59L90,60L90,58Z M87,58L87,58L87,58L87,58Z M86,54L85,52L87,51L86,48L86,48L84,49L83,53L86,54L86,57L87,58L86,54Z M81,45L80,44L79,46L82,47L81,45Z M79,45L76,43L76,43L75,44L76,46L79,45Z M80,41L82,43L81,40L80,40L79,40L78,43L81,43L80,41Z M84,40L84,40L83,40L86,42L84,40Z M94,118L100,116L103,115L106,115L111,115L114,117L118,117L121,116L124,115L129,115L132,114L134,113L137,112L143,111L146,110L148,109L155,108L158,108L163,108L168,108L173,108L178,108L183,108L188,108L193,108L196,108L194,106L195,103L194,100L193,97L193,93L193,89L193,85L193,81L193,77L193,73L193,69L193,65L193,61L193,57L193,53L193,49L193,45L193,41L193,37L193,33L85,33L83,36L84,38L87,39L88,41L86,44L87,46L84,46L86,47L88,49L90,51L87,52L88,55L91,57L90,54L91,57L93,59L91,60L90,63L90,65L90,68L90,71L91,74L90,76L87,75L86,78L83,80L81,79L80,82L78,79L80,76L82,75L83,78L83,75L85,74L87,76L87,73L88,71L86,68L86,66L88,64L87,62L86,60L85,62L82,67L79,68L78,70L77,74L80,73L77,74L77,74L75,74L76,72L78,69L80,65L82,63L82,66L83,63L85,61L83,58L82,55L80,57L77,56L76,54L73,55L68,55L66,55L63,54L60,54L56,52L53,52L50,50L45,49L46,51L46,54L46,57L46,59L48,62L51,65L52,67L52,70L54,76L55,78L56,82L56,85L56,82L59,83L61,85L58,86L57,88L59,90L62,91L60,93L60,96L62,98L59,98L58,96L58,93L58,97L59,100L61,102L64,101L67,102L70,102L72,104L75,104L78,104L81,106L82,109L82,112L83,115L84,117L88,118L91,118L94,118Z" data-oid="3519" /><path data-fips="04" data-hasc="US.AZ" data-iso="USA" d="M330,474L343,474L346,474L346,474L346,470L346,465L346,461L346,456L346,452L346,448L346,443L346,439L346,434L346,430L346,425L346,421L346,417L346,412L346,408L346,403L346,399L346,395L346,390L346,386L346,381L346,377L346,372L346,368L346,364L346,359L346,355L346,350L346,346L346,342L346,337L346,333L343,333L340,333L337,333L334,333L331,333L328,333L325,333L322,333L319,333L316,333L313,333L310,333L307,333L304,333L301,333L298,333L295,333L292,333L289,333L286,333L283,333L280,333L277,333L274,333L271,333L268,333L265,333L262,333L259,333L256,333L253,333L250,333L250,333L250,335L250,338L250,342L250,345L250,348L250,351L249,354L248,357L245,356L243,354L240,354L237,356L237,359L238,362L238,365L239,368L239,372L240,374L240,377L239,380L239,382L239,383L240,386L242,389L243,392L244,394L245,397L247,398L249,401L247,403L244,404L243,407L241,409L241,412L242,415L241,417L240,420L237,422L237,425L238,427L238,430L241,432L242,434L241,437L240,439L237,440L237,440L236,443L236,445L244,448L252,452L260,455L268,458L275,461L283,464L291,467L299,471L302,472L305,473L307,474L311,474L330,474Z" data-oid="3520" /><path data-fips="06" data-hasc="US.CA" data-iso="USA" d="M165,434L163,432L163,432L164,434L167,436L165,434Z M167,422L164,421L163,421L165,422L166,425L168,425L167,422Z M135,407L135,406L134,407L132,409L135,410L135,407Z M143,406L141,406L138,406L138,406L138,407L140,408L143,406Z M194,444L197,444L200,443L202,443L205,443L208,442L211,442L214,442L217,442L219,441L222,441L225,441L228,441L231,440L234,440L237,440L240,439L241,437L242,434L241,432L238,430L238,427L237,425L237,422L240,420L241,417L242,415L241,412L241,409L243,407L244,404L247,403L249,401L247,398L245,397L244,394L243,392L242,389L240,386L239,383L239,382L235,379L232,375L228,372L225,368L222,365L219,362L215,359L212,356L209,352L206,349L203,346L200,343L196,339L193,336L189,333L186,329L182,326L179,322L175,319L172,315L167,311L163,307L158,303L154,299L149,295L145,291L140,287L136,281L136,276L136,272L136,267L136,263L136,258L136,254L136,249L136,244L136,240L136,235L136,231L136,226L136,222L136,217L136,212L136,208L55,208L55,209L54,213L56,215L57,218L57,221L57,224L57,227L56,230L57,233L54,239L57,237L55,239L53,241L52,244L51,246L52,249L53,252L57,255L59,258L62,263L63,266L63,270L63,273L63,276L64,278L65,282L65,285L67,288L69,290L73,295L76,297L77,300L79,302L81,306L79,304L78,308L80,307L83,310L86,311L89,311L89,308L88,306L90,304L92,306L95,306L98,306L101,306L103,304L102,307L104,305L107,307L104,306L102,307L99,307L95,307L92,307L89,309L91,312L93,314L94,316L96,322L94,320L92,319L90,317L90,313L87,314L88,317L88,320L89,323L90,325L90,329L92,331L94,333L97,334L100,334L102,337L101,341L99,342L98,345L99,348L100,350L102,352L104,354L107,357L108,360L109,362L111,365L113,367L115,369L117,371L119,374L119,377L121,378L124,380L123,383L124,386L123,389L124,391L125,394L127,396L129,396L132,396L135,396L138,397L141,398L144,397L146,398L150,401L151,404L153,405L157,407L159,407L164,407L166,409L167,411L167,414L169,414L172,414L175,417L179,419L181,421L184,424L187,428L188,433L188,436L189,439L191,441L191,444L194,444Z" data-oid="3521" /><path data-fips="08" data-hasc="US.CO" data-iso="USA" d="M481,328L481,323L481,319L481,314L481,309L481,305L481,300L481,295L481,291L481,286L481,281L481,277L481,272L481,267L481,262L481,258L481,255L481,252L481,248L481,245L481,242L481,239L481,236L481,233L477,233L473,233L463,233L459,233L447,233L445,233L346,233L346,236L346,239L346,242L346,245L346,248L346,252L346,255L346,258L346,261L346,264L346,267L346,270L346,273L346,277L346,280L346,283L346,286L346,289L346,292L346,295L346,298L346,301L346,305L346,308L346,311L346,314L346,317L346,320L346,323L346,326L346,330L346,333L481,333L481,328Z" data-oid="3522" /><path data-fips="32" data-hasc="US.NV" data-iso="USA" d="M239,380L240,377L240,374L239,372L239,368L238,365L238,362L237,359L237,356L240,354L243,354L245,356L248,357L249,354L250,351L250,348L250,345L250,342L250,338L250,335L250,333L250,333L250,329L250,325L250,321L250,317L250,313L250,309L250,305L250,301L250,298L250,294L250,290L250,286L250,282L250,278L250,274L250,270L250,266L250,262L250,259L250,255L250,251L250,247L250,243L250,239L250,235L250,231L250,227L250,223L250,220L250,216L250,212L250,208L247,208L243,208L240,208L236,208L232,208L229,208L225,208L222,208L218,208L215,208L211,208L207,208L204,208L200,208L197,208L193,208L136,208L136,212L136,217L136,222L136,226L136,231L136,235L136,240L136,244L136,249L136,254L136,258L136,263L136,267L136,272L136,276L136,281L140,287L145,291L149,295L154,299L158,303L163,307L167,311L172,315L175,319L179,322L182,326L186,329L189,333L193,336L196,339L200,343L203,346L206,349L209,352L212,356L215,359L219,362L222,365L225,368L228,372L232,375L235,379L239,382L239,380Z" data-oid="3523" /><path data-fips="35" data-hasc="US.NM" data-iso="USA" d="M362,474L362,471L362,468L362,466L363,463L366,463L369,463L372,463L375,463L378,463L381,463L384,463L387,463L390,463L393,463L395,463L393,460L393,457L397,457L401,457L406,457L410,457L414,457L419,457L423,457L427,457L431,457L436,457L440,457L444,457L448,457L453,457L457,457L461,457L461,454L461,450L461,447L461,444L461,440L461,437L461,433L461,430L461,426L461,423L461,419L461,416L461,412L461,409L461,405L461,402L462,398L462,395L462,391L462,388L462,385L462,381L462,378L462,374L462,371L462,367L462,364L462,360L462,357L462,353L462,350L463,345L463,342L463,339L463,336L463,333L346,333L346,337L346,342L346,346L346,350L346,355L346,359L346,364L346,368L346,372L346,377L346,381L346,386L346,390L346,395L346,399L346,403L346,408L346,412L346,417L346,421L346,425L346,430L346,434L346,439L346,443L346,448L346,452L346,456L346,461L346,465L346,470L346,474L346,474L362,474Z" data-oid="3524" /><path data-fips="41" data-hasc="US.OR" data-iso="USA" d="M193,203L193,198L193,192L193,187L193,182L193,177L193,172L193,167L193,163L194,161L195,158L194,155L194,153L192,151L190,150L190,147L191,145L192,141L194,139L196,136L197,134L199,129L200,127L200,124L202,121L203,119L203,116L201,114L198,112L196,109L196,108L193,108L188,108L183,108L178,108L173,108L168,108L163,108L158,108L155,108L148,109L146,110L143,111L137,112L134,113L132,114L129,115L124,115L121,116L118,117L114,117L111,115L106,115L103,115L100,116L94,118L91,118L88,118L84,117L83,115L82,112L82,109L81,106L78,104L75,104L72,105L69,102L69,102L67,103L64,104L61,104L59,103L60,105L60,109L60,111L60,115L60,118L59,121L59,124L60,127L59,129L59,132L58,134L58,137L58,140L58,143L57,148L57,152L56,156L56,158L56,161L57,165L55,167L54,169L55,172L52,174L52,176L51,182L49,185L48,187L49,189L51,192L51,195L51,197L51,200L52,202L52,206L55,208L193,208L193,203Z" data-oid="3525" /><path data-fips="49" data-hasc="US.UT" data-iso="USA" d="M346,330L346,326L346,323L346,320L346,317L346,314L346,311L346,308L346,305L346,301L346,298L346,295L346,292L346,289L346,286L346,283L346,280L346,277L346,273L346,270L346,267L346,264L346,261L346,258L346,255L346,252L346,248L346,245L346,242L346,239L346,236L346,233L308,233L308,230L308,227L308,223L308,220L308,217L308,214L308,211L308,208L304,208L301,208L297,208L283,208L279,208L275,208L261,208L257,208L254,208L250,208L250,212L250,216L250,220L250,223L250,227L250,231L250,235L250,239L250,243L250,247L250,251L250,255L250,259L250,262L250,266L250,270L250,274L250,278L250,282L250,286L250,290L250,294L250,298L250,301L250,305L250,309L250,313L250,317L250,321L250,325L250,329L250,333L253,333L256,333L259,333L262,333L265,333L268,333L271,333L274,333L277,333L280,333L283,333L286,333L289,333L292,333L295,333L298,333L301,333L304,333L307,333L310,333L313,333L316,333L319,333L322,333L325,333L328,333L331,333L334,333L337,333L340,333L343,333L346,333L346,330Z" data-oid="3526" /><path data-fips="56" data-hasc="US.WY" data-iso="USA" d="M442,230L442,227L442,223L442,220L442,217L442,214L442,211L442,208L442,205L442,202L442,199L442,195L442,192L442,189L442,186L442,183L442,180L442,177L442,174L442,170L442,167L442,164L442,161L442,158L442,155L442,152L442,149L442,146L442,142L442,139L442,136L442,133L378,133L374,133L308,133L308,136L308,139L308,142L308,145L308,146L308,149L308,153L308,157L308,161L308,165L308,169L308,173L308,177L308,181L308,185L308,188L308,192L308,196L308,200L308,204L308,208L308,211L308,214L308,217L308,220L308,223L308,227L308,230L308,233L442,233L442,230Z" data-oid="3527" /><path data-fips="05" data-hasc="US.AR" data-iso="USA" d="M638,432L642,432L645,432L648,432L652,432L655,432L659,432L662,432L666,432L669,432L673,432L676,432L679,432L683,432L686,432L690,432L690,430L691,427L690,424L691,421L690,418L689,415L691,413L692,410L693,407L694,404L696,402L698,400L700,398L701,395L701,391L702,389L703,387L707,385L707,383L707,382L709,380L711,378L710,375L711,372L712,370L714,367L714,364L717,363L719,360L718,358L718,358L715,358L712,358L709,358L705,357L707,355L709,353L711,350L711,348L709,345L709,345L624,345L624,349L624,352L625,356L625,359L626,363L626,366L627,369L627,373L627,378L627,384L627,389L627,395L627,400L626,405L626,411L626,416L627,418L630,418L633,418L635,420L635,423L635,426L635,429L635,432L638,432Z" data-oid="3528" /><path data-fips="19" data-hasc="US.IA" data-iso="USA" d="M686,248L686,245L687,242L690,242L691,239L692,236L694,232L693,229L691,227L692,224L693,222L699,222L701,220L704,219L706,216L707,214L709,211L710,207L708,204L705,202L704,199L702,197L700,195L700,193L697,191L692,189L692,187L690,184L690,181L690,178L692,175L689,173L688,170L688,170L682,170L676,170L670,170L663,170L657,170L651,170L645,170L638,170L632,170L626,170L620,170L613,170L607,170L601,170L595,170L588,170L586,172L587,175L587,177L588,180L587,182L587,185L586,188L585,190L587,192L588,195L590,197L590,200L590,203L592,205L593,208L594,210L596,212L595,215L596,218L597,221L598,223L599,226L600,229L599,232L600,235L600,238L600,241L602,243L602,243L605,243L609,243L613,243L618,243L622,243L626,244L631,243L635,243L640,243L644,243L648,243L653,243L657,243L660,243L664,243L669,243L673,243L677,242L681,244L683,246L685,248L686,248Z" data-oid="3529" /><path data-fips="20" data-hasc="US.KS" data-iso="USA" d="M624,329L624,326L624,323L624,320L624,317L624,314L624,310L624,307L624,304L624,301L624,298L624,294L624,291L624,288L624,285L624,282L622,278L620,277L618,275L616,272L614,270L615,267L617,264L618,262L616,260L613,260L611,259L610,258L481,258L481,262L481,267L481,272L481,277L481,281L481,286L481,291L481,295L481,300L481,305L481,309L481,314L481,319L481,323L481,328L481,333L624,333L624,329Z" data-oid="3530" /><path data-fips="29" data-hasc="US.MO" data-iso="USA" d="M712,358L715,358L718,358L718,358L718,356L719,353L720,350L721,348L721,345L722,345L723,345L724,345L725,342L728,342L729,339L729,336L729,333L726,333L724,331L723,329L722,326L723,324L722,321L722,318L721,315L719,314L717,311L715,309L712,308L710,307L707,304L705,302L705,299L706,297L707,294L709,292L709,289L709,286L706,284L703,284L700,285L699,283L699,280L698,277L697,275L691,269L686,263L685,260L684,258L683,251L685,248L683,246L681,244L677,242L673,243L669,243L664,243L660,243L657,243L653,243L648,243L644,243L640,243L635,243L631,243L626,244L622,243L618,243L613,243L609,243L605,243L602,243L602,243L601,243L603,246L604,248L605,251L607,253L608,256L610,258L611,259L613,260L616,260L618,262L617,264L615,267L614,270L616,272L618,275L620,277L622,278L624,282L624,285L624,288L624,291L624,294L624,298L624,301L624,304L624,307L624,310L624,314L624,317L624,320L624,323L624,326L624,329L624,333L624,336L624,339L624,342L624,345L709,345L709,345L711,348L711,350L709,353L707,355L705,357L709,358L712,358Z" data-oid="3531" /><path data-fips="31" data-hasc="US.NE" data-iso="USA" d="M608,256L607,253L605,251L604,248L603,246L601,243L602,243L600,241L600,238L600,235L599,232L600,229L599,226L598,223L597,221L596,218L595,215L596,212L594,210L593,208L592,205L590,203L590,200L590,197L588,195L585,193L583,191L581,189L577,189L575,188L572,186L568,186L564,186L561,186L559,188L557,187L552,185L548,183L544,183L512,183L508,183L505,183L472,183L469,183L466,183L442,183L442,186L442,189L442,192L442,195L442,199L442,202L442,205L442,208L442,211L442,214L442,217L442,220L442,223L442,227L442,230L442,233L445,233L447,233L459,233L463,233L473,233L477,233L481,233L481,236L481,239L481,242L481,245L481,248L481,252L481,255L481,258L610,258L608,256Z" data-oid="3532" /><path data-fips="40" data-hasc="US.OK" data-iso="USA" d="M626,411L626,405L627,400L627,395L627,389L627,384L627,378L627,373L627,369L626,366L626,363L625,359L625,356L624,352L624,349L624,345L624,342L624,339L624,336L624,333L463,333L463,336L463,339L463,342L463,345L468,345L471,345L476,345L480,345L501,345L506,345L510,345L514,345L520,346L520,349L520,352L520,355L520,358L520,361L520,363L520,366L520,369L520,372L520,375L520,378L520,380L520,383L520,386L520,389L520,392L522,393L526,398L529,397L532,398L534,397L536,399L536,402L540,402L542,403L545,404L547,404L549,406L552,404L557,404L557,407L560,408L560,410L562,410L566,408L567,410L569,412L572,411L574,412L576,414L577,411L578,409L580,410L583,411L585,410L587,412L589,413L591,415L593,413L595,411L598,410L601,411L603,410L606,409L608,411L611,410L614,409L616,411L618,413L621,414L623,416L626,416L626,411Z" data-oid="3533" /><path data-fips="46" data-hasc="US.SD" data-iso="USA" d="M587,192L585,190L586,188L587,185L587,182L588,180L587,177L587,175L586,172L588,170L588,165L588,159L588,154L588,149L588,143L588,138L588,132L588,127L587,124L584,123L582,120L580,118L582,116L585,114L586,112L586,110L573,110L568,110L564,110L537,110L533,110L528,110L501,110L497,110L492,110L448,110L442,110L442,112L442,115L442,118L443,120L443,123L443,126L443,128L443,131L442,133L442,136L442,139L442,142L442,146L442,149L442,152L442,155L442,158L442,161L442,164L442,167L442,170L442,174L442,177L442,180L442,183L466,183L469,183L472,183L505,183L508,183L512,183L544,183L548,183L552,185L557,187L559,188L561,186L564,186L568,186L572,186L575,188L577,189L581,189L583,191L585,193L588,195L587,192Z" data-oid="3534" /><path data-fips="22" data-hasc="US.LA" data-iso="USA" d="M679,518L677,516L676,516L675,516L674,518L678,520L679,518Z M735,509L734,506L734,506L735,507L735,509L735,512L735,509Z M728,503L728,503L728,503L727,506L728,503Z M725,532L727,530L729,532L731,530L730,527L728,524L726,523L723,522L721,521L718,519L717,516L720,515L722,516L721,514L724,513L725,510L723,508L722,505L721,508L720,510L718,508L715,507L718,506L719,503L716,505L714,505L710,506L707,506L704,505L705,502L707,500L709,498L711,498L713,501L716,502L719,503L722,503L720,502L719,498L718,495L716,493L716,491L716,488L717,485L717,482L713,482L692,482L690,482L685,482L682,481L681,478L683,475L684,473L683,470L685,467L685,464L687,461L689,459L691,457L693,454L694,451L693,448L691,446L691,443L690,441L690,438L691,435L690,433L690,432L686,432L683,432L679,432L676,432L673,432L669,432L666,432L662,432L659,432L655,432L652,432L648,432L645,432L642,432L638,432L635,432L635,435L635,438L635,441L635,444L635,447L635,450L635,453L635,456L636,459L638,462L639,465L639,468L641,469L641,472L642,475L643,477L644,480L644,483L644,486L643,488L642,491L641,494L641,497L641,500L641,503L641,505L639,508L640,510L637,513L640,514L643,513L648,513L651,513L654,514L658,516L660,517L665,518L669,519L672,516L672,513L676,511L678,514L681,514L682,516L683,519L686,519L688,519L689,521L690,524L687,524L689,526L693,528L695,529L698,529L700,527L702,525L704,523L706,525L707,528L708,530L710,529L710,526L712,523L711,521L708,519L711,519L714,520L717,522L716,524L720,526L723,526L723,528L726,529L725,532L724,534L725,532Z" data-oid="3535" /><path data-fips="48" data-hasc="US.TX" data-iso="USA" d="M574,600L574,601L575,604L574,600Z M574,599L573,596L571,588L571,584L570,578L570,580L570,582L570,586L571,589L572,592L573,595L574,599L574,600L574,599Z M571,577L570,578L570,578L571,577Z M571,573L573,570L574,566L577,561L577,561L577,561L575,564L573,568L571,571L571,573L571,576L571,573Z M579,558L581,554L580,554L580,555L579,557L578,560L579,558Z M583,553L585,552L588,550L589,548L587,549L584,551L582,553L581,555L583,553Z M589,548L589,548L589,548L589,548Z M589,547L589,547L589,548L589,547Z M593,545L593,545L590,547L593,545Z M618,527L620,523L620,523L619,525L617,527L615,529L618,527Z M573,609L575,608L575,605L573,607L574,605L572,603L571,600L570,597L569,595L569,592L569,589L568,586L567,583L569,581L569,578L570,575L566,576L564,574L564,572L566,574L568,572L568,575L570,573L572,568L573,565L571,563L569,561L571,561L574,561L576,559L577,555L574,555L576,553L578,554L581,552L582,550L583,547L585,549L587,548L589,546L587,544L585,542L585,539L587,541L589,541L589,539L590,541L593,540L594,542L597,542L593,545L596,543L599,542L601,540L598,540L602,539L605,538L607,537L609,535L612,532L613,530L615,527L617,525L618,522L618,520L616,517L616,514L619,514L622,513L622,516L622,519L624,519L622,521L621,523L623,521L631,517L635,515L638,514L637,511L639,508L641,505L641,503L641,500L641,497L641,494L642,491L643,488L644,486L644,483L644,480L643,477L642,475L641,472L641,469L639,468L639,465L638,462L636,459L635,456L635,453L635,450L635,447L635,444L635,441L635,438L635,435L635,432L635,429L635,426L635,423L635,420L633,418L630,418L627,418L626,416L623,416L621,414L618,413L616,411L614,409L611,410L608,411L606,409L603,410L601,411L598,410L595,411L593,413L591,415L589,413L587,412L585,410L583,411L580,410L578,409L577,411L576,414L574,412L572,411L569,412L567,410L566,408L562,410L560,410L560,408L557,407L557,404L552,404L549,406L547,404L545,404L542,403L540,402L536,402L536,399L534,397L532,398L529,397L526,398L522,393L520,392L520,389L520,386L520,383L520,380L520,378L520,375L520,372L520,369L520,366L520,363L520,361L520,358L520,355L520,352L520,349L520,346L514,345L510,345L506,345L501,345L480,345L476,345L471,345L468,345L463,345L462,350L462,353L462,357L462,360L462,364L462,367L462,371L462,374L462,378L462,381L462,385L462,388L462,391L462,395L462,398L461,402L461,405L461,409L461,412L461,416L461,419L461,423L461,426L461,430L461,433L461,437L461,440L461,444L461,447L461,450L461,454L461,457L457,457L453,457L448,457L444,457L440,457L436,457L431,457L427,457L423,457L419,457L414,457L410,457L406,457L401,457L397,457L393,457L393,460L395,463L397,464L399,466L400,469L402,471L405,472L407,475L409,477L411,479L413,481L415,483L417,486L419,487L422,488L424,491L426,493L427,496L428,498L429,501L430,503L430,507L431,510L432,513L433,516L435,518L438,520L440,522L442,524L445,525L448,526L450,528L452,529L454,531L457,532L460,533L461,530L463,528L465,526L465,524L466,521L467,519L468,516L469,514L472,513L474,512L477,511L480,512L483,512L486,512L489,513L492,513L494,515L496,517L497,519L500,521L501,523L504,525L505,528L507,529L508,532L509,535L510,537L511,540L513,542L513,545L514,548L515,550L517,552L519,555L520,557L522,559L523,562L525,564L527,566L529,567L530,570L530,572L530,575L531,577L531,581L532,583L534,586L535,589L536,592L538,595L539,597L542,598L544,599L546,601L550,602L552,603L554,605L557,605L560,606L563,606L566,608L568,610L571,611L573,609Z" data-oid="3536" /><path data-fips="09" data-hasc="US.CT" data-iso="USA" d="M1027,232L1030,231L1032,230L1035,229L1038,228L1040,226L1043,226L1046,226L1049,226L1052,225L1055,225L1058,225L1061,225L1062,222L1062,219L1062,216L1062,213L1062,211L1062,207L1060,207L1057,207L1054,207L1051,207L1048,207L1046,207L1044,208L1043,208L1042,207L1039,207L1035,207L1030,207L1030,209L1030,212L1029,216L1029,219L1029,223L1029,225L1029,228L1025,230L1027,233L1027,232Z" data-oid="3537" /><path data-fips="33" data-hasc="US.NH" data-iso="USA" d="M1072,190L1073,190L1073,189L1074,189L1074,188L1075,188L1075,187L1075,187L1076,187L1077,187L1077,187L1079,186L1079,186L1080,186L1082,184L1083,181L1082,180L1081,178L1080,175L1078,173L1078,170L1078,167L1078,164L1078,161L1078,159L1078,156L1078,153L1077,151L1077,148L1077,145L1077,143L1077,140L1077,137L1076,135L1076,132L1076,129L1076,127L1076,125L1074,127L1071,126L1069,127L1069,130L1068,133L1067,134L1067,137L1066,140L1067,143L1066,145L1064,147L1061,149L1059,150L1057,152L1057,155L1056,159L1055,162L1053,165L1052,167L1051,170L1050,176L1050,179L1049,182L1048,184L1048,187L1049,190L1049,190L1052,190L1055,190L1058,190L1060,190L1062,190L1063,190L1066,190L1069,190L1070,190L1072,190L1072,190Z" data-oid="3538" /><path data-fips="44" data-hasc="US.RI" data-iso="USA" d="M1071,218L1070,218L1070,221L1071,218Z M1075,219L1075,218L1075,217L1075,217L1075,216L1074,216L1074,218L1075,220L1075,219Z M1073,220L1073,217L1073,216L1072,219L1071,221L1073,220Z M1071,213L1071,213L1072,214L1072,214L1071,213Z M1063,225L1068,223L1069,221L1070,218L1071,215L1070,212L1071,213L1071,213L1071,213L1071,212L1071,211L1071,211L1071,211L1070,210L1070,210L1070,209L1070,208L1069,207L1066,208L1064,208L1062,211L1062,213L1062,216L1062,219L1062,222L1061,225L1063,225Z" data-oid="3539" /><path data-fips="50" data-hasc="US.VT" data-iso="USA" d="M1048,187L1048,184L1049,182L1050,179L1050,176L1051,170L1052,167L1053,165L1055,162L1056,159L1057,155L1057,152L1059,150L1061,149L1064,147L1066,145L1067,143L1066,140L1067,137L1067,134L1068,133L1066,133L1062,133L1058,133L1054,133L1051,133L1047,133L1043,133L1039,133L1035,133L1032,133L1032,135L1033,138L1032,141L1032,144L1033,148L1033,151L1032,153L1031,156L1031,159L1032,162L1032,164L1033,167L1034,169L1034,172L1034,175L1034,178L1034,181L1034,184L1034,186L1034,189L1036,189L1038,189L1040,189L1042,189L1044,189L1047,190L1048,190L1049,190L1048,187Z" data-oid="3540" /><path data-fips="01" data-hasc="US.AL" data-iso="USA" d="M749,501L749,500L748,501L745,501L749,501Z M757,501L759,499L761,498L762,495L762,493L762,490L759,488L758,485L760,482L763,482L766,482L769,482L775,482L778,482L781,482L787,482L790,482L793,482L796,482L799,482L802,482L805,482L808,482L808,480L807,477L807,475L807,471L807,468L806,465L806,460L807,457L808,455L809,453L810,450L809,447L809,447L808,444L807,441L806,438L805,436L804,432L804,428L803,425L803,421L802,417L801,413L801,410L800,405L800,401L799,396L798,392L798,389L797,386L797,383L793,383L790,383L787,383L784,383L781,383L775,383L772,383L769,383L766,383L763,383L760,382L757,382L754,382L751,382L748,382L747,382L747,383L748,384L749,386L749,389L748,393L748,398L748,400L747,403L747,406L747,410L746,413L746,416L746,420L745,423L745,427L745,430L744,433L744,437L744,440L743,443L743,446L743,449L742,453L742,457L742,460L742,465L742,470L742,474L742,479L743,484L743,488L743,493L743,498L746,498L749,499L749,496L750,492L752,491L753,493L752,496L754,498L755,500L753,501L757,501Z" data-oid="3541" /><path data-fips="12" data-hasc="US.FL" data-iso="USA" d="M875,641L875,640L875,640L873,643L875,641Z M877,638L877,638L879,641L877,638Z M896,630L898,626L900,624L899,623L898,625L897,627L895,630L894,633L896,630Z M862,594L862,593L864,596L862,594Z M863,590L863,590L863,590L864,593L863,590Z M853,572L853,571L853,572L855,574L853,572Z M855,568L855,568L855,568L855,568Z M854,568L854,568L855,568L854,568Z M898,565L896,561L896,561L896,561L897,564L898,567L899,573L901,577L898,565Z M892,546L893,543L893,542L892,543L891,546L892,549L892,546Z M811,516L812,515L808,517L811,516Z M813,515L814,514L812,515L813,515Z M814,513L814,513L814,514L814,513Z M778,497L777,497L777,497L775,497L771,498L769,498L765,499L778,497Z M887,628L890,628L892,627L895,626L897,627L897,625L898,621L899,618L900,615L901,612L902,610L902,613L903,604L903,599L903,597L904,592L904,587L903,583L902,581L901,577L898,569L897,566L891,549L890,546L889,542L890,539L890,542L893,542L893,545L893,548L893,552L893,555L896,560L894,555L893,550L894,546L894,543L892,539L890,537L887,530L885,526L884,522L883,519L882,516L880,513L880,509L879,506L878,503L878,500L878,496L877,494L876,490L876,490L873,489L870,488L867,487L865,489L865,492L866,495L865,498L862,498L862,495L860,493L857,493L854,493L850,492L847,492L842,492L838,491L834,491L830,491L826,490L822,490L818,490L816,490L813,489L810,488L810,485L808,482L808,482L805,482L802,482L799,482L796,482L793,482L790,482L787,482L781,482L778,482L775,482L769,482L766,482L763,482L760,482L758,485L759,488L762,490L762,493L762,495L762,497L761,500L765,497L767,496L767,493L769,495L769,492L770,495L772,496L770,497L766,498L769,498L775,497L778,496L781,496L784,495L786,497L783,497L779,497L782,498L786,499L790,501L794,503L793,500L796,501L796,504L799,504L799,507L797,505L799,508L801,509L803,512L801,514L801,511L801,515L804,515L807,514L810,513L813,513L815,511L818,510L821,510L820,507L822,506L825,505L829,506L832,508L834,510L836,513L838,515L839,517L840,520L843,522L844,525L846,527L848,528L851,528L852,531L852,533L854,535L854,539L854,542L853,545L853,548L852,550L851,553L851,556L850,560L850,562L852,565L852,563L854,563L855,560L852,559L854,557L856,559L857,562L858,559L859,561L857,564L856,566L855,568L855,570L852,569L854,571L855,574L857,577L857,580L860,584L861,586L863,587L863,584L861,582L864,583L867,582L865,584L865,587L865,591L867,593L869,590L868,593L866,595L869,595L869,598L869,601L870,604L871,607L872,609L874,609L877,610L879,612L879,614L881,617L881,619L883,622L885,624L886,626L883,624L882,626L884,629L887,628Z" data-oid="3542" /><path data-fips="13" data-hasc="US.GA" data-iso="USA" d="M877,484L877,483L877,484L877,487L877,484Z M866,495L865,492L865,489L867,487L870,488L873,489L876,490L876,490L876,488L876,485L877,482L877,479L879,478L880,475L877,474L880,472L882,469L880,468L882,468L882,464L884,462L883,460L886,459L888,457L886,456L883,454L883,452L882,449L882,445L880,443L878,441L878,439L877,436L876,432L874,430L871,429L870,427L868,425L868,422L866,420L863,417L862,415L860,412L857,410L855,408L854,406L852,403L852,400L850,397L848,395L845,394L842,392L840,390L841,387L843,385L845,383L845,383L842,383L839,383L836,383L833,383L830,383L827,383L824,383L821,383L820,383L811,383L806,383L801,383L797,383L797,386L798,389L798,392L799,396L800,401L800,405L801,410L801,413L802,417L803,421L803,425L804,428L804,432L805,436L806,438L807,441L808,444L809,447L809,447L810,450L809,453L808,455L807,457L806,460L806,465L807,468L807,471L807,475L807,477L808,480L808,482L808,482L810,485L810,488L813,489L816,490L818,490L822,490L826,490L830,491L834,491L838,491L842,492L847,492L850,492L854,493L857,493L860,493L862,495L862,498L865,498L866,495Z M809,447L809,447L809,447L809,447Z" data-oid="3543" /><path data-fips="28" data-hasc="US.MS" data-iso="USA" d="M724,501L727,499L729,499L732,497L735,497L737,499L741,499L743,498L743,493L743,488L743,484L742,479L742,474L742,470L742,465L742,460L742,457L742,453L743,449L743,446L743,443L744,440L744,437L744,433L745,430L745,427L745,423L746,420L746,416L746,413L747,410L747,406L747,403L748,400L748,398L748,393L749,389L749,386L748,384L747,383L744,383L739,383L734,383L729,383L724,383L719,383L714,383L709,383L707,383L707,385L703,387L702,389L701,391L701,395L700,398L698,400L696,402L694,404L693,407L692,410L691,413L689,415L690,418L691,421L690,424L691,427L690,430L690,432L690,433L691,435L690,438L690,441L691,443L691,446L693,448L694,451L693,454L691,457L689,459L687,461L685,464L685,467L683,470L684,473L683,475L681,478L682,481L685,482L690,482L692,482L713,482L717,482L717,485L716,488L716,491L716,493L718,495L719,498L720,502L722,503L724,501Z" data-oid="3544" /><path data-fips="45" data-hasc="US.SC" data-iso="USA" d="M888,456L890,454L890,451L889,448L889,445L890,447L893,448L893,450L894,448L895,445L893,444L896,445L899,445L900,442L903,443L905,441L907,439L907,436L908,438L911,436L912,434L914,433L917,431L919,429L920,426L918,424L920,422L919,424L920,426L921,422L923,419L926,415L928,413L932,410L931,409L928,406L926,404L923,401L921,398L918,395L916,392L913,390L911,388L908,387L905,387L902,387L898,387L895,387L892,387L889,386L889,382L886,380L884,379L881,379L878,378L874,378L871,378L867,378L865,378L862,378L859,377L859,377L858,378L856,379L853,379L851,381L845,383L845,383L843,385L841,387L840,390L842,392L845,394L848,395L850,397L852,400L852,403L854,406L855,408L857,410L860,412L862,415L863,417L866,420L868,422L868,425L870,427L871,429L874,430L876,432L877,436L878,439L878,441L880,443L882,445L882,449L883,452L883,454L886,456L888,457L888,456Z" data-oid="3545" /><path data-fips="17" data-hasc="US.IL" data-iso="USA" d="M729,330L731,327L733,327L739,330L742,331L742,328L741,325L742,322L745,321L749,320L748,318L748,315L750,313L750,312L750,308L751,306L752,303L752,301L754,299L756,297L758,295L758,293L760,290L760,287L760,284L759,281L757,279L758,275L760,273L760,269L760,266L760,262L760,258L760,255L760,251L760,247L760,244L760,240L760,237L760,233L760,229L760,226L760,222L760,219L760,214L766,212L767,210L767,206L768,203L769,198L769,196L755,196L751,196L748,196L744,196L741,196L738,195L734,195L731,195L727,195L724,195L721,195L717,195L714,195L710,195L707,195L704,195L700,195L700,195L702,197L704,199L705,202L708,204L710,207L709,211L707,214L706,216L704,219L701,220L699,222L693,222L692,224L691,227L693,229L694,232L692,236L691,239L690,242L687,242L686,245L686,248L685,248L683,251L684,258L685,260L686,263L691,269L697,275L698,277L699,280L699,283L700,285L703,284L706,284L709,286L709,289L709,292L707,294L706,297L705,299L705,302L707,304L710,307L712,308L715,309L717,311L719,314L721,315L722,318L722,321L723,324L722,326L723,329L724,331L726,333L729,333L729,330Z" data-oid="3546" /><path data-fips="18" data-hasc="US.IN" data-iso="USA" d="M753,309L755,311L758,312L760,310L764,310L766,311L769,312L770,309L774,308L775,310L778,310L779,307L780,305L782,303L784,305L786,307L789,308L791,306L791,303L793,300L796,300L797,297L799,295L800,292L800,290L802,289L806,290L809,288L812,288L813,285L812,283L812,280L812,276L812,272L812,268L812,264L812,260L812,256L812,252L812,248L812,244L812,240L812,236L812,232L812,228L812,223L812,219L812,215L811,214L808,214L805,214L802,214L799,214L796,214L793,214L790,214L787,214L784,214L781,214L778,214L775,214L772,214L769,214L760,214L760,219L760,222L760,226L760,229L760,233L760,237L760,240L760,244L760,247L760,251L760,255L760,258L760,262L760,266L760,269L760,273L758,275L757,279L759,281L760,284L760,287L760,290L758,293L758,295L756,297L754,299L752,301L752,303L751,306L750,308L750,312L750,313L752,313L753,309Z" data-oid="3547" /><path data-fips="21" data-hasc="US.KY" data-iso="USA" d="M750,343L751,341L754,342L757,342L760,341L764,341L768,341L773,341L776,341L779,341L781,341L785,342L788,342L792,342L796,342L800,342L806,342L811,342L816,342L820,343L824,343L827,343L831,343L834,343L835,342L840,340L842,339L845,337L848,336L850,333L852,332L853,329L856,328L859,326L861,324L864,322L867,319L866,319L864,318L861,316L860,313L858,311L857,308L855,306L854,303L855,301L855,298L854,296L852,294L850,292L849,289L846,290L844,292L842,293L839,291L837,290L833,292L831,290L829,288L826,288L824,287L823,285L822,282L819,280L816,281L814,279L814,279L812,280L812,283L813,285L812,288L809,288L806,290L802,289L800,290L800,292L799,295L797,297L796,300L793,300L791,303L791,306L789,308L786,307L784,305L782,303L780,305L779,307L778,310L775,310L774,308L770,309L769,312L766,311L764,310L760,310L758,312L755,311L753,309L752,313L750,313L748,315L748,318L749,320L745,321L742,322L741,325L742,328L742,331L739,330L733,327L731,327L729,330L729,333L729,336L729,339L728,342L725,342L724,345L723,345L727,345L730,345L733,345L737,345L740,345L743,345L747,345L750,343Z" data-oid="3548" /><path data-fips="37" data-hasc="US.NC" data-iso="USA" d="M953,396L956,394L955,394L954,395L950,398L953,396Z M966,390L968,390L967,390L964,390L960,391L966,390Z M975,387L977,385L978,384L976,385L974,388L972,392L975,387Z M983,379L986,378L986,378L984,379L981,381L983,379Z M990,377L991,374L992,370L992,367L991,363L991,363L991,364L992,367L991,370L991,373L990,376L988,378L990,377Z M987,359L987,359L987,359L989,361L987,359Z M990,360L987,354L986,352L985,348L984,344L984,344L984,344L984,345L985,348L986,352L986,355L988,358L989,360L991,363L990,360Z M983,344L982,344L983,344L983,344Z M981,344L982,344L982,344L981,344Z M934,410L937,410L940,410L943,410L944,407L944,404L945,407L946,404L947,401L949,398L952,396L954,392L955,390L956,393L958,391L961,390L964,389L968,388L969,390L970,387L972,389L973,387L974,384L972,383L969,383L966,384L963,383L962,380L965,382L968,383L970,381L969,378L971,377L971,375L968,374L966,372L963,372L961,369L964,371L967,372L970,372L970,369L973,369L971,371L973,373L976,374L979,374L981,372L982,369L984,367L986,367L987,364L987,362L984,360L982,360L980,366L980,363L981,360L980,358L976,359L973,358L970,359L968,357L967,354L968,351L968,354L970,356L973,357L975,355L973,352L975,354L978,355L976,353L979,352L978,350L980,352L983,352L985,354L983,349L982,347L981,344L978,344L975,344L972,344L968,344L964,344L959,344L954,344L950,344L945,344L939,344L936,344L933,344L921,344L917,344L912,344L907,344L903,344L900,344L897,344L896,344L893,344L890,344L888,344L885,343L882,343L879,343L876,343L873,343L873,342L872,346L870,349L868,350L864,355L862,354L859,355L857,357L855,359L854,356L851,358L849,359L848,362L846,363L843,364L840,366L838,367L836,368L833,368L830,370L828,371L827,374L825,376L822,377L822,379L821,383L824,383L827,383L830,383L833,383L836,383L839,383L842,383L845,383L851,381L853,379L856,379L858,378L859,377L859,377L862,378L865,378L867,378L871,378L874,378L878,378L881,379L884,379L886,380L889,382L889,386L892,387L895,387L898,387L902,387L905,387L908,387L911,388L913,390L916,392L918,395L921,398L923,401L926,404L928,406L931,409L932,410L934,410Z" data-oid="3549" /><path data-fips="39" data-hasc="US.OH" data-iso="USA" d="M860,296L861,294L863,292L862,289L863,286L864,284L867,283L868,286L871,284L870,281L871,278L872,276L875,275L876,273L880,273L882,272L884,270L886,268L888,265L889,262L890,260L890,257L891,254L893,251L893,248L893,245L892,243L895,242L895,239L895,236L895,234L895,231L895,229L895,226L895,223L895,221L895,218L895,216L895,213L895,210L895,208L895,205L895,202L895,200L895,200L890,201L885,202L880,203L877,204L875,206L872,208L869,209L866,211L864,213L861,214L857,216L852,216L850,214L846,212L844,209L838,214L835,215L832,215L828,215L825,215L822,215L819,215L816,215L812,215L812,219L812,223L812,228L812,232L812,236L812,240L812,244L812,248L812,252L812,256L812,260L812,264L812,268L812,272L812,276L812,280L814,279L814,279L816,281L819,280L822,282L823,285L824,287L826,288L829,288L831,290L833,292L837,290L839,291L842,293L844,292L846,290L849,289L850,292L852,294L854,296L855,297L856,298L860,296Z" data-oid="3550" /><path data-fips="47" data-hasc="US.TN" data-iso="USA" d="M806,383L811,383L820,383L821,383L822,379L822,377L825,376L827,374L828,371L830,370L833,368L836,368L838,367L840,366L843,364L846,363L848,362L849,359L851,358L854,356L855,359L857,357L859,355L862,354L864,355L868,350L870,349L872,346L873,342L869,342L866,343L862,343L858,343L854,343L850,343L846,343L842,343L838,343L834,343L831,343L827,343L824,343L820,343L816,342L811,342L806,342L800,342L796,342L792,342L788,342L785,342L781,341L779,341L776,341L773,341L768,341L764,341L760,341L757,342L754,342L751,341L750,343L747,345L743,345L740,345L737,345L733,345L730,345L727,345L723,345L722,345L721,345L721,348L720,350L719,353L718,356L718,358L719,360L717,363L714,364L714,367L712,370L711,372L710,375L711,378L709,380L707,382L707,383L709,383L714,383L719,383L724,383L729,383L734,383L739,383L744,383L747,383L747,382L748,382L751,382L754,382L757,382L760,382L763,383L766,383L769,383L772,383L775,383L781,383L784,383L787,383L790,383L793,383L797,383L801,383L806,383Z" data-oid="3551" /><path data-fips="51" data-hasc="US.VA" data-iso="USA" d="M983,343L983,344L983,344L983,343Z M984,326L985,322L987,319L989,318L990,315L993,310L993,307L994,307L991,307L988,309L988,309L988,312L986,314L985,316L983,318L983,321L982,323L981,326L983,328L984,326Z M996,307L996,307L996,307L995,310L996,307Z M907,344L912,344L917,344L921,344L933,344L936,344L939,344L945,344L950,344L954,344L959,344L964,344L968,344L972,344L975,344L978,344L981,344L981,344L982,344L982,344L983,340L984,344L984,344L984,344L984,343L982,337L981,335L978,334L975,335L972,335L971,333L969,331L969,328L966,328L963,327L961,325L957,324L960,325L962,325L965,326L967,328L970,328L971,330L975,332L976,330L974,328L972,327L970,325L968,322L966,319L969,322L970,325L973,324L974,322L977,323L975,320L974,318L971,316L969,314L967,312L966,310L964,308L963,305L961,304L963,305L965,308L967,310L969,312L971,314L973,316L975,317L975,314L977,312L976,309L974,308L972,306L970,304L967,304L964,303L963,301L962,298L959,299L957,298L956,295L958,293L959,290L962,289L961,285L961,285L958,283L956,281L953,280L954,277L952,275L948,274L948,276L946,279L944,277L942,275L939,274L937,272L937,272L937,272L936,274L935,277L934,280L932,282L930,285L928,286L926,288L924,287L922,290L921,292L920,295L918,297L915,296L913,294L911,295L910,298L908,300L907,302L906,306L904,308L901,311L900,314L900,317L899,320L897,321L894,321L891,323L889,322L888,325L885,325L881,326L878,325L876,326L873,327L871,326L869,324L867,322L867,319L864,322L861,324L859,326L856,328L853,329L852,332L850,333L848,336L845,337L842,339L840,340L835,342L834,343L838,343L842,343L846,343L850,343L854,343L858,343L862,343L866,343L869,342L873,342L873,343L876,343L879,343L882,343L885,343L888,344L890,344L893,344L896,344L897,344L900,344L903,344L907,344Z" data-oid="3552" /><path data-fips="55" data-hasc="US.WI" data-iso="USA" d="M769,192L768,188L768,183L768,180L767,175L767,171L767,167L768,164L768,161L769,158L770,154L772,149L772,146L774,142L776,137L777,134L779,132L781,130L784,127L782,126L779,125L777,123L774,122L767,123L765,126L762,128L760,131L757,129L756,127L757,123L753,123L755,120L755,118L754,115L751,114L749,112L748,110L746,109L743,108L740,108L737,107L734,107L731,105L728,104L726,104L723,103L720,102L716,101L712,100L710,99L708,96L706,95L705,92L707,89L708,86L710,82L712,79L713,76L710,76L707,76L703,76L700,75L696,78L692,80L688,83L684,85L681,87L678,88L675,90L672,89L670,91L668,94L668,97L668,100L668,103L668,106L666,107L664,108L661,110L659,112L657,115L657,118L660,119L661,122L660,124L659,128L659,130L659,134L659,137L658,139L661,142L666,143L668,146L671,147L675,150L677,153L680,156L684,157L686,159L688,161L688,164L688,167L688,169L688,170L688,170L689,173L692,175L690,178L690,181L690,184L692,187L692,189L697,191L700,193L700,195L700,195L704,195L707,195L710,195L714,195L717,195L721,195L724,195L727,195L731,195L734,195L738,195L741,196L744,196L748,196L751,196L755,196L769,196L769,192Z" data-oid="3553" /><path data-fips="54" data-hasc="US.WV" data-iso="USA" d="M876,326L878,325L881,326L885,325L888,325L889,322L891,323L894,321L897,321L899,320L900,317L900,314L901,311L904,308L906,306L907,302L908,300L910,298L911,295L913,294L915,296L918,297L920,295L921,292L922,290L924,287L926,288L928,286L930,285L932,282L934,280L935,277L936,274L937,272L937,272L937,272L939,274L942,275L944,277L946,279L948,276L948,274L948,272L946,270L946,267L943,267L940,265L938,267L935,268L933,269L930,269L928,267L926,270L924,272L922,271L919,274L917,275L914,278L915,265L910,265L905,265L900,265L895,265L895,261L895,258L895,254L895,250L895,246L895,242L895,242L892,243L893,245L893,248L893,251L891,254L890,257L890,260L889,262L888,265L886,268L884,270L882,272L880,273L876,273L875,275L872,276L871,278L870,281L871,284L868,286L867,283L864,284L863,286L862,289L863,292L861,294L860,296L856,298L855,297L855,298L855,301L854,303L855,306L857,308L858,311L860,313L861,316L864,318L866,319L867,319L867,322L869,324L871,326L873,327L876,326Z" data-oid="3554" /><path data-fips="10" data-hasc="US.DE" data-iso="USA" d="M999,296L1000,296L1000,296L1000,296L1000,293L997,293L1000,291L997,287L995,284L994,281L993,279L993,275L991,272L990,270L989,267L991,265L993,263L991,262L990,262L988,262L986,265L986,267L986,270L986,274L986,278L986,281L987,285L987,289L987,292L987,296L990,296L993,296L996,296L999,296Z" data-oid="3555" /><path data-fips="11" data-hasc="US.DC" data-iso="USA" d="M964,285L961,283L961,285L961,285L962,288L964,285Z" data-oid="3556" /><path data-fips="24" data-hasc="US.MD" data-iso="USA" d="M996,307L996,307L998,304L999,301L999,300L999,301L997,304L996,307L996,307Z M1000,296L1000,296L1000,296L1000,296L999,299L1000,296Z M991,307L994,307L994,305L996,304L998,302L999,299L999,296L996,296L993,296L990,296L987,296L987,292L987,289L987,285L986,281L986,278L986,274L986,270L986,267L986,265L983,265L975,265L970,265L961,265L957,265L948,265L943,265L935,265L930,265L919,265L917,265L915,265L914,278L917,275L919,274L922,271L924,272L926,270L928,267L930,269L933,269L935,268L938,267L940,265L943,267L946,267L946,270L948,272L948,274L952,275L954,277L953,280L956,281L958,283L961,283L964,285L962,288L962,289L960,291L959,294L957,296L960,298L962,296L963,299L965,301L965,298L966,301L969,302L971,303L973,305L976,306L975,304L974,300L972,299L970,297L969,294L969,291L969,295L971,297L974,299L973,297L972,293L972,290L971,287L973,284L971,281L973,281L972,279L971,276L974,276L974,273L976,275L978,273L980,272L980,269L983,268L982,271L985,268L983,271L981,273L984,273L981,273L978,276L976,279L978,282L980,280L978,283L975,283L975,285L977,284L979,286L978,288L976,288L977,290L979,291L981,293L979,293L976,292L977,295L976,298L979,300L981,301L982,298L982,301L984,298L983,301L984,304L986,305L986,308L988,309L991,307Z" data-oid="3557" /><path data-fips="34" data-hasc="US.NJ" data-iso="USA" d="M1014,271L1013,271L1012,273L1014,271Z M1016,267L1016,267L1015,270L1016,267Z M1018,265L1018,264L1017,266L1016,267L1018,265Z M1005,282L1006,280L1007,278L1008,275L1011,274L1012,272L1014,270L1015,267L1017,265L1017,262L1018,259L1019,256L1019,259L1019,263L1019,258L1019,255L1021,250L1020,248L1018,247L1015,245L1016,243L1018,241L1020,239L1021,236L1022,233L1020,232L1016,230L1012,227L1008,225L1007,224L1005,225L1003,227L1002,230L1000,232L998,234L999,237L997,239L997,242L999,244L1000,247L1002,249L1004,252L1006,254L1003,256L1000,257L999,259L997,261L995,262L992,263L991,266L991,269L992,272L994,274L996,276L998,278L1001,278L1003,280L1002,285L1005,282Z" data-oid="3558" /><path data-fips="36" data-hasc="US.NY" data-iso="USA" d="M1019,242L1018,242L1016,243L1015,245L1019,242Z M1032,242L1034,241L1034,241L1032,242L1029,243L1032,242Z M1036,242L1041,240L1044,239L1044,238L1042,239L1040,240L1037,241L1034,242L1036,242Z M1026,242L1030,241L1033,241L1036,240L1039,239L1041,238L1044,238L1047,237L1050,236L1052,235L1055,234L1058,233L1061,231L1059,231L1056,233L1054,232L1051,233L1049,235L1047,235L1049,233L1050,231L1053,229L1053,229L1051,229L1049,231L1047,233L1044,234L1041,233L1037,233L1034,235L1031,235L1028,235L1027,237L1024,238L1021,238L1020,241L1021,243L1024,242L1022,244L1026,242Z M1023,237L1024,235L1027,233L1025,230L1029,228L1029,225L1029,223L1029,219L1029,216L1030,212L1030,209L1030,207L1030,205L1030,205L1030,203L1031,199L1032,196L1033,192L1034,190L1034,189L1034,186L1034,184L1034,181L1034,178L1034,175L1034,172L1034,169L1033,167L1032,164L1032,162L1031,159L1031,156L1032,153L1033,151L1033,148L1032,144L1032,141L1033,138L1032,135L1032,133L1031,133L1028,133L1024,133L1020,133L1016,133L1012,133L1008,133L1006,133L1003,133L1001,134L998,135L994,138L992,139L990,141L987,143L985,146L983,148L980,149L978,153L975,154L973,156L971,159L969,161L968,164L965,167L961,167L956,167L952,167L948,167L943,167L939,167L934,167L929,168L925,169L920,171L923,176L923,181L924,183L925,186L923,188L921,189L918,191L915,192L912,193L909,194L909,195L909,199L909,202L909,205L910,208L912,208L915,208L918,208L920,208L923,208L926,208L928,208L931,208L933,208L936,208L939,208L941,208L944,208L946,208L949,208L952,208L954,208L957,208L960,208L962,208L965,208L967,208L970,208L973,208L975,208L978,208L980,208L983,208L986,208L988,208L991,208L995,209L996,211L999,212L999,215L1000,218L1002,221L1005,222L1007,224L1008,225L1012,227L1016,230L1020,232L1022,233L1021,230L1021,227L1022,230L1022,234L1021,236L1020,240L1023,237Z" data-oid="3559" /><path data-fips="42" data-hasc="US.PA" data-iso="USA" d="M988,262L990,262L991,262L993,263L993,262L996,261L998,259L1000,257L1003,256L1006,254L1004,252L1002,249L1000,247L999,244L997,242L997,239L999,237L998,234L1000,232L1002,230L1003,227L1005,225L1007,224L1005,222L1002,221L1000,218L999,215L999,212L996,211L995,209L991,208L988,208L986,208L983,208L980,208L978,208L975,208L973,208L970,208L967,208L965,208L962,208L960,208L957,208L954,208L952,208L949,208L946,208L944,208L941,208L939,208L936,208L933,208L931,208L928,208L926,208L923,208L920,208L918,208L915,208L912,208L910,208L909,205L909,202L909,199L909,195L909,194L909,195L906,196L903,197L897,199L895,200L895,200L895,202L895,205L895,208L895,210L895,213L895,216L895,218L895,221L895,223L895,226L895,229L895,231L895,234L895,236L895,239L895,242L895,242L895,246L895,250L895,254L895,258L895,261L895,265L900,265L905,265L910,265L915,265L917,265L919,265L930,265L935,265L943,265L948,265L957,265L961,265L970,265L975,265L983,265L986,265L988,262Z" data-oid="3560" /><path data-fips="23" data-hasc="US.ME" data-iso="USA" d="M1123,151L1123,151L1122,151L1123,154L1123,151Z M1132,149L1131,147L1130,147L1128,147L1129,150L1132,149Z M1084,181L1085,178L1086,175L1088,174L1090,171L1091,169L1093,167L1093,165L1095,162L1097,161L1098,164L1100,162L1101,164L1101,161L1101,158L1101,161L1102,163L1102,160L1104,159L1105,161L1105,158L1107,161L1109,158L1112,159L1114,157L1114,154L1115,152L1117,150L1116,147L1119,146L1121,144L1121,147L1122,150L1125,150L1126,148L1127,145L1129,146L1132,145L1133,147L1136,148L1136,145L1137,148L1138,145L1140,143L1141,145L1143,142L1146,141L1149,141L1151,141L1153,138L1154,136L1152,135L1154,133L1153,131L1151,129L1148,129L1146,127L1146,124L1145,122L1146,119L1144,118L1141,117L1139,115L1140,112L1139,109L1139,106L1139,102L1139,99L1139,96L1139,92L1139,89L1139,86L1139,81L1136,79L1134,77L1131,75L1129,74L1126,75L1123,77L1121,77L1118,78L1115,76L1115,72L1112,72L1111,72L1109,74L1107,77L1106,79L1104,81L1102,83L1100,86L1099,88L1097,90L1096,93L1095,98L1093,100L1091,103L1092,105L1091,108L1091,111L1089,113L1088,115L1085,117L1083,121L1084,123L1082,122L1081,125L1080,127L1079,125L1076,125L1076,127L1076,129L1076,132L1076,135L1077,137L1077,140L1077,143L1077,145L1077,148L1077,151L1078,153L1078,156L1078,159L1078,161L1078,164L1078,167L1078,170L1078,173L1080,175L1081,178L1082,180L1083,181L1084,181Z" data-oid="3561" /><path data-fips="26" data-hasc="US.MI" data-iso="USA" d="M816,215L819,215L822,215L825,215L828,215L832,215L835,215L838,214L844,209L844,207L844,203L845,200L848,199L851,197L854,194L856,192L857,189L857,186L858,183L859,180L860,177L861,174L863,171L863,168L862,162L861,157L861,152L860,147L859,141L858,136L857,131L855,124L852,122L847,119L843,117L839,115L835,113L837,110L837,107L834,105L830,105L828,105L826,103L826,100L825,97L825,95L822,96L819,96L816,96L813,92L812,89L811,86L808,84L806,83L804,82L801,80L799,79L796,78L794,76L792,75L789,74L785,72L781,70L777,68L773,65L769,64L766,62L762,60L759,58L755,56L751,54L748,53L744,51L744,51L743,51L738,52L736,53L733,54L730,56L725,59L722,58L720,62L719,65L717,68L715,72L714,75L713,76L712,79L710,82L708,86L707,89L705,92L706,95L708,96L710,99L712,100L716,101L720,102L723,103L726,104L728,104L731,105L734,107L737,107L740,108L743,108L746,109L748,110L749,112L751,114L754,115L755,118L755,120L753,123L757,123L756,127L757,129L760,131L762,128L765,126L767,123L774,122L777,123L779,125L782,126L784,127L781,130L779,132L777,134L776,137L774,142L772,146L772,149L770,154L769,158L768,161L768,164L767,167L767,171L767,175L768,180L768,183L768,188L769,192L769,196L769,198L768,203L767,206L767,210L766,212L769,214L772,214L775,214L778,214L781,214L784,214L787,214L790,214L793,214L796,214L799,214L802,214L805,214L808,214L811,214L812,215L816,215Z" data-oid="3562" /></g></svg>