<?xml version="1.0" standalone="no"?>
<!DOCTYPE svg PUBLIC "-//W3C//DTD SVG 1.1//EN" "http://www.w3.org/Graphics/SVG/1.1/DTD/svg11.dtd">

<svg style="stroke-width:0.7pt; stroke-linejoin: round; stroke:#444; fill:white;" xmlns="http://www.w3.org/2000/svg" font-family="Helvetica, Arial, FreeSans, Sans, sans, sans-serif" height="679px" viewBox="0 0 1200 679" width="1200px" version="1.1" xmlns:xlink="http://www.w3.org/1999/xlink" enable-background="new 0 0 1200 679"><defs><style type="text/css">path { fill-rule: evenodd; }
#context path { fill: #eee; stroke: #bbb; } </style></defs><metadata><views><view padding="24.0" h="679.368275093" w="1200"><proj lon0="-98.606" lat1="40.0" id="cea" /><bbox y="-990.71" h="436.52" w="772.18" x="-349.21" /></view></views></metadata><g id="USA"><path data-fips="25" data-hasc="US.MA" data-iso="USA" d="M1099,210L1098,208L1098,208L1098,209L1096,211L1099,210Z M1085,209L1088,209L1087,206L1087,206L1084,207L1083,210L1085,209Z M1099,202L1099,201L1098,204L1099,202Z M1081,202L1083,202L1084,199L1086,201L1086,204L1089,204L1090,202L1093,202L1096,201L1100,199L1099,196L1099,194L1097,191L1094,191L1096,192L1097,194L1098,197L1096,199L1093,199L1090,199L1088,197L1087,194L1086,192L1085,189L1083,187L1080,186L1080,184L1081,182L1083,179L1085,178L1084,176L1082,172L1081,172L1081,172L1080,172L1079,172L1078,173L1078,173L1077,173L1076,173L1076,173L1076,174L1075,175L1075,175L1074,175L1073,176L1073,176L1071,176L1070,176L1067,176L1066,176L1063,176L1062,176L1059,176L1056,175L1053,175L1050,175L1048,175L1045,175L1043,175L1041,175L1039,175L1037,175L1036,175L1035,175L1035,177L1034,181L1033,184L1032,186L1031,190L1031,191L1031,192L1036,192L1041,192L1043,192L1044,193L1045,193L1045,192L1048,192L1049,192L1050,192L1053,192L1056,192L1058,192L1064,192L1065,193L1067,193L1071,193L1072,193L1072,194L1072,195L1072,196L1072,196L1073,196L1073,196L1072,197L1072,198L1072,198L1073,198L1073,199L1074,199L1075,200L1077,198L1075,201L1076,201L1076,202L1076,202L1076,203L1077,204L1077,205L1079,205L1081,202Z" data-oid="3513" /><path data-fips="32" data-hasc="US.MN" data-iso="USA" d="M601,157L607,157L613,157L620,157L626,157L632,157L638,157L645,157L651,157L657,157L664,157L670,157L676,157L682,157L689,157L689,154L689,151L688,148L686,146L684,144L681,143L677,141L675,137L671,134L668,133L666,131L662,130L660,128L659,125L659,122L660,119L659,116L661,114L661,111L660,109L657,108L657,105L659,103L661,100L663,99L666,98L668,97L669,94L669,91L669,88L669,85L670,83L672,81L675,82L678,81L681,79L684,78L688,75L692,73L696,71L700,69L703,69L707,69L710,69L714,69L714,69L716,66L717,63L719,60L721,57L722,54L719,54L717,53L713,53L709,51L704,52L701,51L697,50L695,49L692,50L688,52L685,53L682,52L680,51L677,49L674,48L673,46L669,46L667,49L665,47L665,44L661,44L660,42L655,40L650,40L646,42L643,42L640,42L638,40L635,40L630,38L626,38L622,36L622,34L620,29L620,27L618,25L614,24L613,24L613,27L613,32L573,32L574,34L575,37L576,39L575,42L575,45L576,48L575,51L577,53L578,56L579,59L580,62L580,64L581,67L581,72L581,74L582,77L582,80L582,83L583,85L583,89L585,91L586,94L586,97L586,100L586,102L585,104L582,106L580,108L582,110L584,112L587,113L588,116L588,121L588,126L588,131L588,136L588,141L588,146L588,152L588,157L595,157L601,157Z" data-oid="3514" /><path data-fips="30" data-hasc="US.MT" data-iso="USA" d="M273,135L276,133L279,134L282,133L284,132L287,132L290,132L293,133L295,132L299,132L299,129L301,127L303,129L305,131L307,133L307,130L307,128L307,125L307,122L373,122L377,122L442,122L442,120L442,115L442,110L442,105L442,100L442,95L442,92L442,88L442,84L442,80L442,77L442,73L442,69L442,65L442,62L442,58L442,54L442,51L442,47L442,43L442,40L442,36L442,32L278,32L274,32L270,32L211,32L211,35L211,40L211,45L211,50L211,54L214,57L215,59L217,61L217,64L217,66L220,67L222,69L224,70L226,72L228,74L230,76L232,78L234,80L236,82L238,83L241,84L244,84L243,87L242,89L242,92L241,94L241,97L242,99L242,102L239,103L241,106L240,108L242,109L245,110L247,109L249,107L252,106L254,107L255,110L256,113L256,115L258,117L260,119L261,122L261,125L265,126L267,127L268,129L269,132L270,135L273,135Z" data-oid="3515" /><path data-fips="38" data-hasc="US.ND" data-iso="USA" d="M586,97L586,94L585,91L583,89L583,85L582,83L582,80L582,77L581,74L581,72L581,67L580,64L580,62L579,59L578,56L577,53L575,51L576,48L575,45L575,42L576,39L575,37L574,34L573,32L482,32L477,32L473,32L442,32L442,36L442,40L442,43L442,47L442,51L442,54L442,58L442,62L442,65L442,69L442,73L442,77L442,80L442,84L442,88L442,92L442,95L442,100L447,100L492,100L497,100L501,100L528,100L532,100L537,100L564,100L568,100L573,100L586,100L586,97Z" data-oid="3516" /><path data-fips="16" data-hasc="US.ID" data-iso="USA" d="M196,193L199,193L203,193L206,193L210,193L213,193L217,193L221,193L224,193L228,193L231,193L235,193L239,193L242,193L246,193L249,193L253,193L256,193L260,193L274,193L278,193L282,193L296,193L300,193L303,193L307,193L307,189L307,185L307,182L307,178L307,174L307,170L307,167L307,163L307,159L307,155L307,152L307,148L307,144L307,141L307,137L307,133L305,131L303,129L301,127L299,129L299,132L295,132L293,133L290,132L287,132L284,132L282,133L279,134L276,133L273,135L270,135L269,132L268,129L267,127L265,126L261,125L261,122L260,119L258,117L256,115L256,113L255,110L254,107L252,106L249,107L247,109L245,110L242,109L240,108L241,106L239,103L242,102L242,99L241,97L241,94L242,92L242,89L243,87L244,84L241,84L238,83L236,82L234,80L232,78L230,76L228,74L226,72L224,70L222,69L220,67L217,66L217,64L217,61L215,59L214,57L211,54L211,50L211,45L211,40L211,35L211,32L192,32L192,36L192,39L192,42L192,46L192,49L192,53L192,56L192,60L192,63L192,67L192,70L192,74L192,77L192,81L192,85L192,90L193,93L193,96L195,98L195,99L197,102L199,103L202,105L203,108L201,110L200,112L199,115L198,118L196,122L195,125L193,127L191,129L190,132L189,134L188,137L191,138L193,140L194,142L193,145L193,147L192,150L192,153L192,158L192,163L192,168L192,173L192,178L192,183L192,188L192,193L196,193Z" data-oid="3518" /><path data-fips="53" data-hasc="US.WA" data-iso="USA" d="M79,70L80,69L79,69L79,72L79,70Z M89,67L87,65L87,65L86,66L86,68L89,67Z M86,60L85,60L85,60L86,62L86,60Z M89,53L85,51L84,48L85,45L84,45L83,46L83,50L84,52L86,54L89,53Z M79,42L79,41L78,43L80,44L79,42Z M77,42L75,40L74,40L73,41L75,43L77,42Z M79,38L79,38L78,38L76,40L79,41L79,38Z M93,108L99,105L101,105L104,105L110,105L113,107L116,107L119,106L122,105L128,105L131,104L133,103L136,102L142,101L144,100L147,100L154,99L157,99L162,99L167,98L172,98L177,98L182,98L187,98L192,98L195,98L193,96L193,93L192,90L192,85L192,81L192,77L192,74L192,70L192,67L192,63L192,60L192,56L192,53L192,49L192,46L192,42L192,39L192,36L192,32L83,32L80,33L82,35L84,37L86,39L87,41L85,43L83,45L86,46L87,48L86,50L89,52L89,49L89,52L90,55L89,57L88,60L89,62L89,65L89,68L87,70L85,71L82,74L79,72L78,75L77,72L78,70L81,69L81,72L81,69L84,67L85,70L85,67L86,65L84,63L85,60L86,58L84,57L82,60L81,60L82,58L84,56L82,54L81,51L79,52L76,52L74,50L72,51L67,51L64,51L61,50L58,50L54,49L51,48L48,47L43,46L44,49L44,52L45,55L47,57L49,59L50,62L51,65L53,69L54,72L54,74L54,77L56,75L58,76L61,77L57,78L55,79L57,82L60,82L62,83L59,84L59,87L60,89L57,88L56,85L56,89L57,92L59,93L62,92L65,93L68,93L71,95L73,94L76,95L79,96L80,99L81,102L81,104L83,107L86,107L89,108L93,108Z M73,68L75,66L76,63L79,60L80,58L81,60L81,60L81,61L81,60L79,62L76,64L76,68L78,67L76,68L76,68L73,68Z" data-oid="3519" /><path data-fips="04" data-hasc="US.AZ" data-iso="USA" d="M329,474L342,474L346,474L346,474L346,469L346,464L346,459L346,454L346,449L346,444L346,439L346,434L346,429L346,424L346,420L346,415L346,410L346,405L346,400L346,395L346,391L346,386L346,381L346,376L346,371L346,367L346,362L346,357L346,352L346,348L346,343L346,338L346,334L346,329L346,324L346,320L343,320L340,320L337,320L334,320L331,320L328,320L325,320L322,320L318,320L315,320L312,320L309,320L306,320L303,320L300,320L297,320L294,320L291,320L288,320L285,320L282,320L279,320L276,320L273,320L270,320L267,320L264,320L261,320L258,320L255,320L252,320L249,320L249,320L249,323L249,326L249,329L249,333L249,336L249,339L248,342L248,345L245,345L243,342L241,342L238,342L236,345L236,348L237,351L237,354L238,358L238,361L239,364L239,367L238,370L238,373L238,373L239,377L241,379L242,383L243,386L244,388L246,390L248,392L245,395L242,397L241,400L241,403L241,406L240,409L240,411L239,414L236,416L236,419L237,422L237,425L240,426L241,429L240,432L239,435L236,435L236,436L235,439L235,441L243,445L251,448L259,452L267,456L274,459L282,463L290,466L298,470L301,471L304,472L307,474L310,474L329,474Z" data-oid="3520" /><path data-fips="06" data-hasc="US.CA" data-iso="USA" d="M163,429L162,426L162,426L162,427L163,429L166,431L163,429Z M167,419L166,416L163,414L162,414L162,415L164,416L164,419L167,419Z M134,399L134,399L133,399L131,401L133,402L134,399Z M142,399L139,399L137,398L136,398L137,399L138,401L142,399Z M193,440L196,440L198,439L201,439L204,439L207,438L210,438L213,438L215,437L218,437L221,437L224,437L227,436L230,436L232,436L236,435L239,435L240,432L241,429L240,426L237,425L237,422L236,419L236,416L239,414L240,411L240,409L241,406L241,403L241,400L242,397L245,395L248,392L246,390L244,388L243,386L242,383L241,379L239,377L238,373L238,373L234,369L231,365L227,361L224,357L220,354L217,351L214,347L211,344L208,341L205,337L202,334L199,331L195,327L192,323L188,320L185,316L181,312L178,309L174,305L171,302L166,297L162,293L157,289L152,285L148,281L143,276L139,272L134,266L134,262L134,257L134,252L134,248L134,243L134,238L134,234L134,229L134,225L134,220L134,216L134,211L134,206L134,202L134,197L134,193L53,193L53,194L52,198L55,200L55,203L56,206L56,209L55,212L54,215L55,218L53,223L55,222L53,224L52,226L50,228L50,231L51,234L51,237L55,240L57,243L60,247L61,250L61,253L61,256L61,260L62,263L63,265L63,268L63,271L66,273L68,275L71,280L74,282L76,285L78,288L80,292L78,290L77,294L78,292L80,294L82,296L84,297L87,297L87,294L86,291L88,289L91,292L94,292L97,292L99,292L102,290L100,293L103,291L105,292L103,291L100,293L97,292L93,293L90,293L88,296L90,298L91,300L93,303L94,306L95,308L93,307L91,305L89,303L89,301L87,299L86,301L86,305L87,307L88,310L88,313L89,315L91,318L92,320L96,321L99,322L100,325L99,328L97,330L97,333L98,335L98,338L100,340L102,342L104,345L106,347L107,350L109,352L110,355L113,357L114,360L117,361L118,363L118,367L120,368L122,370L122,373L122,377L122,380L122,383L124,385L125,388L128,387L131,387L134,387L137,389L140,389L143,389L145,390L149,393L149,396L152,397L155,399L158,399L162,399L164,401L165,404L165,407L168,406L171,407L174,410L177,413L180,415L183,418L185,423L187,427L187,432L187,434L189,437L190,440L193,440Z" data-oid="3521" /><path data-fips="08" data-hasc="US.CO" data-iso="USA" d="M481,315L481,310L481,305L481,300L481,295L481,290L481,286L481,281L481,276L481,271L480,266L480,262L480,257L480,252L480,247L480,243L480,239L480,236L480,233L480,230L480,227L480,224L480,221L480,218L477,218L472,218L463,218L458,218L447,218L445,218L346,218L346,221L346,224L346,227L346,230L346,233L346,236L346,239L346,243L346,246L346,249L346,252L346,255L346,258L346,262L346,265L346,268L346,271L346,274L346,278L346,281L346,284L346,287L346,290L346,294L346,297L346,300L346,303L346,307L346,310L346,313L346,316L346,320L481,320L481,315Z" data-oid="3522" /><path data-fips="32" data-hasc="US.NV" data-iso="USA" d="M238,370L239,367L239,364L238,361L238,358L237,354L237,351L236,348L236,345L238,342L241,342L243,342L245,345L248,345L248,342L249,339L249,336L249,333L249,329L249,326L249,323L249,320L249,320L249,316L249,311L249,307L249,303L249,299L249,295L249,291L249,287L249,283L249,279L249,275L249,271L249,267L249,263L249,259L249,255L249,251L249,247L249,243L249,239L249,235L249,232L249,228L249,224L249,220L249,216L249,212L249,208L249,204L249,201L249,197L249,193L246,193L242,193L239,193L235,193L231,193L228,193L224,193L221,193L217,193L213,193L210,193L206,193L203,193L199,193L196,193L192,193L134,193L134,197L134,202L134,206L134,211L134,216L134,220L134,225L134,229L134,234L134,238L134,243L134,248L134,252L134,257L134,262L134,266L139,272L143,276L148,281L152,285L157,289L162,293L166,297L171,302L174,305L178,309L181,312L185,316L188,320L192,323L195,327L199,331L202,334L205,337L208,341L211,344L214,347L217,351L220,354L224,357L227,361L231,365L234,369L238,373L238,370Z" data-oid="3523" /><path data-fips="35" data-hasc="US.NM" data-iso="USA" d="M362,472L362,469L362,467L362,464L362,461L365,461L368,461L371,461L374,461L377,461L380,461L383,461L386,461L389,461L392,461L395,462L393,460L392,458L392,455L397,455L401,455L405,455L409,455L414,455L418,455L422,455L427,455L431,455L435,455L439,455L444,455L448,455L452,455L457,455L461,455L461,451L461,447L461,443L461,440L461,436L461,432L461,428L461,424L461,420L461,417L461,413L461,409L461,405L461,401L461,398L461,394L461,390L461,386L461,382L461,379L461,375L461,371L461,367L461,364L461,360L461,356L461,353L461,349L461,345L461,342L461,338L462,333L462,330L462,326L462,323L462,320L346,320L346,324L346,329L346,334L346,338L346,343L346,348L346,352L346,357L346,362L346,367L346,371L346,376L346,381L346,386L346,391L346,395L346,400L346,405L346,410L346,415L346,420L346,424L346,429L346,434L346,439L346,444L346,449L346,454L346,459L346,464L346,469L346,474L346,474L362,472Z" data-oid="3524" /><path data-fips="41" data-hasc="US.OR" data-iso="USA" d="M192,188L192,183L192,178L192,173L192,168L192,163L192,158L192,153L192,150L193,147L193,145L194,142L193,140L191,138L188,137L189,134L190,132L191,129L193,127L195,125L196,122L198,118L199,115L200,112L201,110L203,108L202,105L199,103L197,102L195,99L195,98L192,98L187,98L182,98L177,98L172,98L167,98L162,99L157,99L154,99L147,100L144,100L142,101L136,102L133,103L131,104L128,105L122,105L119,106L116,107L113,107L110,105L104,105L101,105L99,105L93,108L89,108L86,107L83,107L81,104L81,102L80,99L79,96L76,95L73,94L71,95L67,93L67,93L65,94L61,95L57,94L59,98L58,100L58,103L59,106L59,109L58,111L58,114L58,117L57,120L57,122L56,125L56,128L56,131L56,135L55,138L55,141L55,145L54,148L56,152L54,153L53,156L52,159L54,157L54,160L51,160L50,162L49,168L48,170L47,174L49,177L50,179L49,182L49,185L50,188L51,191L53,193L192,193L192,188Z" data-oid="3525" /><path data-fips="49" data-hasc="US.UT" data-iso="USA" d="M346,316L346,313L346,310L346,307L346,303L346,300L346,297L346,294L346,290L346,287L346,284L346,281L346,278L346,274L346,271L346,268L346,265L346,262L346,258L346,255L346,252L346,249L346,246L346,243L346,239L346,236L346,233L346,230L346,227L346,224L346,221L346,218L307,218L307,215L307,211L307,208L307,205L307,202L307,199L307,196L307,193L303,193L300,193L296,193L282,193L278,193L274,193L260,193L256,193L253,193L249,193L249,197L249,201L249,204L249,208L249,212L249,216L249,220L249,224L249,228L249,232L249,235L249,239L249,243L249,247L249,251L249,255L249,259L249,263L249,267L249,271L249,275L249,279L249,283L249,287L249,291L249,295L249,299L249,303L249,307L249,311L249,316L249,320L252,320L255,320L258,320L261,320L264,320L267,320L270,320L273,320L276,320L279,320L282,320L285,320L288,320L291,320L294,320L297,320L300,320L303,320L306,320L309,320L312,320L315,320L318,320L322,320L325,320L328,320L331,320L334,320L337,320L340,320L343,320L346,320L346,316Z" data-oid="3526" /><path data-fips="56" data-hasc="US.WY" data-iso="USA" d="M442,215L442,211L442,208L442,205L442,202L442,199L442,196L442,193L442,190L442,187L442,184L442,181L442,178L442,175L442,172L442,169L442,166L442,163L442,160L442,157L442,154L442,151L442,148L442,145L442,142L442,139L442,136L442,133L442,130L442,127L442,124L442,122L377,122L373,122L307,122L307,125L307,128L307,130L307,133L307,137L307,141L307,144L307,148L307,152L307,155L307,159L307,163L307,167L307,170L307,174L307,178L307,182L307,185L307,189L307,193L307,196L307,199L307,202L307,205L307,208L307,211L307,215L307,218L442,218L442,215Z" data-oid="3527" /><path data-fips="05" data-hasc="US.AR" data-iso="USA" d="M638,427L642,427L645,427L649,427L652,427L656,427L659,427L662,427L666,427L669,427L673,427L676,427L680,427L683,427L687,427L690,427L692,422L690,419L691,416L690,413L691,411L690,408L692,406L692,402L693,400L696,399L694,396L696,394L698,392L698,390L701,389L701,387L701,382L703,380L704,377L707,376L707,373L708,372L711,370L711,367L711,363L712,361L714,358L714,356L714,353L717,352L719,349L718,346L718,346L715,346L712,346L710,346L706,344L708,342L710,340L711,338L711,336L710,333L710,333L624,333L624,337L625,340L625,344L625,348L626,351L626,355L627,359L627,362L627,368L627,374L627,380L627,386L627,392L627,398L626,404L626,410L627,411L630,411L634,411L635,414L635,417L635,420L635,424L635,427L638,427Z" data-oid="3528" /><path data-fips="19" data-hasc="US.IA" data-iso="USA" d="M686,232L686,230L687,227L690,226L691,224L692,221L695,217L694,214L692,212L692,209L694,207L699,206L702,205L705,204L706,201L707,199L709,196L710,192L708,189L705,187L704,184L702,183L700,181L700,178L697,177L693,176L692,173L691,171L690,167L690,164L692,161L689,160L689,157L689,157L682,157L676,157L670,157L664,157L657,157L651,157L645,157L638,157L632,157L626,157L620,157L613,157L607,157L601,157L595,157L588,157L586,157L587,160L586,162L588,164L588,167L587,170L586,173L585,175L587,178L588,180L589,181L589,184L591,187L592,190L593,192L594,195L596,197L595,200L596,203L597,205L598,208L599,211L600,214L599,217L600,220L600,223L600,225L602,228L602,228L605,228L609,228L614,228L618,228L622,228L626,228L631,228L635,228L640,228L644,228L649,228L653,228L657,228L660,228L664,228L669,228L673,227L677,227L681,229L683,231L685,233L686,232Z" data-oid="3529" /><path data-fips="20" data-hasc="US.KS" data-iso="USA" d="M624,316L624,313L624,310L624,306L624,303L624,300L624,296L624,293L624,290L624,286L624,283L624,280L624,277L624,273L624,270L624,267L624,264L621,263L619,261L618,258L616,256L614,254L616,251L617,249L618,247L616,245L613,245L611,244L610,243L480,243L480,247L480,252L480,257L480,262L480,266L481,271L481,276L481,281L481,286L481,290L481,295L481,300L481,305L481,310L481,315L481,320L624,320L624,316Z" data-oid="3530" /><path data-fips="29" data-hasc="US.MO" data-iso="USA" d="M712,346L715,346L718,346L718,346L719,344L720,341L720,338L722,336L721,333L722,333L724,333L724,333L725,329L727,331L729,329L729,326L730,323L730,320L729,320L726,320L724,318L723,315L722,313L723,310L723,307L722,304L721,301L719,300L718,298L715,295L712,294L710,292L708,290L706,288L705,285L707,283L708,280L709,277L709,274L709,271L706,270L703,269L701,271L699,268L699,265L699,262L697,260L691,254L686,248L685,245L684,242L684,236L685,233L683,231L681,229L677,227L673,227L669,228L664,228L660,228L657,228L653,228L649,228L644,228L640,228L635,228L631,228L626,228L622,228L618,228L614,228L609,228L605,228L602,228L602,228L601,228L603,231L604,233L605,235L607,238L608,240L610,243L611,244L613,245L616,245L618,247L617,249L616,251L614,254L616,256L618,258L619,261L621,263L624,264L624,267L624,270L624,273L624,277L624,280L624,283L624,286L624,290L624,293L624,296L624,300L624,303L624,306L624,310L624,313L624,316L624,320L624,323L624,326L624,330L624,333L710,333L710,333L711,336L711,338L710,340L708,342L706,344L710,346L712,346Z" data-oid="3531" /><path data-fips="31" data-hasc="US.NE" data-iso="USA" d="M608,240L607,238L605,235L604,233L603,231L601,228L602,228L600,225L600,223L600,220L599,217L600,214L599,211L598,208L597,205L596,203L595,200L596,197L594,195L593,192L592,190L591,187L589,184L589,181L588,180L584,179L583,176L581,175L577,174L574,173L572,172L568,172L564,172L561,172L559,174L556,173L552,171L547,169L544,169L511,169L508,169L505,169L472,169L469,169L465,169L442,169L442,172L442,175L442,178L442,181L442,184L442,187L442,190L442,193L442,196L442,199L442,202L442,205L442,208L442,211L442,215L442,218L445,218L447,218L458,218L463,218L472,218L477,218L480,218L480,221L480,224L480,227L480,230L480,233L480,236L480,239L480,243L610,243L608,240Z" data-oid="3532" /><path data-fips="40" data-hasc="US.OK" data-iso="USA" d="M626,404L627,398L627,392L627,386L627,380L627,374L627,368L627,362L627,359L626,355L626,351L625,348L625,344L625,340L624,337L624,333L624,330L624,326L624,323L624,320L462,320L462,323L462,326L462,330L462,333L467,333L471,333L475,333L480,333L501,333L506,333L510,333L513,333L520,334L520,337L520,340L520,343L520,346L520,349L520,352L520,355L520,358L520,361L520,364L520,367L520,371L520,374L520,377L520,380L520,383L522,385L526,389L529,389L531,389L534,389L535,391L536,394L540,394L542,395L545,396L548,396L550,398L552,396L557,396L557,399L560,400L559,403L562,403L566,402L569,403L571,404L574,402L574,405L576,406L577,404L578,401L580,403L583,404L585,402L587,405L589,406L591,408L593,406L595,404L598,403L601,404L603,402L606,402L608,403L611,402L614,402L616,404L618,406L621,407L623,409L626,410L626,404Z" data-oid="3533" /><path data-fips="46" data-hasc="US.SD" data-iso="USA" d="M587,178L585,175L586,173L587,170L588,167L588,164L586,162L587,160L586,157L588,157L588,152L588,146L588,141L588,136L588,131L588,126L588,121L588,116L587,113L584,112L582,110L580,108L582,106L585,104L586,102L586,100L573,100L568,100L564,100L537,100L532,100L528,100L501,100L497,100L492,100L447,100L442,100L442,105L442,110L442,115L442,120L442,122L442,124L442,127L442,130L442,133L442,136L442,139L442,142L442,145L442,148L442,151L442,154L442,157L442,160L442,163L442,166L442,169L465,169L469,169L472,169L505,169L508,169L511,169L544,169L547,169L552,171L556,173L559,174L561,172L564,172L568,172L572,172L574,173L577,174L581,175L583,176L584,179L588,180L587,178Z" data-oid="3534" /><path data-fips="22" data-hasc="US.LA" data-iso="USA" d="M711,525L711,525L710,526L713,527L711,525Z M679,523L677,522L676,521L675,521L673,523L676,525L678,526L679,523Z M736,514L735,510L734,510L735,510L735,514L735,517L736,514Z M729,507L729,507L728,507L728,509L729,507Z M726,539L727,537L729,539L731,537L730,534L729,531L727,530L724,529L722,529L721,526L719,525L717,522L720,521L723,522L722,518L723,516L725,517L724,515L724,512L722,510L721,513L719,515L716,513L716,510L719,509L719,507L717,509L714,509L711,510L708,510L705,508L705,505L707,503L709,500L712,501L713,504L716,505L719,506L722,506L721,505L720,501L719,498L717,495L716,492L716,489L717,486L718,483L713,483L693,483L690,483L685,483L681,483L682,481L682,478L681,475L683,474L684,471L684,468L685,466L686,462L687,459L689,458L690,456L692,454L693,451L694,448L694,445L692,442L692,440L690,437L692,435L691,433L692,430L690,428L690,427L687,427L683,427L680,427L676,427L673,427L669,427L666,427L662,427L659,427L656,427L652,427L649,427L645,427L642,427L638,427L635,427L635,430L635,433L635,437L635,440L635,443L635,446L635,450L635,453L635,456L637,458L638,460L639,463L639,466L640,468L641,471L642,473L643,476L644,478L645,482L644,484L644,487L643,490L642,492L641,495L641,498L640,500L641,503L641,506L641,509L640,512L640,514L638,517L640,519L643,518L648,518L651,517L654,519L658,521L660,523L665,524L669,524L672,522L671,520L673,518L674,516L677,516L678,518L681,519L683,522L684,524L686,525L689,524L688,526L690,529L690,532L688,530L688,532L691,534L694,534L697,535L699,536L700,534L702,531L705,530L705,533L708,532L708,535L709,537L711,535L711,532L712,529L711,527L709,525L711,525L716,526L717,528L716,531L720,532L723,533L724,535L726,537L725,539L724,542L726,539Z" data-oid="3535" /><path data-fips="48" data-hasc="US.TX" data-iso="USA" d="M574,619L574,620L574,624L574,619Z M574,617L573,614L571,605L571,600L570,592L571,592L570,592L570,595L570,598L570,601L571,604L571,607L572,609L573,614L574,618L574,619L574,617Z M571,587L573,583L574,579L577,574L577,573L576,574L575,576L573,579L572,581L571,584L571,588L571,591L571,587Z M579,569L581,565L580,565L579,566L578,569L578,572L579,569Z M583,564L585,562L588,560L589,558L586,560L584,562L581,563L581,566L583,564Z M589,558L589,558L589,558L589,558Z M589,557L589,557L589,558L589,557Z M593,555L593,555L591,557L593,555Z M618,533L620,530L620,530L619,532L617,534L615,536L618,533Z M573,629L575,628L573,626L572,624L572,621L571,618L570,615L570,613L569,610L569,606L567,603L567,600L567,598L568,595L569,593L569,590L566,590L564,588L564,585L566,589L568,587L568,590L570,587L571,583L572,580L573,577L570,575L569,573L571,573L574,574L577,569L577,566L574,567L576,564L578,565L579,562L579,565L581,563L582,560L583,557L584,560L587,558L589,556L587,553L585,551L585,548L586,550L589,550L590,548L591,550L593,549L594,551L597,551L593,554L596,553L599,551L601,549L598,549L602,548L605,547L607,545L609,543L612,540L613,536L615,534L618,531L620,529L617,527L617,525L616,522L615,519L618,521L619,519L622,518L622,521L622,525L624,525L622,527L621,529L623,527L631,522L635,520L638,519L637,516L640,512L641,509L641,506L641,503L640,500L641,498L641,495L642,492L643,490L644,487L644,484L645,482L644,478L643,476L642,473L641,471L640,468L639,466L639,463L638,460L637,458L635,456L635,453L635,450L635,446L635,443L635,440L635,437L635,433L635,430L635,427L635,424L635,420L635,417L635,414L634,411L630,411L627,411L626,410L623,409L621,407L618,406L616,404L614,402L611,402L608,403L606,402L603,402L601,404L598,403L595,404L593,406L591,408L589,406L587,405L585,402L583,404L580,403L578,401L577,404L576,406L574,405L574,402L571,404L569,403L566,402L562,403L559,403L560,400L557,399L557,396L552,396L550,398L548,396L545,396L542,395L540,394L536,394L535,391L534,389L531,389L529,389L526,389L522,385L520,383L520,380L520,377L520,374L520,371L520,367L520,364L520,361L520,358L520,355L520,352L520,349L520,346L520,343L520,340L520,337L520,334L513,333L510,333L506,333L501,333L480,333L475,333L471,333L467,333L462,333L461,338L461,342L461,345L461,349L461,353L461,356L461,360L461,364L461,367L461,371L461,375L461,379L461,382L461,386L461,390L461,394L461,398L461,401L461,405L461,409L461,413L461,417L461,420L461,424L461,428L461,432L461,436L461,440L461,443L461,447L461,451L461,455L457,455L452,455L448,455L444,455L439,455L435,455L431,455L427,455L422,455L418,455L414,455L409,455L405,455L401,455L397,455L392,455L392,458L393,460L395,462L396,462L398,464L399,467L400,470L403,471L405,473L407,475L409,478L411,479L412,482L414,484L416,487L419,489L421,490L423,492L425,494L426,497L426,499L428,502L429,504L430,508L429,510L430,514L431,516L432,519L433,521L435,523L438,525L440,528L442,530L444,532L447,533L449,535L452,536L455,539L457,540L460,539L461,537L463,535L464,532L465,529L465,526L466,523L467,521L469,519L471,517L474,516L477,516L479,517L483,517L485,517L488,518L492,517L493,519L495,522L496,524L498,526L500,528L502,530L504,532L505,535L507,537L508,540L509,543L510,546L511,549L512,552L513,555L514,558L515,561L517,563L519,565L520,568L521,570L522,573L524,575L525,578L528,579L529,581L530,584L530,587L530,590L531,592L531,595L532,598L533,601L534,603L535,606L536,609L536,611L537,614L539,616L542,616L544,618L546,620L549,621L551,622L553,624L556,625L558,625L561,625L565,626L566,628L569,630L571,632L573,629Z" data-oid="3536" /><path data-fips="09" data-hasc="US.CT" data-iso="USA" d="M1029,217L1031,216L1034,215L1036,214L1039,213L1041,211L1044,211L1047,211L1051,211L1053,210L1056,210L1059,210L1063,210L1063,207L1064,204L1064,201L1064,198L1064,196L1064,192L1061,192L1058,192L1056,192L1053,192L1049,192L1048,192L1045,193L1044,193L1043,192L1041,192L1036,192L1031,192L1031,194L1031,197L1031,201L1030,204L1030,208L1030,210L1030,213L1026,215L1028,217L1029,217Z" data-oid="3537" /><path data-fips="33" data-hasc="US.NH" data-iso="USA" d="M1073,176L1074,175L1075,175L1075,175L1076,174L1076,173L1076,173L1077,173L1078,173L1078,173L1079,172L1080,172L1081,172L1082,172L1083,170L1084,167L1083,166L1083,164L1081,161L1079,159L1080,156L1080,153L1079,150L1079,146L1079,142L1079,138L1079,134L1078,131L1078,127L1078,123L1078,119L1077,116L1077,114L1075,116L1073,115L1071,116L1070,119L1069,121L1069,121L1069,124L1067,126L1067,129L1067,133L1065,135L1063,137L1060,137L1059,140L1059,142L1058,146L1056,149L1055,151L1053,154L1052,156L1052,160L1051,163L1051,166L1050,170L1049,173L1051,175L1051,175L1053,175L1056,175L1059,176L1062,176L1063,176L1064,176L1067,176L1070,176L1071,176L1073,176L1073,176Z" data-oid="3538" /><path data-fips="44" data-hasc="US.RI" data-iso="USA" d="M1072,203L1072,203L1072,206L1072,203Z M1077,204L1076,203L1076,202L1076,202L1076,201L1075,201L1075,203L1077,205L1077,204Z M1074,204L1075,202L1075,201L1073,204L1073,206L1074,204Z M1073,198L1073,198L1073,199L1074,199L1073,198Z M1064,209L1070,208L1071,206L1071,202L1072,200L1071,197L1073,198L1072,198L1072,198L1072,197L1073,196L1073,196L1072,196L1072,196L1072,195L1072,194L1072,193L1071,193L1067,193L1065,193L1064,196L1064,198L1064,201L1064,204L1063,207L1063,210L1064,209Z" data-oid="3539" /><path data-fips="50" data-hasc="US.VT" data-iso="USA" d="M1049,173L1050,170L1051,166L1051,163L1052,160L1052,156L1053,154L1055,151L1056,149L1058,146L1059,142L1059,140L1060,137L1063,137L1065,135L1067,133L1067,129L1067,126L1069,124L1069,121L1069,121L1067,121L1063,121L1060,121L1056,121L1052,121L1048,121L1044,121L1040,121L1037,121L1034,121L1034,124L1034,126L1033,129L1034,132L1034,135L1034,138L1033,141L1033,145L1033,148L1033,151L1032,154L1035,154L1036,157L1036,160L1036,162L1035,165L1035,169L1035,172L1036,175L1037,175L1039,175L1041,175L1043,175L1045,175L1048,175L1050,175L1051,175L1049,173Z" data-oid="3540" /><path data-fips="01" data-hasc="US.AL" data-iso="USA" d="M750,504L749,503L748,504L745,505L750,504Z M758,504L760,502L762,500L762,498L762,498L762,495L763,492L760,489L759,486L760,483L763,483L766,483L769,483L775,483L778,483L781,483L788,483L791,483L794,483L797,483L800,483L803,483L806,483L809,483L809,481L807,478L807,475L807,472L808,469L808,466L807,464L807,459L808,456L808,453L809,450L811,449L810,446L810,443L810,443L809,440L807,437L807,435L806,432L805,429L805,425L804,423L804,419L803,415L803,410L802,406L802,403L801,398L800,393L800,388L799,383L798,380L798,376L797,373L794,373L791,373L788,373L785,373L782,373L776,373L773,373L770,373L767,373L764,373L761,373L758,373L755,373L752,373L749,373L748,373L748,373L750,376L749,379L749,382L749,387L748,389L748,392L748,395L747,399L747,402L747,406L746,409L746,413L746,417L745,421L745,425L745,428L744,432L744,436L744,439L743,442L743,445L743,450L742,455L742,458L742,461L742,463L742,466L742,469L742,471L743,474L743,476L743,479L743,482L743,484L743,487L743,490L743,492L743,495L743,498L744,500L746,500L749,502L749,500L750,496L750,493L751,490L752,493L753,496L753,499L755,501L756,503L753,505L758,504Z" data-oid="3541" /><path data-fips="12" data-hasc="US.FL" data-iso="USA" d="M876,668L876,666L876,666L874,669L876,668Z M878,664L878,664L880,668L878,664Z M897,654L899,652L899,650L901,647L900,646L900,647L899,650L897,652L896,655L895,658L897,654Z M902,642L902,642L902,642L901,645L902,642Z M863,611L863,611L864,614L863,611Z M862,607L862,607L863,609L862,607Z M865,610L864,607L864,607L864,607L864,609L865,612L865,610Z M854,585L854,585L854,586L856,588L854,585Z M855,582L855,582L855,582L855,582Z M855,582L855,582L855,582L855,582Z M899,579L898,576L897,573L897,573L897,574L898,577L899,580L900,587L902,592L899,579Z M893,560L893,555L894,552L893,551L892,553L891,555L892,559L893,562L893,560Z M811,521L813,520L808,523L811,521Z M813,520L814,519L813,520L813,520Z M815,518L815,518L814,519L815,518Z M779,500L778,500L777,500L776,500L772,501L769,501L766,502L779,500Z M888,653L890,652L893,652L895,650L898,651L898,648L899,645L899,642L900,639L901,636L902,633L903,631L903,634L904,623L904,618L904,615L905,610L905,606L905,603L904,599L903,596L902,593L899,591L902,592L899,583L898,578L892,560L891,556L890,553L890,549L890,546L891,549L891,551L894,551L894,554L894,558L894,563L894,566L895,569L897,571L895,568L894,566L894,563L894,560L895,556L895,553L892,548L891,545L888,537L886,533L885,529L884,525L882,521L881,517L881,513L880,510L879,506L879,502L878,498L878,496L877,491L874,491L872,490L869,489L867,489L866,492L867,495L866,497L866,501L863,500L863,497L861,495L858,495L855,495L851,494L847,494L843,494L839,493L835,493L830,493L826,492L822,492L819,492L816,491L813,491L811,490L810,486L809,483L809,483L806,483L803,483L800,483L797,483L794,483L791,483L788,483L781,483L778,483L775,483L769,483L766,483L763,483L760,483L759,486L760,489L763,492L762,495L762,498L762,498L763,500L761,503L765,501L767,499L768,496L769,499L770,496L772,498L769,500L767,501L770,500L775,500L778,499L781,497L783,498L786,499L783,500L780,500L783,501L786,502L789,503L792,505L795,506L793,504L795,502L796,504L797,507L799,508L800,510L797,509L799,512L802,514L803,517L802,520L802,520L802,520L802,520L804,520L809,519L812,519L814,517L817,515L819,514L822,512L822,509L825,509L828,508L831,511L834,513L836,515L837,518L839,520L840,522L841,525L844,528L845,531L846,534L849,535L852,535L853,538L853,541L855,544L855,547L854,551L854,554L854,558L853,561L852,564L852,567L851,571L851,574L853,578L853,575L855,577L855,575L856,572L853,571L855,569L857,571L858,574L859,571L859,574L858,577L856,579L855,582L855,582L854,585L856,586L856,589L857,592L858,595L860,599L861,602L864,603L863,600L862,598L864,600L867,599L865,601L866,603L865,607L866,609L868,611L870,608L869,610L867,613L870,615L870,617L870,620L871,623L872,627L874,629L877,630L879,632L880,635L881,638L882,640L883,643L883,646L886,647L887,650L883,648L883,651L885,653L888,653Z M801,517L802,520L802,520L801,517Z" data-oid="3542" /><path data-fips="13" data-hasc="US.GA" data-iso="USA" d="M878,488L878,484L878,484L878,485L877,488L877,491L878,488Z M866,497L867,495L866,492L867,489L869,489L872,490L874,491L877,491L877,491L876,488L877,485L878,482L877,480L879,479L881,476L880,474L877,473L880,474L881,471L882,467L884,465L882,462L885,461L885,458L887,456L888,454L888,454L886,452L884,451L883,448L883,445L882,441L880,439L878,437L878,434L878,432L877,427L875,425L872,424L870,421L869,419L868,415L867,413L864,411L863,408L862,406L859,404L857,402L856,399L854,397L853,395L852,392L851,388L848,387L846,385L843,383L841,381L842,377L843,375L845,373L845,373L843,373L840,373L837,373L834,373L831,373L828,373L825,373L822,373L820,373L812,373L807,373L802,373L797,373L798,376L798,380L799,383L800,388L800,393L801,398L802,403L802,406L803,410L803,415L804,419L804,423L805,425L805,429L806,432L807,435L807,437L809,440L810,443L810,443L810,446L811,449L809,450L808,453L808,456L807,459L807,464L808,466L808,469L807,472L807,475L807,478L809,481L809,483L809,483L810,486L811,490L813,491L816,491L819,492L822,492L826,492L830,493L835,493L839,493L843,494L847,494L851,494L855,495L858,495L861,495L863,497L863,500L866,501L866,497Z M810,443L810,443L810,443L810,443Z" data-oid="3543" /><path data-fips="28" data-hasc="US.MS" data-iso="USA" d="M722,506L724,504L727,502L730,501L732,499L735,499L738,501L741,501L744,500L743,498L743,495L743,492L743,490L743,487L743,484L743,482L743,479L743,476L743,474L742,471L742,469L742,466L742,463L742,461L742,458L742,455L743,450L743,445L743,442L744,439L744,436L744,432L745,428L745,425L745,421L746,417L746,413L746,409L747,406L747,402L747,399L748,395L748,392L748,389L749,387L749,382L749,379L750,376L748,373L744,373L739,373L734,373L729,373L724,373L719,373L714,373L709,373L707,373L707,376L704,377L703,380L701,382L701,387L701,389L698,390L698,392L696,394L694,396L696,399L693,400L692,402L692,406L690,408L691,411L690,413L691,416L690,419L692,422L690,427L690,428L692,430L691,433L692,435L690,437L692,440L692,442L694,445L694,448L693,451L692,454L690,456L689,458L687,459L686,462L685,466L684,468L684,471L683,474L681,475L682,478L682,481L681,483L685,483L690,483L693,483L713,483L718,483L717,486L716,489L716,492L717,495L719,498L720,501L721,505L722,506L722,506Z" data-oid="3544" /><path data-fips="45" data-hasc="US.SC" data-iso="USA" d="M920,419L920,419L920,419L920,419Z M920,419L919,418L921,416L920,419Z M888,454L889,451L890,448L891,451L892,448L890,446L890,443L890,441L890,443L893,444L895,447L896,444L896,442L893,440L897,441L900,441L901,438L903,439L905,437L908,436L906,434L908,431L908,434L911,432L912,430L913,427L916,427L918,425L920,423L921,421L920,419L921,421L922,416L924,413L927,408L929,406L933,403L932,402L929,399L927,396L924,393L922,390L919,387L917,384L914,381L912,378L909,378L906,378L903,378L899,378L896,378L893,378L890,377L890,374L888,371L885,371L885,369L881,369L878,368L875,368L871,368L868,368L865,368L863,367L860,367L859,367L859,368L856,369L854,370L851,371L845,373L845,373L843,375L842,377L841,381L843,383L846,385L848,387L851,388L852,392L853,395L854,397L856,399L857,402L859,404L862,406L863,408L864,411L867,413L868,415L869,419L870,421L872,424L875,425L877,427L878,432L878,434L878,437L880,439L882,441L883,445L883,448L884,451L886,452L888,454L888,454L888,454Z" data-oid="3545" /><path data-fips="17" data-hasc="US.IL" data-iso="USA" d="M729,319L730,316L731,314L734,314L739,317L743,317L743,314L741,312L743,309L745,308L750,307L749,304L749,301L750,299L749,297L751,294L752,292L752,289L752,286L754,285L756,283L758,281L759,278L760,276L760,272L760,269L759,267L758,264L759,260L760,258L760,254L760,250L760,247L760,243L760,239L760,236L760,232L760,229L760,225L760,221L760,218L760,214L760,211L760,207L760,203L761,199L766,199L767,195L768,191L768,188L770,181L755,181L752,181L748,181L745,181L741,181L738,181L735,181L731,181L728,181L724,181L721,181L718,181L714,181L711,181L707,181L704,181L700,181L700,181L702,183L704,184L705,187L708,189L710,192L709,196L707,199L706,201L705,204L702,205L699,206L694,207L692,209L692,212L694,214L695,217L692,221L691,224L690,226L687,227L686,230L686,232L685,233L684,236L684,242L685,245L686,248L691,254L697,260L699,262L699,265L699,268L701,271L703,269L706,270L709,271L709,274L709,277L708,280L707,283L705,285L706,288L708,290L710,292L712,294L715,295L718,298L719,300L721,301L722,304L723,307L723,310L722,313L723,315L724,318L726,320L729,320L730,320L729,319Z" data-oid="3546" /><path data-fips="18" data-hasc="US.IN" data-iso="USA" d="M753,298L753,295L756,297L758,298L761,296L764,296L767,297L769,298L772,295L774,294L776,296L778,296L780,293L781,290L783,289L784,291L786,293L789,294L791,292L792,288L794,286L796,286L797,282L800,281L801,278L800,275L803,274L806,276L809,274L813,273L813,271L812,268L813,265L813,261L813,257L813,253L813,249L813,245L813,241L813,237L813,233L813,229L813,224L813,220L813,216L813,212L813,208L813,204L813,200L812,199L809,199L806,199L803,199L800,199L797,199L794,199L791,199L788,199L785,199L782,199L779,199L776,199L773,199L770,199L761,199L760,203L760,207L760,211L760,214L760,218L760,221L760,225L760,229L760,232L760,236L760,239L760,243L760,247L760,250L760,254L760,258L759,260L758,264L759,267L760,269L760,272L760,276L759,278L758,281L756,283L754,285L752,286L752,289L752,292L751,294L749,297L750,299L753,298Z" data-oid="3547" /><path data-fips="21" data-hasc="US.KY" data-iso="USA" d="M751,331L751,328L754,329L757,329L761,329L765,329L769,329L773,329L776,329L779,329L782,329L786,329L789,329L792,329L797,330L801,330L807,330L812,330L816,330L821,330L825,330L828,330L832,331L835,330L836,329L840,328L843,327L846,324L849,323L851,320L853,319L854,316L857,314L860,313L862,311L865,308L868,306L866,305L864,304L861,302L860,300L859,297L858,294L856,292L855,289L856,287L855,284L855,281L853,279L850,278L850,274L847,275L845,277L842,278L840,276L837,275L834,277L832,275L829,273L827,274L824,272L823,270L822,267L819,265L817,266L814,264L814,264L813,265L812,268L813,271L813,273L809,274L806,276L803,274L800,275L801,278L800,281L797,282L796,286L794,286L792,288L791,292L789,294L786,293L784,291L783,289L781,290L780,293L778,296L776,296L774,294L772,295L769,298L767,297L764,296L761,296L758,298L756,297L753,295L753,298L750,299L749,301L749,304L750,307L745,308L743,309L741,312L743,314L743,317L739,317L734,314L731,314L730,316L729,319L730,320L730,323L729,326L729,329L727,331L725,329L724,333L724,333L727,333L730,333L734,333L737,333L740,333L744,333L747,333L751,331Z" data-oid="3548" /><path data-fips="37" data-hasc="US.NC" data-iso="USA" d="M954,387L957,386L957,386L955,386L951,390L954,387Z M967,381L969,381L968,380L965,381L961,382L967,381Z M976,377L978,375L979,374L977,376L975,378L973,383L976,377Z M981,371L981,371L980,373L981,371Z M984,369L987,368L987,368L985,369L982,371L984,369Z M991,367L992,364L993,359L993,356L992,352L992,352L992,354L993,357L993,360L992,363L991,366L989,367L991,367Z M988,348L988,348L988,348L990,350L988,348Z M991,349L988,343L987,339L986,336L985,332L985,332L985,332L985,333L986,335L986,338L987,341L988,344L989,346L990,349L992,352L991,349Z M984,332L983,332L984,332L984,332Z M982,332L983,332L983,332L982,332Z M935,403L938,402L941,402L944,403L945,400L946,397L946,400L947,396L948,393L950,390L953,387L956,386L955,383L956,381L958,384L959,382L962,381L965,380L969,378L970,381L973,379L975,377L975,374L973,373L970,374L967,374L964,373L963,370L966,373L969,373L971,371L970,368L972,367L973,364L969,363L967,362L964,361L962,359L965,360L968,362L971,361L971,358L974,358L972,361L975,360L975,363L977,363L980,363L982,361L983,359L986,358L988,356L988,352L988,350L985,348L983,349L982,355L982,352L982,349L981,346L977,348L975,347L971,348L969,345L968,343L969,340L969,343L971,346L974,345L975,342L978,342L981,341L980,339L982,341L984,340L986,342L984,337L983,334L982,332L979,332L976,331L973,331L969,332L965,332L960,332L956,332L951,332L946,332L940,332L937,332L934,332L922,332L918,332L913,332L908,332L904,332L901,332L898,332L897,331L894,331L891,331L888,331L886,331L883,331L880,331L877,331L874,330L874,330L872,334L871,337L868,338L865,343L863,342L860,343L858,345L856,347L854,345L852,347L849,348L849,350L846,352L844,353L841,355L839,357L836,357L833,358L831,359L829,361L828,364L826,366L823,366L822,369L822,373L825,373L828,373L831,373L834,373L837,373L840,373L843,373L845,373L851,371L854,370L856,369L859,368L859,367L860,367L863,367L865,368L868,368L871,368L875,368L878,368L881,369L885,369L885,371L888,371L890,374L890,377L893,378L896,378L899,378L903,378L906,378L909,378L912,378L914,381L917,384L919,387L922,390L924,393L927,396L929,399L932,402L933,403L935,403Z" data-oid="3549" /><path data-fips="39" data-hasc="US.OH" data-iso="USA" d="M861,282L861,279L863,277L863,274L864,272L865,269L868,268L870,271L871,268L871,266L872,263L873,261L875,260L877,258L881,258L883,257L885,254L887,253L889,250L889,247L890,245L891,242L892,239L894,236L893,233L894,230L893,227L895,226L895,224L895,221L895,216L895,211L895,206L895,200L895,195L895,190L895,185L895,185L891,186L886,187L881,188L878,190L875,191L873,193L870,194L867,196L864,198L862,199L858,201L853,201L850,199L848,198L845,194L839,199L836,200L832,200L829,200L826,200L823,200L819,200L816,200L813,200L813,204L813,208L813,212L813,216L813,220L813,224L813,229L813,233L813,237L813,241L813,245L813,249L813,253L813,257L813,261L813,265L814,264L814,264L817,266L819,265L822,267L823,270L824,272L827,274L829,273L832,275L834,277L837,275L840,276L842,278L845,277L847,275L850,274L850,278L853,279L855,281L856,283L857,283L861,282Z" data-oid="3550" /><path data-fips="47" data-hasc="US.TN" data-iso="USA" d="M807,373L812,373L820,373L822,373L822,369L823,366L826,366L828,364L829,361L831,359L833,358L836,357L839,357L841,355L844,353L846,352L849,350L849,348L852,347L854,345L856,347L858,345L860,343L863,342L865,343L868,338L871,337L872,334L874,330L870,330L867,330L863,330L859,330L855,330L851,330L847,330L843,330L839,330L835,330L832,331L828,330L825,330L821,330L816,330L812,330L807,330L801,330L797,330L792,329L789,329L786,329L782,329L779,329L776,329L773,329L769,329L765,329L761,329L757,329L754,329L751,328L751,331L747,333L744,333L740,333L737,333L734,333L730,333L727,333L724,333L722,333L721,333L722,336L720,338L720,341L719,344L718,346L719,349L717,352L714,353L714,356L714,358L712,361L711,363L711,367L711,370L708,372L707,373L709,373L714,373L719,373L724,373L729,373L734,373L739,373L744,373L748,373L748,373L749,373L752,373L755,373L758,373L761,373L764,373L767,373L770,373L773,373L776,373L782,373L785,373L788,373L791,373L794,373L797,373L802,373L807,373Z" data-oid="3551" /><path data-fips="51" data-hasc="US.VA" data-iso="USA" d="M984,331L984,332L984,332L984,331Z M985,313L986,310L987,307L990,306L990,304L991,301L994,296L995,293L995,293L992,293L989,295L989,295L989,298L987,300L986,302L984,304L984,307L983,310L982,313L984,315L985,313Z M997,293L997,293L997,293L996,296L997,293Z M908,332L913,332L918,332L922,332L934,332L937,332L940,332L946,332L951,332L956,332L960,332L965,332L969,332L973,331L976,331L979,332L982,332L982,332L983,332L983,331L984,328L985,332L985,332L985,332L985,330L983,325L982,322L979,322L976,323L973,322L972,320L970,318L970,315L967,314L964,314L962,312L958,311L961,311L964,311L966,312L968,314L971,314L972,317L976,320L977,317L975,315L973,313L971,312L969,309L968,306L970,309L972,311L974,311L975,308L978,311L977,308L977,305L974,304L972,302L970,300L968,298L967,296L965,294L964,291L962,289L964,291L966,293L968,296L970,298L972,300L974,302L976,303L977,300L978,298L977,295L975,294L973,292L971,290L968,289L965,289L964,287L963,283L960,285L958,284L957,281L959,278L960,276L963,274L962,270L961,269L959,268L957,266L954,265L955,262L953,260L949,260L948,262L947,264L945,262L942,260L940,259L938,257L938,256L938,257L937,259L936,262L935,265L933,268L931,270L929,271L927,273L925,272L923,275L922,278L921,280L919,283L916,282L914,279L912,280L911,283L909,286L908,288L907,291L905,294L902,297L901,300L901,304L900,306L897,308L895,308L892,309L889,309L888,311L886,312L881,313L879,311L877,313L874,314L872,312L869,311L868,308L868,306L865,308L862,311L860,313L857,314L854,316L853,319L851,320L849,323L846,324L843,327L840,328L836,329L835,330L839,330L843,330L847,330L851,330L855,330L859,330L863,330L867,330L870,330L874,330L874,330L877,331L880,331L883,331L886,331L888,331L891,331L894,331L897,331L898,332L901,332L904,332L908,332Z" data-oid="3552" /><path data-fips="55" data-hasc="US.WI" data-iso="USA" d="M769,178L769,174L768,169L768,166L768,161L768,157L768,153L768,151L769,148L769,145L771,141L771,138L773,134L775,130L776,125L778,123L780,121L782,119L785,116L782,115L780,114L777,112L775,111L768,112L766,115L762,117L760,119L758,118L757,116L757,113L754,113L755,110L755,107L754,105L752,104L749,102L748,100L746,99L743,99L740,98L737,98L735,97L731,96L729,95L726,94L723,94L720,93L717,92L714,92L710,91L709,88L707,86L705,84L707,81L709,78L710,75L712,72L714,69L710,69L707,69L703,69L700,69L696,71L692,73L688,75L684,78L681,79L678,81L675,82L672,81L670,83L669,85L669,88L669,91L669,94L668,97L666,98L663,99L661,100L659,103L657,105L657,108L660,109L661,111L661,114L659,116L660,119L659,122L659,125L660,128L662,130L666,131L668,133L671,134L675,137L677,141L681,143L684,144L686,146L688,148L689,151L689,154L689,157L689,157L689,160L692,161L690,164L690,167L691,171L692,173L693,176L697,177L700,178L700,181L700,181L704,181L707,181L711,181L714,181L718,181L721,181L724,181L728,181L731,181L735,181L738,181L741,181L745,181L748,181L752,181L755,181L770,181L769,178Z" data-oid="3553" /><path data-fips="54" data-hasc="US.WV" data-iso="USA" d="M877,313L879,311L881,313L886,312L888,311L889,309L892,309L895,308L897,308L900,306L901,304L901,300L902,297L905,294L907,291L908,288L909,286L911,283L912,280L914,279L916,282L919,283L921,280L922,278L923,275L925,272L927,273L929,271L931,270L933,268L935,265L936,262L937,259L938,257L938,256L938,257L940,259L942,260L945,262L947,264L948,262L949,260L949,257L947,255L947,252L944,252L941,250L939,252L936,253L934,254L931,254L929,252L927,255L925,256L923,256L920,259L918,260L915,263L916,250L911,250L906,250L901,250L895,250L895,246L895,243L895,239L895,235L895,231L895,226L895,226L893,227L894,230L893,233L894,236L892,239L891,242L890,245L889,247L889,250L887,253L885,254L883,257L881,258L877,258L875,260L873,261L872,263L871,266L871,268L870,271L868,268L865,269L864,272L863,274L863,277L861,279L861,282L857,283L856,283L855,284L856,287L855,289L856,292L858,294L859,297L860,300L861,302L864,304L866,305L868,306L868,308L869,311L872,312L874,314L877,313Z" data-oid="3554" /><path data-fips="10" data-hasc="US.DE" data-iso="USA" d="M1000,282L1001,282L1001,282L1001,281L1001,278L998,278L1001,276L998,272L996,269L995,267L994,264L994,260L992,257L991,255L990,252L992,250L994,247L992,247L991,247L989,247L987,250L987,251L987,255L987,259L987,263L988,266L988,270L988,274L988,278L988,282L991,282L994,282L997,282L1000,282Z" data-oid="3555" /><path data-fips="11" data-hasc="US.DC" data-iso="USA" d="M965,271L963,268L961,269L962,270L963,273L965,271Z" data-oid="3556" /><path data-fips="24" data-hasc="US.MD" data-iso="USA" d="M997,293L997,292L999,289L1000,287L1000,286L1000,286L998,290L997,293L997,293Z M1001,282L1001,282L1001,282L1001,282L1000,285L1001,282Z M992,293L995,293L995,291L997,289L999,287L1000,285L1000,282L997,282L994,282L991,282L988,282L988,278L988,274L988,270L988,266L987,263L987,259L987,255L987,251L987,250L985,250L976,250L971,250L962,250L958,250L949,250L944,250L936,250L931,250L920,250L918,250L916,250L915,263L918,260L920,259L923,256L925,256L927,255L929,252L931,254L934,254L936,253L939,252L941,250L944,252L947,252L947,255L949,257L949,260L953,260L955,262L954,265L957,266L959,268L963,268L965,271L963,273L963,275L961,277L959,279L958,282L961,283L963,282L964,285L967,285L968,287L972,288L974,289L976,291L976,288L975,286L973,285L971,283L970,280L970,277L970,281L972,283L975,285L974,282L973,279L973,275L972,272L974,269L972,266L974,266L973,264L972,261L975,261L975,258L977,260L979,258L981,256L981,254L984,253L983,256L986,253L984,256L982,258L985,258L982,258L979,261L978,264L980,266L979,268L976,268L976,271L978,269L981,271L979,274L977,273L978,275L981,277L982,279L980,278L977,278L978,280L977,283L980,285L982,287L983,284L983,287L986,284L984,287L985,290L987,291L987,294L989,295L992,293Z" data-oid="3557" /><path data-fips="34" data-hasc="US.NJ" data-iso="USA" d="M1015,256L1014,256L1014,258L1015,256Z M1018,252L1018,252L1016,255L1018,252Z M1019,249L1019,249L1018,250L1018,252L1019,249Z M1006,268L1007,265L1009,263L1009,260L1013,259L1014,257L1015,254L1017,252L1018,250L1018,247L1019,244L1020,241L1020,244L1020,248L1020,243L1021,240L1022,235L1021,232L1019,231L1016,230L1017,228L1019,226L1021,223L1022,221L1023,218L1021,217L1017,214L1013,212L1010,210L1008,209L1006,210L1005,212L1003,215L1001,217L1000,219L1000,222L998,224L998,227L1000,229L1001,232L1003,234L1005,237L1007,239L1004,240L1001,242L1000,244L999,246L996,247L993,248L992,251L992,254L993,257L995,259L998,261L1000,263L1002,263L1004,265L1003,270L1006,268Z" data-oid="3558" /><path data-fips="36" data-hasc="US.NY" data-iso="USA" d="M1020,226L1020,226L1017,227L1017,230L1020,226Z M1033,227L1036,226L1036,226L1033,227L1030,228L1033,227Z M1038,226L1042,224L1045,223L1045,223L1044,224L1041,225L1039,226L1035,226L1038,226Z M1028,227L1031,226L1034,225L1037,225L1040,224L1043,223L1046,223L1048,222L1051,221L1054,220L1057,219L1059,218L1062,216L1060,216L1057,217L1055,216L1053,218L1050,220L1048,219L1050,218L1052,216L1055,213L1054,213L1053,214L1050,216L1048,218L1045,218L1042,218L1038,218L1035,219L1032,220L1030,219L1028,222L1025,222L1022,223L1021,225L1023,227L1025,227L1023,228L1028,227Z M1024,222L1026,220L1028,217L1026,215L1030,213L1030,210L1030,208L1030,204L1031,201L1031,197L1031,194L1031,192L1031,191L1031,190L1032,188L1033,184L1034,181L1035,177L1035,175L1036,175L1035,172L1035,169L1035,165L1036,162L1036,160L1036,157L1035,154L1032,154L1033,151L1033,148L1033,145L1033,141L1034,138L1034,135L1034,132L1033,129L1034,126L1034,124L1034,121L1033,121L1029,121L1025,121L1021,121L1017,122L1013,122L1010,122L1007,122L1004,121L1002,122L999,123L995,126L993,128L991,129L988,131L987,133L985,136L981,137L979,140L976,141L974,143L972,146L971,148L969,151L966,154L962,154L957,154L953,154L949,154L944,154L940,154L935,154L930,154L926,156L921,158L924,163L924,166L925,169L926,171L924,174L921,175L918,176L916,177L913,179L910,180L910,181L910,184L910,187L910,190L911,193L913,193L916,193L919,193L921,193L924,193L927,193L929,193L932,193L934,193L937,193L940,193L942,193L945,193L947,193L950,193L953,193L955,193L958,193L961,193L963,193L966,193L968,193L971,193L974,193L976,193L979,193L982,193L984,193L987,193L989,193L992,193L996,194L997,196L1000,197L1001,200L1001,203L1003,206L1006,207L1008,209L1010,210L1013,212L1017,214L1021,217L1023,218L1023,215L1022,212L1024,215L1023,218L1022,221L1022,224L1024,222Z" data-oid="3559" /><path data-fips="42" data-hasc="US.PA" data-iso="USA" d="M989,247L991,247L992,247L994,247L994,247L997,246L999,244L1001,242L1004,240L1007,239L1005,237L1003,234L1001,232L1000,229L998,227L998,224L1000,222L1000,219L1001,217L1003,215L1005,212L1006,210L1008,209L1006,207L1003,206L1001,203L1001,200L1000,197L997,196L996,194L992,193L989,193L987,193L984,193L982,193L979,193L976,193L974,193L971,193L968,193L966,193L963,193L961,193L958,193L955,193L953,193L950,193L947,193L945,193L942,193L940,193L937,193L934,193L932,193L929,193L927,193L924,193L921,193L919,193L916,193L913,193L911,193L910,190L910,187L910,184L910,181L910,180L910,180L907,181L904,183L898,185L895,185L895,185L895,190L895,195L895,200L895,206L895,211L895,216L895,221L895,224L895,226L895,226L895,231L895,235L895,239L895,243L895,246L895,250L901,250L906,250L911,250L916,250L918,250L920,250L931,250L936,250L944,250L949,250L958,250L962,250L971,250L976,250L985,250L987,250L989,247Z" data-oid="3560" /><path data-fips="23" data-hasc="US.ME" data-iso="USA" d="M1125,138L1124,138L1124,138L1124,141L1125,138Z M1134,137L1132,135L1132,134L1130,135L1131,137L1134,137Z M1086,165L1087,162L1089,160L1091,158L1092,155L1094,155L1094,152L1095,150L1098,148L1099,150L1101,149L1102,151L1102,149L1102,145L1104,148L1105,146L1107,148L1107,145L1108,148L1109,145L1111,143L1112,146L1114,145L1116,143L1117,140L1118,137L1118,135L1121,134L1123,132L1123,135L1121,137L1124,138L1127,138L1128,136L1128,133L1131,134L1133,132L1135,134L1136,137L1138,135L1140,133L1141,130L1142,133L1145,130L1147,129L1150,129L1153,129L1155,127L1156,125L1154,123L1155,121L1153,118L1151,117L1149,117L1147,114L1147,111L1148,108L1145,107L1143,106L1141,105L1141,102L1141,99L1141,96L1141,93L1141,90L1141,87L1141,84L1141,81L1141,78L1141,75L1139,73L1136,70L1133,68L1130,68L1127,69L1125,70L1122,71L1119,72L1116,69L1116,66L1113,66L1112,66L1111,68L1109,70L1107,72L1105,74L1104,76L1102,78L1100,80L1098,82L1098,85L1097,89L1094,92L1094,95L1092,98L1093,100L1091,102L1090,105L1087,106L1084,110L1085,113L1082,112L1080,114L1077,114L1077,116L1078,119L1078,123L1078,127L1078,131L1079,134L1079,138L1079,142L1079,146L1079,150L1080,153L1080,156L1079,159L1081,161L1083,164L1083,166L1084,167L1086,165Z" data-oid="3561" /><path data-fips="26" data-hasc="US.MI" data-iso="USA" d="M816,200L819,200L823,200L826,200L829,200L832,200L836,200L839,199L845,194L845,192L845,188L846,186L849,184L852,183L854,180L856,179L858,176L858,172L859,169L860,166L861,163L862,160L863,157L864,154L863,149L862,144L861,139L860,134L859,129L859,124L858,120L856,113L852,111L847,109L844,107L840,105L836,103L838,100L838,97L835,96L831,96L828,95L826,92L826,89L826,86L822,87L820,87L817,88L813,84L813,82L811,78L809,77L807,76L804,75L802,73L799,72L797,71L794,70L792,69L790,68L786,66L782,64L778,62L774,60L770,58L766,57L763,55L759,54L755,52L752,50L748,49L745,47L744,47L743,47L739,48L734,50L730,52L725,54L722,54L721,57L719,60L717,63L716,66L714,69L714,69L712,72L710,75L709,78L707,81L705,84L707,86L709,88L710,91L714,92L717,92L720,93L723,94L726,94L729,95L731,96L735,97L737,98L740,98L743,99L746,99L748,100L749,102L752,104L754,105L755,107L755,110L754,113L757,113L757,116L758,118L760,119L762,117L766,115L768,112L775,111L777,112L780,114L782,115L785,116L782,119L780,121L778,123L776,125L775,130L773,134L771,138L771,141L769,145L769,148L768,151L768,153L768,157L768,161L768,166L768,169L769,174L769,178L770,181L768,188L768,191L767,195L766,199L770,199L773,199L776,199L779,199L782,199L785,199L788,199L791,199L794,199L797,199L800,199L803,199L806,199L809,199L812,199L813,200L816,200Z" data-oid="3562" /></g></svg>