<?xml version="1.0" standalone="no"?>
<!DOCTYPE svg PUBLIC "-//W3C//DTD SVG 1.1//EN" "http://www.w3.org/Graphics/SVG/1.1/DTD/svg11.dtd">

<svg style="stroke-width:0.7pt; stroke-linejoin: round; stroke:#444; fill:white;" xmlns="http://www.w3.org/2000/svg" font-family="Helvetica, Arial, FreeSans, Sans, sans, sans-serif" height="836px" viewBox="0 0 1200 836" width="1200px" version="1.1" xmlns:xlink="http://www.w3.org/1999/xlink" enable-background="new 0 0 1200 836"><defs><style type="text/css">path { fill-rule: evenodd; }
#context path { fill: #eee; stroke: #bbb; } </style></defs><metadata><views><view padding="60.0" h="836.114828507" w="1200"><proj up="0" lon0="-80.0" dist="1.5" id="satellite" lat0="29.0" /><bbox y="310.65" h="839.71" w="1206.6" x="116.12" /></view></views></metadata><g id="USA"><path data-fips="25" data-hasc="US.MA" data-iso="USA" d="M1072,256L1070,254L1070,254L1069,256L1066,257L1069,258L1072,256Z M1056,255L1060,255L1057,252L1057,252L1055,253L1054,256L1056,255Z M1049,250L1050,247L1052,247L1054,245L1055,247L1056,250L1059,249L1061,248L1064,248L1066,246L1071,244L1070,241L1068,238L1066,235L1063,236L1066,237L1067,239L1069,241L1067,244L1063,244L1060,244L1058,243L1057,240L1054,239L1054,236L1052,233L1050,231L1047,230L1045,230L1044,227L1045,225L1046,223L1050,222L1051,219L1048,219L1047,216L1045,214L1044,214L1044,214L1043,214L1041,215L1041,215L1040,215L1039,215L1039,216L1039,216L1038,216L1038,217L1037,218L1037,218L1036,219L1036,219L1034,219L1032,219L1029,219L1027,219L1024,219L1023,218L1020,218L1016,218L1015,218L1012,218L1009,218L1007,218L1003,218L1001,218L999,218L997,218L995,218L992,218L992,218L992,221L991,225L990,229L990,231L989,235L989,236L990,237L993,237L995,237L998,237L1001,237L1004,237L1005,238L1006,238L1006,237L1009,237L1011,237L1012,237L1015,237L1019,237L1022,237L1028,237L1030,237L1032,237L1036,237L1037,237L1037,238L1038,240L1038,241L1038,241L1039,241L1039,241L1039,242L1039,243L1039,243L1040,244L1040,244L1041,244L1042,245L1044,243L1043,246L1044,247L1044,248L1044,248L1045,248L1045,249L1045,249L1045,251L1046,251L1049,250Z" data-oid="3513" /><path data-fips="32" data-hasc="US.MN" data-iso="USA" d="M592,196L592,193L593,191L593,188L592,185L590,183L586,182L583,179L582,175L579,172L576,171L574,169L570,167L568,165L569,162L570,159L571,156L572,153L574,151L575,148L575,145L572,145L573,142L575,140L577,137L580,136L583,135L586,134L587,131L588,128L589,125L590,123L591,120L593,118L596,117L598,117L601,116L603,115L606,114L608,113L613,111L617,108L622,106L626,104L629,104L633,104L636,104L639,105L640,104L642,101L645,97L647,94L650,91L652,89L649,88L646,88L643,88L640,86L632,86L628,86L627,84L624,85L619,87L616,88L613,87L611,85L608,84L606,81L603,81L601,84L599,81L598,79L596,77L592,75L587,75L583,77L580,77L577,78L577,75L574,75L570,74L566,74L564,72L564,69L565,65L565,62L563,60L561,60L560,61L558,65L557,68L553,68L550,68L546,68L542,68L539,68L535,68L532,68L528,68L523,68L523,70L523,73L522,75L520,78L520,81L519,83L517,86L517,89L517,92L517,94L517,97L516,100L515,103L513,107L513,110L512,113L511,115L510,118L510,121L509,124L510,127L509,130L508,133L507,136L507,136L505,139L503,141L500,142L500,145L500,148L503,149L503,152L501,157L499,162L498,168L496,173L494,178L492,184L490,189L488,195L495,195L501,195L507,195L513,195L519,196L526,196L532,196L539,196L545,196L552,196L558,196L565,196L571,197L578,197L585,197L591,197L592,196Z" data-oid="3514" /><path data-fips="30" data-hasc="US.MT" data-iso="USA" d="M262,164L265,165L267,163L270,163L273,164L276,163L277,161L280,160L279,162L280,165L280,164L281,162L283,159L284,156L286,154L289,154L293,154L296,154L300,154L304,155L307,155L309,155L312,155L315,155L317,155L320,155L323,155L325,155L328,155L331,155L334,155L337,155L340,155L343,155L346,155L349,156L352,156L355,156L358,156L361,156L364,156L367,156L370,156L373,156L376,156L377,154L378,152L379,149L381,147L382,145L383,142L384,140L386,137L387,135L389,131L391,127L393,123L395,120L396,116L398,112L400,109L402,105L404,102L406,98L408,95L410,91L412,88L414,84L416,81L418,78L420,74L422,70L420,70L417,70L414,71L411,71L408,71L405,71L403,71L400,71L397,71L394,71L391,71L389,71L386,71L383,71L381,71L378,72L375,72L373,72L368,72L362,72L357,72L352,72L349,72L345,73L341,73L336,73L331,73L327,73L323,73L318,74L314,74L310,74L306,74L302,74L298,74L294,75L291,75L289,77L287,79L286,81L284,83L283,86L281,88L279,90L277,94L276,96L275,100L273,102L272,104L273,107L272,110L272,113L271,116L271,118L273,121L271,123L269,125L267,127L266,129L264,131L263,134L261,136L260,138L258,140L260,142L262,141L265,140L264,143L263,145L262,148L261,150L261,153L259,155L261,158L260,160L259,163L260,165L262,164Z" data-oid="3515" /><path data-fips="38" data-hasc="US.ND" data-iso="USA" d="M508,133L509,130L510,127L509,124L510,121L510,118L511,115L512,113L513,110L513,107L515,103L516,100L517,97L517,94L517,92L517,89L517,86L519,83L520,81L520,78L522,75L523,73L523,70L523,68L521,68L517,68L514,68L510,69L507,69L503,69L500,69L497,69L493,69L490,69L486,69L483,69L480,69L476,69L473,69L470,69L467,69L463,69L460,69L457,70L454,70L451,70L447,70L444,70L441,70L438,70L435,70L432,70L429,70L426,70L422,70L420,74L418,78L416,81L414,84L412,88L410,91L408,95L406,98L404,102L402,105L400,109L398,112L396,116L395,120L393,123L391,127L389,131L387,135L391,135L394,135L397,135L401,135L404,135L408,135L411,135L415,135L418,135L422,135L426,135L429,135L433,135L437,135L440,135L444,135L448,135L452,135L456,135L459,135L463,135L467,135L471,135L475,135L479,135L483,135L487,135L491,136L495,136L499,136L503,136L507,136L508,133Z" data-oid="3516" /><path data-fips="16" data-hasc="US.ID" data-iso="USA" d="M251,218L253,214L255,210L257,207L259,203L261,200L262,196L264,193L266,189L268,186L270,182L272,179L274,175L276,172L278,168L280,165L279,162L280,160L277,161L276,163L273,164L270,163L267,163L265,165L262,164L260,165L259,163L260,160L261,158L259,155L261,153L261,150L262,148L263,145L264,143L265,140L262,141L260,142L258,140L260,138L261,136L263,134L264,131L266,129L267,127L269,125L271,123L273,121L271,118L271,116L272,113L272,110L273,107L272,104L273,102L275,100L276,96L277,94L279,90L281,88L283,86L284,83L286,81L287,79L289,77L291,75L291,75L287,75L283,75L281,78L278,81L276,84L274,87L272,90L269,93L267,96L265,99L263,102L261,105L259,108L256,111L254,114L252,117L250,120L247,124L246,127L244,130L243,132L243,132L242,135L242,137L241,140L239,142L237,144L235,147L233,149L230,152L229,154L227,156L225,158L222,161L220,163L219,165L219,168L218,170L216,173L215,175L213,177L211,180L208,184L206,189L203,193L201,198L198,202L196,206L193,211L191,215L194,216L197,216L200,216L204,217L207,217L210,218L214,218L218,218L221,219L225,219L229,219L233,220L237,220L241,221L245,221L250,221L251,218Z" data-oid="3518" /><path data-fips="53" data-hasc="US.WA" data-iso="USA" d="M233,93L235,90L237,88L236,88L233,92L232,95L233,93Z M202,138L205,137L207,139L210,138L213,137L215,136L218,135L222,133L225,133L228,132L231,132L234,132L237,132L240,132L243,132L244,130L246,127L247,124L250,120L252,117L254,114L256,111L259,108L261,105L263,102L265,99L267,96L269,93L272,90L274,87L276,84L278,81L281,78L283,75L282,75L278,75L275,76L272,76L269,76L266,76L263,76L260,76L257,77L254,77L251,77L247,77L244,78L242,80L241,83L239,85L237,87L236,90L234,91L233,94L235,91L234,94L232,96L230,98L228,100L227,102L225,104L223,107L221,108L218,110L216,112L218,110L220,108L222,106L220,108L222,107L224,104L226,102L227,100L229,98L226,100L224,102L221,105L222,103L224,101L227,99L229,97L230,95L232,92L229,93L226,92L225,89L223,92L221,94L219,97L218,99L217,102L215,104L213,107L212,109L210,111L210,114L207,116L206,118L204,121L202,123L204,120L202,123L201,126L203,128L203,130L202,132L200,135L199,137L200,139L202,138Z" data-oid="3519" /><path data-fips="04" data-hasc="US.AZ" data-iso="USA" d="M176,498L177,493L178,488L179,484L181,479L182,474L183,469L184,464L186,460L187,455L188,450L190,445L191,441L192,436L194,431L195,426L197,422L198,417L200,412L201,408L203,403L204,398L206,394L207,389L209,384L210,380L212,375L213,370L215,366L217,361L218,357L220,352L222,347L218,347L213,346L210,345L206,344L202,344L198,343L194,342L191,342L187,341L183,340L180,339L176,339L173,338L170,337L167,336L163,336L163,337L162,340L160,343L159,346L158,350L156,353L155,356L154,357L152,359L152,356L149,355L147,358L146,360L146,363L145,365L144,369L143,373L142,375L141,378L140,380L139,383L139,383L138,387L138,390L138,393L137,396L137,399L138,402L136,404L134,406L132,408L131,410L130,413L129,416L128,418L126,421L124,424L124,426L122,430L123,433L123,435L121,439L119,440L118,442L116,445L117,445L120,450L123,455L126,460L130,464L133,469L137,474L141,479L146,486L148,489L151,490L153,491L156,492L159,493L162,494L164,495L167,496L170,496L173,497L176,498L176,498Z" data-oid="3520" /><path data-fips="06" data-hasc="US.CA" data-iso="USA" d="M88,424L88,421L88,418L88,421L88,424L88,424Z M86,390L85,390L85,392L86,390Z M121,439L123,435L123,433L122,430L124,426L124,424L126,421L128,418L129,416L130,413L131,410L132,408L134,406L136,404L138,402L137,399L137,396L138,393L138,390L138,387L139,383L139,383L138,379L138,375L137,371L137,367L136,363L136,360L136,356L136,353L135,350L135,346L135,343L135,339L135,336L134,332L134,328L134,325L134,321L134,317L134,314L134,310L134,306L134,302L134,298L134,293L134,289L134,285L134,281L135,276L137,272L139,267L141,263L143,259L145,255L147,252L149,248L151,244L153,240L155,236L158,232L160,228L162,224L164,220L166,216L168,212L165,212L162,211L158,211L155,210L152,210L150,209L147,209L144,208L144,209L142,213L141,215L139,218L138,220L137,223L134,226L133,229L130,233L128,235L127,238L125,240L124,244L123,247L122,249L121,253L120,256L118,260L117,262L115,265L114,268L112,271L112,274L111,277L110,281L109,285L109,287L108,290L107,294L108,296L109,294L111,292L112,294L115,293L115,295L112,294L109,294L108,297L107,300L107,302L105,305L106,302L106,299L105,303L104,306L102,309L101,311L101,315L102,318L101,321L100,324L98,326L97,328L96,331L95,334L95,337L95,341L94,344L93,346L93,350L93,352L93,356L92,358L92,361L91,364L90,367L89,370L88,372L87,375L87,378L89,379L91,382L93,384L93,388L93,391L94,393L97,395L97,398L95,401L98,403L98,408L99,412L99,415L99,419L98,424L97,427L96,430L96,433L97,436L99,436L102,437L105,437L107,438L110,438L113,439L116,439L119,440L121,439Z" data-oid="3521" /><path data-fips="08" data-hasc="US.CO" data-iso="USA" d="M331,360L332,357L333,355L334,352L334,349L335,347L336,344L337,342L338,339L338,336L339,334L340,331L341,329L342,326L342,324L343,321L344,319L345,316L346,313L346,311L347,308L348,306L349,303L350,301L351,298L352,296L352,293L353,291L354,288L355,286L356,283L357,281L358,278L359,274L360,271L361,268L363,265L364,261L365,258L365,255L361,255L357,254L353,254L349,254L345,254L342,253L338,253L334,253L329,252L324,252L320,252L315,251L310,251L306,251L301,250L297,250L292,250L288,249L283,249L279,249L275,248L271,248L267,247L263,247L261,250L260,253L259,256L257,259L256,262L254,265L253,268L252,272L250,275L249,278L248,281L247,284L245,287L244,290L243,293L241,296L240,300L239,303L238,306L236,309L235,312L234,315L233,318L231,322L230,325L229,328L228,331L226,334L225,338L224,341L223,344L222,347L227,348L229,349L232,349L234,349L237,350L240,350L242,351L245,351L248,352L251,352L253,352L256,353L259,353L262,354L265,354L268,354L271,355L273,355L276,356L279,356L282,356L285,357L288,357L292,358L295,358L298,358L301,359L304,359L307,360L310,360L314,360L318,361L322,361L327,362L330,362L331,360Z" data-oid="3522" /><path data-fips="32" data-hasc="US.NV" data-iso="USA" d="M140,380L141,378L142,375L143,373L144,369L145,365L146,363L146,360L147,358L149,355L152,356L152,359L154,357L155,356L156,353L158,350L159,346L160,343L162,340L163,337L163,336L165,332L166,328L168,324L170,321L171,317L173,313L174,309L176,306L178,302L179,298L181,294L182,291L184,287L186,283L187,280L189,276L191,272L193,268L194,265L196,261L198,258L200,254L201,250L203,247L205,243L207,240L209,236L210,232L212,229L214,225L216,222L218,218L214,218L210,218L207,217L204,217L200,216L197,216L194,216L191,215L189,215L186,215L183,214L180,214L178,214L175,213L172,213L168,212L166,216L164,220L162,224L160,228L158,232L155,236L153,240L151,244L149,248L147,252L145,255L143,259L141,263L139,267L137,272L135,276L134,281L134,285L134,289L134,293L134,298L134,302L134,306L134,310L134,314L134,317L134,321L134,325L134,328L134,332L135,336L135,339L135,343L135,346L135,350L136,353L136,356L136,360L136,363L137,367L137,371L138,375L138,379L139,383L140,380Z" data-oid="3523" /><path data-fips="35" data-hasc="US.NM" data-iso="USA" d="M276,498L277,494L278,490L279,486L280,482L281,478L282,474L283,470L284,466L285,462L286,458L287,454L288,450L289,446L290,442L291,438L292,434L293,430L294,426L295,422L296,418L297,414L298,410L299,407L300,403L302,399L303,395L304,391L305,387L306,383L307,379L310,374L311,371L312,367L313,364L314,360L310,360L307,360L304,359L301,359L298,358L295,358L292,358L288,357L285,357L282,356L279,356L276,356L273,355L271,355L268,354L265,354L262,354L259,353L256,353L253,352L251,352L248,352L245,351L242,351L240,350L237,350L234,349L232,349L229,349L227,348L222,347L220,352L218,357L217,361L215,366L213,370L212,375L210,380L209,384L207,389L206,394L204,398L203,403L201,408L200,412L198,417L197,422L195,426L194,431L192,436L191,441L190,445L188,450L187,455L186,460L184,464L183,469L182,474L181,479L179,484L178,488L177,493L176,498L176,498L176,498L179,499L182,500L185,501L188,499L189,497L189,494L190,491L192,489L194,490L197,491L200,492L202,492L205,493L208,494L211,494L213,495L216,496L215,494L215,494L215,492L216,489L219,490L223,491L226,491L230,492L233,493L237,494L241,495L244,495L248,496L252,497L256,498L259,499L263,499L267,500L271,501L275,502L276,498Z" data-oid="3524" /><path data-fips="41" data-hasc="US.OR" data-iso="USA" d="M193,211L196,206L198,202L201,198L203,193L206,189L208,184L211,180L213,177L215,175L216,173L218,170L219,168L219,165L220,163L222,161L225,158L227,156L229,154L230,152L233,149L235,147L237,144L239,142L241,140L242,137L242,135L243,132L243,132L240,132L237,132L234,132L231,132L228,132L225,133L222,133L218,135L215,136L213,137L210,138L207,139L205,137L202,138L200,139L199,137L200,135L202,132L203,130L203,128L202,127L199,127L197,130L195,132L194,135L192,137L191,139L189,141L187,144L186,146L184,148L182,150L181,153L179,155L178,157L175,161L173,163L172,165L169,169L168,171L165,175L163,178L161,181L163,179L161,181L159,183L156,187L154,189L153,192L152,194L150,197L149,199L147,201L146,204L144,208L147,209L150,209L152,210L155,210L158,211L162,211L165,212L168,212L172,213L175,213L178,214L180,214L183,214L186,215L189,215L191,215L193,211Z" data-oid="3525" /><path data-fips="49" data-hasc="US.UT" data-iso="USA" d="M223,344L224,341L225,338L226,334L228,331L229,328L230,325L231,322L233,318L234,315L235,312L236,309L238,306L239,303L240,300L241,296L243,293L244,290L245,287L247,284L248,281L249,278L250,275L252,272L253,268L254,265L256,262L257,259L259,256L260,253L261,250L263,247L259,247L256,246L253,246L250,246L247,246L244,245L241,245L238,245L240,242L241,239L242,236L244,233L245,230L247,227L248,224L250,221L245,221L241,221L237,220L233,220L229,219L225,219L221,219L218,218L216,222L214,225L212,229L210,232L209,236L207,240L205,243L203,247L201,250L200,254L198,258L196,261L194,265L193,268L191,272L189,276L187,280L186,283L184,287L182,291L181,294L179,298L178,302L176,306L174,309L173,313L171,317L170,321L168,324L166,328L165,332L163,336L167,336L170,337L173,338L176,339L180,339L183,340L187,341L191,342L194,342L198,343L202,344L206,344L210,345L213,346L218,347L222,347L223,344Z" data-oid="3526" /><path data-fips="56" data-hasc="US.WY" data-iso="USA" d="M335,250L336,246L337,243L339,240L340,237L341,234L343,231L344,228L345,225L346,221L348,218L349,215L350,212L352,209L353,206L354,203L356,200L357,197L358,194L360,191L361,188L362,185L364,182L365,179L366,176L368,173L369,171L371,168L372,165L373,162L375,159L376,156L373,156L370,156L367,156L364,156L361,156L358,156L355,156L352,156L349,156L346,155L343,155L340,155L337,155L334,155L331,155L328,155L325,155L323,155L320,155L317,155L315,155L312,155L309,155L307,155L304,155L300,154L296,154L293,154L289,154L286,154L284,156L283,159L281,162L280,164L280,165L278,168L276,172L274,175L272,179L270,182L268,186L266,189L264,193L262,196L261,200L259,203L257,207L255,210L253,214L251,218L250,221L248,224L247,227L245,230L244,233L242,236L241,239L240,242L238,245L241,245L244,245L247,246L250,246L253,246L256,246L259,247L263,247L267,247L271,248L275,248L279,249L283,249L288,249L292,250L297,250L301,250L306,251L310,251L315,251L320,252L324,252L329,252L334,253L335,250Z" data-oid="3527" /><path data-fips="05" data-hasc="US.AR" data-iso="USA" d="M541,499L542,497L541,494L542,492L542,489L540,486L542,484L541,482L543,480L546,478L546,475L546,472L549,472L551,471L550,468L552,466L555,464L556,461L559,461L560,458L561,455L561,452L564,450L564,447L569,446L569,442L570,442L572,440L575,439L575,435L575,432L577,429L578,427L581,426L582,423L581,420L585,418L586,415L589,415L588,412L587,412L584,412L580,412L577,412L572,411L574,408L576,406L579,405L580,403L581,400L580,398L577,396L571,396L564,395L558,395L551,395L545,394L538,394L532,394L525,393L519,393L513,393L506,392L500,392L494,391L488,391L482,391L476,390L475,394L475,398L475,403L474,407L474,411L474,415L473,420L473,424L472,430L470,437L469,444L468,450L466,457L465,463L464,470L463,477L463,478L466,480L468,479L471,480L472,483L471,486L471,490L470,494L470,497L474,498L478,498L482,499L487,499L491,499L495,500L500,500L504,500L508,501L513,501L517,501L521,502L526,502L530,502L535,503L540,503L541,499Z" data-oid="3528" /><path data-fips="19" data-hasc="US.IA" data-iso="USA" d="M570,281L571,278L572,275L574,274L577,273L579,271L580,268L584,263L583,260L581,257L582,255L585,252L591,252L594,250L596,250L599,248L601,246L602,243L605,242L606,239L607,236L605,233L602,230L602,227L600,226L598,223L598,221L596,219L591,217L591,214L590,211L591,208L591,205L594,202L591,200L591,197L585,197L578,197L571,197L565,196L558,196L552,196L545,196L539,196L532,196L526,196L519,196L513,195L507,195L501,195L495,195L488,195L486,195L486,198L484,200L486,203L485,206L483,208L482,210L480,212L479,215L480,217L480,220L481,222L480,225L480,228L481,231L481,233L481,236L482,239L481,242L480,244L481,247L482,250L482,252L480,255L481,258L480,261L480,264L479,266L478,269L479,272L479,272L483,272L487,272L491,272L496,273L501,273L505,273L510,274L515,274L520,274L524,274L529,274L534,274L538,274L542,274L546,274L550,274L555,274L559,274L564,275L566,277L567,279L569,281L570,281Z" data-oid="3529" /><path data-fips="20" data-hasc="US.KS" data-iso="USA" d="M479,372L480,368L481,364L482,360L483,357L483,353L484,349L485,345L486,342L487,338L488,334L488,331L489,327L490,323L491,320L492,316L490,312L489,310L488,308L487,305L486,302L486,300L488,298L491,296L491,294L490,291L487,293L485,291L484,288L479,288L475,288L471,288L467,288L462,287L458,287L454,287L450,287L446,287L442,286L438,286L433,286L429,286L425,285L421,285L417,285L413,285L410,285L406,284L402,284L398,284L394,284L390,283L387,283L383,283L379,283L375,282L372,282L368,282L364,282L361,281L357,281L356,283L355,286L354,288L353,291L352,293L352,296L351,298L350,301L349,303L348,306L347,308L346,311L346,313L345,316L344,319L343,321L342,324L342,326L341,329L340,331L339,334L338,336L338,339L337,342L336,344L335,347L334,349L334,352L333,355L332,357L331,360L330,362L335,363L339,363L343,364L348,364L352,365L356,365L361,365L365,366L369,366L374,367L378,367L383,368L387,368L392,368L396,369L401,369L406,370L410,370L415,370L420,371L424,371L429,372L434,372L439,372L444,373L449,373L454,374L458,374L463,374L469,375L474,375L479,375L479,372Z" data-oid="3530" /><path data-fips="29" data-hasc="US.MO" data-iso="USA" d="M589,410L591,408L590,404L593,404L592,401L594,400L594,397L595,397L597,397L598,395L600,393L602,395L604,392L605,389L606,386L606,383L605,382L603,379L602,381L600,378L599,375L598,372L600,370L599,366L599,364L599,361L596,359L596,356L593,355L590,352L588,351L586,349L584,346L582,344L582,341L584,338L586,335L588,331L589,328L590,326L588,324L584,322L581,324L579,323L578,320L578,317L578,314L577,312L572,305L567,300L567,297L566,294L566,292L567,284L569,281L567,279L566,277L564,275L559,274L555,274L550,274L546,274L542,274L538,274L534,274L529,274L524,274L520,274L515,274L510,274L505,273L501,273L496,273L491,272L487,272L483,272L479,272L479,272L479,272L479,275L480,278L481,280L482,283L482,286L484,288L485,291L487,293L490,291L491,294L491,296L488,298L486,300L486,302L487,305L488,308L489,310L490,312L492,316L491,320L490,323L489,327L488,331L488,334L487,338L486,342L485,345L484,349L483,353L483,357L482,360L481,364L480,368L479,372L479,375L478,379L477,383L476,386L476,390L482,391L488,391L494,391L500,392L506,392L513,393L519,393L525,393L532,394L538,394L545,394L551,395L558,395L564,395L571,396L577,396L580,398L581,400L580,403L579,405L576,406L574,408L572,411L577,412L580,412L584,412L587,412L588,412L589,410Z" data-oid="3531" /><path data-fips="31" data-hasc="US.NE" data-iso="USA" d="M482,286L482,283L481,280L480,278L479,275L479,272L479,272L478,269L479,266L480,264L480,261L481,258L480,255L482,252L482,250L481,247L480,244L481,242L482,239L481,236L481,233L481,231L480,228L480,225L481,222L480,220L477,218L477,216L475,214L472,213L469,212L467,210L463,211L459,210L456,210L455,212L452,211L449,209L445,206L442,206L439,206L436,206L433,206L430,206L427,206L424,206L421,206L418,206L415,206L412,205L409,205L407,205L404,205L401,205L398,205L395,205L392,205L390,205L387,204L384,204L381,204L379,204L376,204L373,204L371,204L368,204L365,204L363,204L360,203L357,203L354,203L353,206L352,209L350,212L349,215L348,218L346,221L345,225L344,228L343,231L341,234L340,237L339,240L337,243L336,246L335,250L334,253L338,253L342,253L345,254L349,254L353,254L357,254L361,255L365,255L365,258L364,261L363,265L361,268L360,271L359,274L358,278L357,281L361,281L364,282L368,282L372,282L375,282L379,283L383,283L387,283L390,283L394,284L398,284L402,284L406,284L410,285L413,285L417,285L421,285L425,285L429,286L433,286L438,286L442,286L446,287L450,287L454,287L458,287L462,287L467,288L471,288L475,288L479,288L484,288L482,286Z" data-oid="3532" /><path data-fips="40" data-hasc="US.OK" data-iso="USA" d="M464,470L465,463L466,457L468,450L469,444L470,437L472,430L473,424L473,420L474,415L474,411L474,407L475,403L475,398L475,394L476,390L476,386L477,383L478,379L479,375L474,375L469,375L463,374L458,374L454,374L449,373L444,373L439,372L434,372L429,372L424,371L420,371L415,370L410,370L406,370L401,369L396,369L392,368L387,368L383,368L378,367L374,367L369,366L365,366L361,365L356,365L352,365L348,364L343,364L339,363L335,363L330,362L327,362L322,361L318,361L314,360L313,364L312,367L311,371L310,374L310,374L314,375L317,375L321,376L326,376L331,377L336,377L341,378L345,378L350,379L354,379L358,380L360,380L364,382L363,385L362,388L361,392L360,395L359,398L359,401L358,405L357,408L356,411L355,415L355,418L354,421L353,424L352,428L351,431L351,434L352,437L355,442L358,442L360,443L362,441L364,443L364,446L366,449L368,449L370,451L373,452L376,453L378,455L381,453L386,454L385,457L388,459L388,462L390,462L395,459L397,462L398,464L401,463L403,463L403,466L404,468L405,466L407,464L410,462L411,465L413,466L416,466L418,468L420,469L423,469L426,468L428,467L431,466L434,467L437,466L440,466L442,468L445,467L447,465L449,467L451,469L453,471L456,473L458,475L460,476L463,477L464,470Z" data-oid="3533" /><path data-fips="46" data-hasc="US.SD" data-iso="USA" d="M480,217L479,215L480,212L482,210L483,208L485,206L486,203L484,200L486,198L486,195L488,195L490,189L492,184L494,178L496,173L498,168L499,162L501,157L503,152L503,149L500,148L500,145L500,142L503,141L505,139L507,136L507,136L503,136L499,136L495,136L491,136L487,135L483,135L479,135L475,135L471,135L467,135L463,135L459,135L456,135L452,135L448,135L444,135L440,135L437,135L433,135L429,135L426,135L422,135L418,135L415,135L411,135L408,135L404,135L401,135L397,135L394,135L391,135L387,135L386,137L384,140L383,142L382,145L381,147L379,149L378,152L377,154L376,156L375,159L373,162L372,165L371,168L369,171L368,173L366,176L365,179L364,182L362,185L361,188L360,191L358,194L357,197L356,200L354,203L357,203L360,203L363,204L365,204L368,204L371,204L373,204L376,204L379,204L381,204L384,204L387,204L390,205L392,205L395,205L398,205L401,205L404,205L407,205L409,205L412,205L415,206L418,206L421,206L424,206L427,206L430,206L433,206L436,206L439,206L442,206L445,206L449,209L452,211L455,212L456,210L459,210L463,211L467,210L469,212L472,213L475,214L477,216L477,218L480,220L480,217Z" data-oid="3534" /><path data-fips="22" data-hasc="US.LA" data-iso="USA" d="M539,631L539,630L537,631L539,631Z M555,618L555,618L557,619L555,618Z M511,614L512,611L510,610L507,609L505,611L508,613L511,614L511,614Z M590,610L591,607L590,604L590,607L590,611L590,610Z M580,601L580,599L578,602L580,601Z M575,634L577,633L579,635L582,633L582,630L580,628L579,626L577,625L575,623L572,622L570,620L568,619L566,617L566,614L568,615L566,612L569,614L572,615L569,613L571,611L573,608L575,609L574,606L574,604L575,601L573,602L570,603L570,606L567,606L567,604L564,604L564,601L567,600L569,598L566,597L564,598L561,599L558,601L555,601L552,599L549,598L549,594L552,591L554,589L558,590L560,592L562,594L564,595L567,597L570,597L572,597L571,596L570,593L569,590L569,587L566,585L566,582L566,579L567,576L568,573L569,570L566,570L563,570L560,570L556,569L552,569L548,569L544,568L539,568L535,568L531,567L528,567L523,566L520,566L521,563L522,560L521,557L524,557L525,552L525,550L528,547L529,543L531,540L533,539L536,536L538,534L540,531L542,527L542,525L541,522L539,520L539,517L538,514L541,513L539,511L540,508L541,506L540,503L535,503L530,502L526,502L521,502L517,501L513,501L508,501L504,500L500,500L495,500L491,499L487,499L482,499L478,498L474,498L470,497L469,501L469,505L468,508L467,512L467,516L466,519L466,523L465,527L466,530L467,532L468,535L469,537L469,540L469,543L470,545L471,548L471,551L472,553L473,555L473,558L472,561L472,564L471,567L470,569L468,572L466,576L466,578L465,581L466,584L465,587L465,590L462,593L463,593L463,595L459,599L461,601L463,600L466,600L470,600L474,600L476,601L480,603L483,604L485,606L488,608L494,610L499,611L503,609L503,606L501,604L504,604L508,603L510,605L512,606L516,608L517,611L518,613L521,614L524,616L525,613L525,616L526,619L528,621L527,623L527,621L524,619L522,622L525,624L527,624L530,625L532,627L535,627L537,628L540,628L541,625L544,624L546,622L548,624L550,626L550,629L551,631L555,628L555,625L556,622L556,620L554,619L553,615L556,617L559,619L562,621L564,623L562,624L567,624L568,627L571,628L573,633L576,632L574,635L573,637L575,634Z" data-oid="3535" /><path data-fips="48" data-hasc="US.TX" data-iso="USA" d="M369,701L368,699L369,701L369,701Z M368,696L368,697L368,699L368,696Z M368,694L368,691L367,681L367,675L367,667L367,670L366,673L366,678L366,682L367,685L367,687L368,690L368,695L368,696L368,694Z M369,662L371,658L373,654L376,649L374,651L372,653L371,656L369,659L368,662L368,666L369,662Z M378,647L380,645L381,641L380,645L378,648L378,647Z M386,640L389,638L391,637L394,636L393,636L390,636L387,638L384,639L383,642L386,640Z M433,613L435,610L435,609L434,612L431,614L428,616L433,613Z M364,706L366,705L369,706L369,702L366,704L366,701L366,698L366,696L365,693L364,691L364,688L364,685L363,681L364,677L362,674L364,672L364,670L366,667L364,665L362,664L361,661L361,659L363,663L365,661L365,664L367,662L369,658L371,655L372,652L369,649L369,646L372,647L374,648L377,644L378,641L376,643L375,640L377,639L379,638L380,640L382,637L381,640L384,638L385,636L384,633L386,630L387,633L388,635L392,634L394,631L391,631L392,629L390,626L391,623L392,626L393,628L396,627L396,624L397,626L400,626L401,629L404,629L400,632L403,630L407,629L410,627L406,627L411,626L414,625L419,623L422,621L424,620L426,618L426,615L429,614L433,611L435,609L432,607L433,605L431,603L431,600L432,598L435,599L437,597L439,598L439,601L438,604L444,604L441,605L438,607L437,609L440,607L448,604L451,603L455,602L459,601L458,597L462,593L465,590L465,587L466,584L465,581L466,578L466,576L468,572L470,569L471,567L472,564L472,561L473,558L473,555L472,553L471,551L471,548L470,545L469,543L469,540L469,537L468,535L467,532L466,530L465,527L466,523L466,519L467,516L467,512L468,508L469,505L469,501L470,497L470,494L471,490L471,486L472,483L471,480L468,479L466,480L463,478L463,477L460,476L458,475L456,473L453,471L451,469L449,467L447,465L445,467L442,468L440,466L437,466L434,467L431,466L428,467L426,468L423,469L420,469L418,468L416,466L413,466L411,465L410,462L407,464L405,466L404,468L403,466L403,463L401,463L398,464L397,462L395,459L390,462L388,462L388,459L385,457L386,454L381,453L378,455L376,453L373,452L370,451L368,449L366,449L364,446L364,443L362,441L360,443L358,442L355,442L352,437L351,434L351,431L352,428L353,424L354,421L355,418L355,415L356,411L357,408L358,405L359,401L359,398L360,395L361,392L362,388L363,385L364,382L360,380L358,380L354,379L350,379L345,378L341,378L336,377L331,377L326,376L321,376L317,375L314,375L310,374L310,374L307,379L306,383L305,387L304,391L303,395L302,399L300,403L299,407L298,410L297,414L296,418L295,422L294,426L293,430L292,434L291,438L290,442L289,446L288,450L287,454L286,458L285,462L284,466L283,470L282,474L281,478L280,482L279,486L278,490L277,494L276,498L275,502L271,501L267,500L263,499L259,499L256,498L252,497L248,496L244,495L241,495L237,494L233,493L230,492L226,491L223,491L219,490L216,489L215,492L215,494L215,494L216,496L217,496L218,499L218,502L219,505L220,507L222,509L223,512L224,515L226,519L226,521L228,524L230,528L231,530L232,530L233,532L234,535L234,538L234,540L235,543L236,546L235,549L235,552L235,555L235,558L235,561L236,564L237,566L239,569L240,572L242,575L244,577L246,579L248,581L250,583L252,586L254,588L257,589L258,586L260,584L262,582L263,579L264,579L265,576L266,573L268,571L270,569L272,568L275,568L278,567L280,569L283,570L286,571L289,572L292,572L294,575L295,577L296,579L297,582L299,584L299,587L301,589L303,591L303,593L305,596L305,600L305,603L306,605L306,608L307,611L308,614L308,617L309,620L309,623L311,625L313,629L314,631L315,634L316,637L317,640L318,642L320,644L322,646L322,649L322,652L321,654L322,656L322,659L322,661L322,665L323,667L325,670L325,673L326,677L327,680L327,684L330,685L332,686L333,686L334,688L336,691L339,692L342,694L343,696L346,698L350,699L352,699L355,701L358,702L359,704L361,707L364,706Z" data-oid="3536" /><path data-fips="09" data-hasc="US.CT" data-iso="USA" d="M992,265L994,264L997,263L999,261L1002,261L1004,260L1006,259L1009,258L1011,258L1015,258L1018,258L1017,256L1019,258L1022,257L1024,256L1027,256L1030,257L1030,254L1030,250L1029,247L1029,244L1028,241L1028,238L1028,237L1025,237L1022,237L1019,237L1015,237L1011,237L1009,237L1006,238L1005,238L1004,237L1001,237L998,237L995,237L993,237L990,237L990,239L990,243L990,247L991,251L991,255L991,258L992,260L990,262L988,264L990,266L992,265Z" data-oid="3537" /><path data-fips="33" data-hasc="US.NH" data-iso="USA" d="M1036,219L1036,219L1037,218L1037,218L1038,217L1038,216L1039,216L1039,216L1039,215L1040,215L1041,215L1041,215L1043,214L1044,214L1045,214L1046,212L1046,208L1044,207L1044,204L1042,203L1040,201L1039,198L1039,195L1038,192L1038,190L1037,187L1036,184L1035,181L1035,179L1034,176L1033,173L1033,170L1032,168L1031,165L1031,162L1030,160L1029,157L1029,154L1028,152L1026,153L1023,152L1021,154L1021,156L1021,159L1020,160L1020,163L1020,167L1021,169L1021,171L1019,173L1017,176L1014,176L1013,179L1013,182L1013,185L1011,189L1010,192L1009,194L1008,197L1009,202L1009,205L1009,208L1009,211L1008,213L1008,216L1010,218L1010,218L1013,218L1016,218L1020,218L1023,218L1024,219L1026,219L1029,219L1032,219L1034,219L1036,219Z" data-oid="3538" /><path data-fips="44" data-hasc="US.RI" data-iso="USA" d="M1040,252L1039,249L1039,252L1040,252Z M1045,249L1045,249L1045,248L1044,248L1044,248L1044,247L1043,246L1043,249L1045,251L1045,249Z M1043,251L1043,250L1042,247L1041,250L1040,253L1043,251Z M1032,256L1038,254L1039,252L1038,249L1039,246L1038,243L1041,244L1040,244L1040,244L1039,243L1039,243L1039,242L1039,241L1039,241L1038,241L1038,241L1038,240L1037,238L1037,237L1036,237L1032,237L1030,237L1028,238L1028,241L1029,244L1029,247L1030,250L1030,254L1030,257L1032,256Z" data-oid="3539" /><path data-fips="50" data-hasc="US.VT" data-iso="USA" d="M1008,216L1008,213L1009,211L1009,208L1009,205L1009,202L1008,197L1009,194L1010,192L1011,189L1013,185L1013,182L1013,179L1014,176L1017,176L1019,173L1021,171L1021,169L1020,167L1020,163L1020,160L1021,159L1019,159L1014,159L1010,159L1006,159L1002,159L998,159L994,159L989,159L985,159L982,159L982,160L982,163L983,166L983,168L984,171L985,173L985,176L985,178L984,181L984,183L985,186L986,189L986,192L986,196L988,195L990,197L990,200L990,203L991,206L991,209L991,212L992,215L992,218L995,218L997,218L999,218L1001,218L1003,218L1007,218L1009,218L1010,218L1008,216Z" data-oid="3540" /><path data-fips="01" data-hasc="US.AL" data-iso="USA" d="M611,597L608,597L605,598L611,598L611,597Z M616,598L619,599L623,598L626,596L629,594L630,591L630,591L630,588L631,585L628,583L627,581L625,577L627,574L632,574L636,575L640,575L645,575L649,575L653,575L658,576L662,576L667,576L671,576L675,576L680,577L684,577L689,577L693,577L697,577L697,576L697,573L695,571L696,567L697,563L697,560L697,557L696,555L695,550L696,548L698,544L698,541L699,539L702,537L702,536L700,534L701,531L700,530L700,527L698,524L697,522L697,519L696,516L695,512L695,510L695,506L694,502L694,497L694,494L693,492L693,489L693,486L692,483L692,480L692,477L692,474L691,471L691,468L691,465L690,460L690,455L689,452L689,448L684,448L680,447L676,447L672,447L668,447L664,447L660,447L656,447L652,446L648,446L644,446L640,445L636,445L632,445L628,445L623,445L625,448L624,451L623,454L622,458L622,461L621,464L620,468L620,471L619,475L618,479L617,483L616,488L615,492L614,496L613,501L613,505L612,509L611,514L610,518L609,522L608,525L608,529L607,532L607,535L606,540L605,544L605,547L604,550L604,553L604,556L604,559L604,562L604,565L604,568L604,571L604,574L603,577L603,580L603,583L603,586L603,589L603,593L605,593L608,593L610,595L611,590L612,587L613,584L614,582L616,585L616,589L616,592L619,593L620,596L618,598L615,597L613,599L616,598Z" data-oid="3541" /><path data-fips="12" data-hasc="US.FL" data-iso="USA" d="M792,788L792,788L792,791L792,788Z M798,788L796,786L798,789L798,788Z M823,778L825,775L828,773L828,773L829,770L830,767L828,770L827,772L825,775L823,778L821,780L823,778Z M776,730L775,729L773,727L775,730L779,730L776,730Z M776,725L775,723L775,726L777,728L776,725Z M829,692L828,689L826,685L828,690L828,692L830,697L831,700L834,706L829,692Z M819,669L820,664L821,661L818,661L817,664L818,668L820,672L819,669Z M693,620L693,620L690,621L693,620Z M699,622L701,621L704,618L702,620L693,623L696,623L699,622Z M653,595L654,595L652,595L649,595L646,595L642,595L639,596L634,597L653,595Z M809,774L811,773L814,773L817,773L819,772L821,770L823,772L826,771L827,769L829,765L828,763L829,760L830,757L831,755L833,752L835,750L835,753L836,741L836,734L837,732L838,726L838,722L837,719L836,713L835,710L833,707L830,705L833,706L828,695L827,690L818,670L817,667L816,664L815,659L814,656L815,653L817,656L816,659L819,660L821,660L821,663L821,667L821,674L822,677L823,680L825,682L823,679L822,676L821,672L821,669L822,666L823,664L822,661L820,658L819,656L817,652L813,646L812,643L809,638L808,633L806,629L804,625L803,623L802,618L802,615L801,611L800,607L799,603L799,600L798,597L796,595L796,592L797,595L798,592L796,589L794,589L791,589L788,587L785,586L782,587L780,589L780,591L781,594L780,598L779,601L776,600L775,598L775,595L773,594L770,593L766,593L761,593L758,592L756,592L753,592L750,592L747,591L743,591L740,591L737,590L734,590L731,590L728,589L725,589L722,589L719,589L716,588L712,588L707,587L703,587L701,587L699,583L698,580L697,577L693,577L689,577L684,577L680,577L675,576L671,576L667,576L662,576L658,576L653,575L649,575L645,575L640,575L636,575L632,574L627,574L625,577L627,581L628,583L631,585L630,588L630,591L630,591L631,593L630,595L628,597L633,596L635,594L637,592L638,589L640,591L641,588L641,591L643,593L640,594L637,595L640,595L644,594L648,594L652,594L654,593L657,591L659,593L662,593L665,593L665,596L662,596L659,596L655,595L659,596L663,598L667,599L670,601L672,602L676,604L675,602L673,600L675,599L678,600L681,600L678,601L677,604L679,605L682,606L683,609L681,607L677,605L679,607L681,610L684,612L686,614L687,617L686,620L684,616L686,620L689,620L693,619L696,619L698,617L700,619L703,617L706,615L708,614L712,613L714,613L712,611L714,612L714,609L717,608L720,608L724,608L726,609L728,611L731,613L733,614L735,617L736,619L738,622L741,623L740,626L742,628L745,630L747,633L748,636L750,638L752,639L755,640L758,641L759,643L760,647L762,650L761,652L762,655L762,658L761,662L760,666L759,670L757,673L757,676L755,681L755,684L758,687L759,689L758,687L757,685L759,687L761,688L762,685L762,682L760,680L762,679L764,680L766,683L768,681L769,684L767,687L765,689L764,691L762,693L763,694L760,696L758,694L759,696L762,698L763,700L764,703L765,706L766,708L769,714L770,717L773,718L775,716L773,714L772,711L773,713L776,713L779,714L777,715L778,718L777,722L778,725L778,728L781,727L784,723L782,727L780,729L784,731L784,734L784,737L786,740L787,745L788,748L790,747L793,748L795,749L798,751L798,753L801,755L801,758L803,761L804,764L806,767L809,768L809,770L806,769L804,768L804,772L806,774L809,774Z" data-oid="3542" /><path data-fips="13" data-hasc="US.GA" data-iso="USA" d="M798,585L798,582L797,585L797,588L798,585Z M780,598L781,594L780,591L780,589L782,587L785,586L788,587L791,589L794,589L796,589L796,587L795,585L796,582L797,580L796,577L798,579L798,575L798,573L801,574L803,571L801,569L798,568L802,569L803,566L805,562L802,564L803,561L804,559L806,561L807,559L805,556L803,554L806,556L809,554L809,551L812,551L813,549L814,546L813,546L810,544L807,543L806,540L807,538L806,535L804,531L802,528L800,527L800,525L799,522L799,519L797,515L796,512L793,511L790,508L788,506L787,504L786,500L784,498L783,496L780,495L778,492L777,489L775,487L773,486L771,484L769,482L768,480L766,477L764,475L764,472L762,468L760,466L756,465L754,463L751,461L749,459L749,456L750,454L752,451L755,449L751,449L747,449L743,449L739,449L735,449L731,449L727,449L723,449L718,449L715,448L712,448L708,448L705,448L702,448L699,448L695,448L692,448L689,448L689,452L690,455L690,460L691,465L691,468L691,471L692,474L692,477L692,480L692,483L693,486L693,489L693,492L694,494L694,497L694,502L695,506L695,510L695,512L696,516L697,519L697,522L698,524L700,527L700,530L701,531L700,534L702,536L702,537L699,539L698,541L698,544L696,548L695,550L696,555L697,557L697,560L697,563L696,567L695,571L697,573L697,576L697,577L698,580L699,583L701,587L703,587L707,587L712,588L716,588L719,589L722,589L725,589L728,589L731,590L734,590L737,590L740,591L743,591L747,591L750,592L753,592L756,592L758,592L761,593L766,593L770,593L773,594L775,595L775,598L776,600L779,601L780,598Z" data-oid="3543" /><path data-fips="28" data-hasc="US.MS" data-iso="USA" d="M599,598L596,597L593,597L599,598L599,598Z M575,595L579,591L582,593L586,592L588,590L591,591L594,593L598,593L601,595L603,593L603,589L603,586L603,583L603,580L603,577L604,574L604,571L604,568L604,565L604,562L604,559L604,556L604,553L604,550L605,547L605,544L606,540L607,535L607,532L608,529L608,525L609,522L610,518L611,514L612,509L613,505L613,501L614,496L615,492L616,488L617,483L618,479L619,475L620,471L620,468L621,464L622,461L622,458L623,454L624,451L625,448L623,445L621,445L618,445L615,445L611,444L608,444L605,444L602,444L598,444L595,444L592,443L589,443L585,443L582,443L579,443L576,443L572,442L569,442L569,446L564,447L564,450L561,452L561,455L560,458L559,461L556,461L555,464L552,466L550,468L551,471L549,472L546,472L546,475L546,478L543,480L541,482L542,484L540,486L542,489L542,492L541,494L542,497L541,499L540,503L541,506L540,508L539,511L541,513L538,514L539,517L539,520L541,522L542,525L542,527L540,531L538,534L536,536L533,539L531,540L529,543L528,547L525,550L525,552L524,557L521,557L522,560L521,563L520,566L523,566L528,567L531,567L535,568L539,568L544,568L548,569L552,569L556,569L560,570L563,570L566,570L569,570L568,573L567,576L566,579L566,582L566,585L569,587L569,590L570,593L571,596L572,597L574,597L575,595Z" data-oid="3544" /><path data-fips="45" data-hasc="US.SC" data-iso="USA" d="M814,545L815,543L817,540L816,543L818,542L818,538L816,536L816,533L817,531L817,533L820,535L820,532L821,536L823,538L825,536L826,534L824,535L826,532L824,531L821,530L824,529L827,531L830,531L832,529L832,527L834,528L837,527L840,526L842,524L840,521L842,519L843,522L846,521L848,519L849,516L851,514L854,514L856,512L857,509L860,509L860,506L858,504L860,502L859,504L861,506L862,501L865,497L868,493L870,491L872,489L875,487L878,485L876,484L872,480L869,477L865,473L861,469L858,466L854,462L851,459L847,456L844,456L841,456L837,456L832,456L827,455L823,455L820,455L817,455L816,449L813,446L811,445L808,445L805,444L801,444L796,444L791,444L787,443L783,443L779,443L775,443L774,443L772,444L769,445L766,446L763,446L755,449L752,451L750,454L749,456L749,459L751,461L754,463L756,465L760,466L762,468L764,472L764,475L766,477L768,480L769,482L771,484L773,486L775,487L777,489L778,492L780,495L783,496L784,498L786,500L787,504L788,506L790,508L793,511L796,512L797,515L799,519L799,522L800,525L800,527L802,528L804,531L806,535L807,538L806,540L807,543L810,544L813,546L814,546L814,545Z" data-oid="3545" /><path data-fips="17" data-hasc="US.IL" data-iso="USA" d="M605,381L607,378L609,376L613,376L619,379L621,381L624,379L623,376L623,372L625,370L628,369L634,368L633,365L633,362L636,359L636,358L636,355L637,352L638,350L639,347L640,344L643,343L644,341L646,339L648,337L649,334L651,333L652,329L652,326L651,323L650,320L652,317L652,314L654,312L655,307L655,303L656,299L656,295L657,291L658,287L658,282L659,278L659,274L660,270L660,266L661,262L662,258L662,254L663,250L664,245L667,245L670,245L671,243L672,240L673,236L675,232L676,228L677,225L673,225L669,225L664,225L660,225L656,225L652,224L649,224L645,224L641,224L637,224L633,224L629,224L625,224L621,224L618,224L614,223L610,223L606,223L602,223L598,223L600,226L602,227L602,230L605,233L607,236L606,239L605,242L602,243L601,246L599,248L596,250L594,250L591,252L585,252L582,255L581,257L583,260L584,263L580,268L579,271L577,273L574,274L572,275L571,278L570,281L569,281L567,284L566,292L566,294L567,297L567,300L572,305L577,312L578,314L578,317L578,320L579,323L581,324L584,322L588,324L590,326L589,328L588,331L586,335L584,338L582,341L582,344L584,346L586,349L588,351L590,352L593,355L596,356L596,359L599,361L599,364L599,366L600,370L598,372L599,375L600,378L602,381L603,379L605,382L606,383L605,381Z" data-oid="3546" /><path data-fips="18" data-hasc="US.IN" data-iso="USA" d="M640,358L639,355L642,357L645,356L646,358L648,356L652,355L654,356L657,358L660,359L661,356L664,355L667,354L669,357L672,357L674,355L675,352L676,350L678,348L680,349L681,352L684,353L687,354L689,352L690,348L692,346L695,346L697,344L698,341L701,339L703,336L703,332L707,332L710,334L715,331L718,330L717,327L718,325L719,322L719,317L720,312L720,308L721,303L721,298L721,293L722,289L722,284L723,279L723,275L724,270L724,265L725,261L725,256L725,252L726,247L724,245L721,245L717,245L714,245L710,245L706,245L703,245L699,245L696,245L692,245L689,245L685,245L681,245L678,245L674,245L670,245L667,245L664,245L663,250L662,254L662,258L661,262L660,266L660,270L659,274L659,278L658,282L658,287L657,291L656,295L656,299L655,303L655,307L654,312L652,314L652,317L650,320L651,323L652,326L652,329L651,333L649,334L648,337L646,339L644,341L643,343L640,344L639,347L638,350L637,352L636,355L636,358L636,359L637,359L640,358Z" data-oid="3547" /><path data-fips="21" data-hasc="US.KY" data-iso="USA" d="M743,398L745,397L747,396L752,395L754,394L757,393L759,391L762,390L764,389L766,386L768,383L770,381L775,379L778,378L780,376L784,373L788,370L787,370L784,369L782,367L780,365L779,363L777,361L776,358L775,356L774,354L772,350L773,347L773,344L772,341L770,339L767,337L765,333L762,334L760,336L758,337L755,337L753,335L750,334L747,336L744,335L742,332L739,331L736,332L733,330L732,327L731,324L729,323L727,322L723,323L721,321L719,322L718,325L717,327L718,330L715,331L710,334L707,332L703,332L703,336L701,339L698,341L697,344L695,346L692,346L690,348L689,352L687,354L684,353L681,352L680,349L678,348L676,350L675,352L674,355L672,357L669,357L667,354L664,355L661,356L660,359L657,358L654,356L652,355L648,356L646,358L645,356L642,357L639,355L640,358L637,359L636,359L633,362L633,365L634,368L628,369L625,370L623,372L623,376L624,379L621,381L619,379L613,376L609,376L607,378L605,381L606,383L606,386L605,389L604,392L602,395L600,393L598,395L597,397L601,397L605,397L610,398L614,398L618,398L623,398L627,398L631,396L633,393L637,394L639,394L643,394L647,394L650,394L653,395L656,395L661,395L665,395L668,395L671,395L674,395L678,396L681,396L686,396L692,397L698,397L705,397L712,397L718,397L724,398L729,398L734,398L737,398L740,399L743,398Z" data-oid="3548" /><path data-fips="37" data-hasc="US.NC" data-iso="USA" d="M898,476L897,476L897,479L898,476Z M907,466L910,464L910,464L908,465L903,469L907,466Z M932,460L929,459L932,460L932,460Z M925,458L928,458L927,458L922,459L917,460L925,458Z M936,455L938,453L940,451L938,452L935,455L932,461L936,455Z M948,444L951,442L948,443L945,446L948,444Z M957,441L958,440L959,438L959,432L959,428L958,426L959,430L959,433L958,436L957,440L955,441L957,441Z M954,421L952,419L954,422L954,421Z M956,420L951,413L950,409L949,407L948,405L947,400L946,400L947,402L948,404L949,408L950,411L951,414L952,417L955,421L957,423L956,420Z M944,400L944,400L943,400L944,400Z M945,400L944,400L944,400L945,400Z M880,485L883,484L886,484L889,484L893,485L895,481L894,478L894,475L895,479L895,484L896,481L897,476L899,473L902,469L907,465L908,462L909,460L909,457L910,460L910,463L913,462L916,459L916,457L918,459L922,457L926,457L928,456L929,458L930,455L933,456L935,454L937,452L937,449L934,449L934,446L932,449L930,450L927,451L924,451L921,450L919,447L918,444L920,447L923,449L926,449L929,447L931,445L930,442L932,441L931,439L927,438L923,436L921,435L919,433L922,434L925,436L929,434L929,431L932,432L930,434L932,436L934,434L936,436L939,438L943,436L945,434L946,432L949,430L951,429L952,426L951,424L951,421L948,418L947,421L944,420L945,424L943,427L941,426L943,425L943,423L943,420L942,417L939,417L937,419L934,419L932,418L929,419L925,419L925,416L924,413L925,409L925,412L926,416L929,417L933,416L934,413L932,411L935,413L939,414L937,411L940,413L941,410L940,408L942,410L945,410L944,407L946,410L949,412L947,407L945,405L943,402L942,400L940,400L937,400L933,400L930,400L926,400L923,400L919,400L916,400L913,400L910,400L906,400L903,400L900,401L897,401L894,401L890,401L886,401L882,401L877,401L873,401L869,401L865,401L861,401L858,401L855,401L852,401L849,401L846,401L843,401L839,401L836,401L832,401L829,401L825,400L821,400L817,400L814,400L810,400L806,400L803,400L799,399L795,399L794,401L794,404L794,407L791,406L788,408L784,414L782,413L779,413L777,414L775,415L773,418L770,416L767,416L764,419L762,421L760,423L757,424L754,426L751,428L749,429L746,431L742,431L739,431L737,432L734,434L732,435L731,438L729,440L725,440L724,443L723,446L723,449L727,449L731,449L735,449L739,449L743,449L747,449L751,449L755,449L763,446L766,446L769,445L772,444L774,443L775,443L779,443L783,443L787,443L791,444L796,444L801,444L805,444L808,445L811,445L813,446L816,449L817,455L820,455L823,455L827,455L832,456L837,456L841,456L844,456L847,456L851,459L854,462L858,466L861,469L865,473L869,477L872,480L876,484L878,485L880,485Z" data-oid="3549" /><path data-fips="39" data-hasc="US.OH" data-iso="USA" d="M777,343L780,341L781,338L784,336L783,333L784,331L786,328L788,325L790,326L790,329L793,327L794,325L795,323L795,320L798,317L800,315L802,314L805,315L808,314L811,312L812,310L817,307L818,304L818,301L819,299L820,296L821,293L822,290L824,287L823,284L824,282L823,278L826,278L826,275L826,272L826,269L826,266L826,263L826,260L826,257L826,254L826,251L826,248L826,245L826,242L826,239L826,236L826,233L827,230L824,231L821,231L818,232L815,232L812,233L809,234L805,235L802,237L799,239L795,241L792,243L788,244L785,246L781,248L775,248L771,246L767,243L765,241L757,246L753,246L749,247L745,247L741,247L738,247L734,247L730,247L726,247L725,252L725,256L725,261L724,265L724,270L723,275L723,279L722,284L722,289L721,293L721,298L721,303L720,308L720,312L719,317L719,322L721,321L723,323L727,322L729,323L731,324L732,327L733,330L736,332L739,331L742,332L744,335L747,336L750,334L753,335L755,337L758,337L760,336L762,334L765,333L767,337L770,339L772,341L773,343L774,343L777,343Z" data-oid="3550" /><path data-fips="47" data-hasc="US.TN" data-iso="USA" d="M723,446L724,443L725,440L729,440L731,438L732,435L734,434L737,432L739,431L742,431L746,431L749,429L751,428L754,426L757,424L760,423L762,421L764,419L767,416L770,416L773,418L775,415L777,414L779,413L782,413L784,414L788,408L791,406L794,407L794,404L794,401L795,399L791,398L786,399L784,399L781,399L778,399L775,399L773,399L770,399L767,399L765,399L762,399L759,398L756,398L754,398L751,398L748,398L746,398L743,398L740,399L737,398L734,398L729,398L724,398L718,397L712,397L705,397L698,397L692,397L686,396L681,396L678,396L674,395L671,395L668,395L665,395L661,395L656,395L653,395L650,394L647,394L643,394L639,394L637,394L633,393L631,396L627,398L623,398L618,398L614,398L610,398L605,397L601,397L597,397L595,397L594,397L594,400L592,401L593,404L590,404L591,408L589,410L588,412L589,415L586,415L585,418L581,420L582,423L581,426L578,427L577,429L575,432L575,435L575,439L572,440L570,442L569,442L572,442L576,443L579,443L582,443L585,443L589,443L592,443L595,444L598,444L602,444L605,444L608,444L611,444L615,445L618,445L621,445L623,445L628,445L632,445L636,445L640,445L644,446L648,446L652,446L656,447L660,447L664,447L668,447L672,447L676,447L680,447L684,448L689,448L692,448L695,448L699,448L702,448L705,448L708,448L712,448L715,448L718,449L723,449L723,446Z" data-oid="3551" /><path data-fips="51" data-hasc="US.VA" data-iso="USA" d="M945,400L945,399L944,400L945,400Z M945,378L945,375L946,372L948,370L950,370L951,367L952,364L955,358L955,357L956,354L955,354L952,355L949,356L949,358L948,361L946,363L944,365L943,368L943,371L942,373L942,376L942,379L945,380L945,378Z M958,357L959,354L959,354L959,354L958,355L958,358L958,357Z M839,401L843,401L846,401L849,401L852,401L855,401L858,401L861,401L865,401L869,401L873,401L877,401L882,401L886,401L890,401L894,401L897,401L900,401L903,400L906,400L910,400L913,400L916,400L919,400L923,400L926,400L930,400L933,400L937,400L940,400L942,400L943,400L944,400L944,398L945,395L946,400L947,400L946,398L944,392L941,388L938,388L934,388L935,390L932,389L929,390L930,387L927,386L925,384L925,380L922,380L919,380L916,378L914,377L910,376L913,376L916,376L918,378L920,378L922,380L925,379L926,382L928,383L930,385L933,386L935,384L934,381L932,379L929,379L926,377L924,373L923,371L925,373L927,376L930,378L931,375L931,372L933,374L935,376L935,374L934,371L933,368L930,367L927,366L926,364L924,362L922,361L919,358L917,356L916,353L914,352L912,350L915,352L917,353L919,356L921,358L923,360L925,362L927,364L930,366L932,365L933,363L935,360L933,357L930,356L927,354L925,352L923,351L920,350L917,350L915,347L913,344L910,345L907,345L906,342L908,338L908,336L911,335L913,333L912,328L912,328L910,326L907,325L905,323L902,323L901,321L901,318L898,316L895,316L895,316L894,318L892,321L891,320L888,318L885,316L882,314L879,314L879,316L878,319L877,322L875,324L873,326L871,328L869,330L867,332L864,330L862,334L861,336L859,339L858,342L855,343L851,341L850,339L847,338L846,341L846,344L844,346L843,349L841,351L840,353L839,356L836,358L834,360L833,363L831,366L832,368L831,371L828,373L825,372L822,373L819,374L816,374L816,377L812,378L809,378L806,378L803,378L800,379L798,380L795,379L792,378L790,376L789,373L788,370L784,373L780,376L778,378L775,379L770,381L768,383L766,386L764,389L762,390L759,391L757,393L754,394L752,395L747,396L745,397L743,398L746,398L748,398L751,398L754,398L756,398L759,398L762,399L765,399L767,399L770,399L773,399L775,399L778,399L781,399L784,399L786,399L791,398L795,399L799,399L803,400L806,400L810,400L814,400L817,400L821,400L825,400L829,401L832,401L836,401L839,401Z" data-oid="3552" /><path data-fips="55" data-hasc="US.WI" data-iso="USA" d="M677,219L677,217L678,211L678,208L678,202L679,198L679,194L681,191L682,188L683,185L685,181L687,175L688,173L690,170L691,168L692,165L694,162L697,160L699,158L702,155L704,154L702,152L699,151L697,150L694,148L691,148L687,148L686,150L684,152L680,155L678,158L676,157L673,155L674,152L675,150L671,149L673,147L674,144L673,142L671,140L668,139L668,136L666,135L663,135L660,134L657,134L655,134L652,133L649,131L646,130L643,130L640,129L637,128L634,127L631,127L630,124L628,122L628,119L630,116L632,113L635,110L637,108L639,105L636,104L633,104L629,104L626,104L622,106L617,108L613,111L608,113L606,114L603,115L601,116L598,117L596,117L593,118L591,120L590,123L589,125L588,128L587,131L586,134L583,135L580,136L577,137L575,140L573,142L572,145L575,145L575,148L574,151L572,153L571,156L570,159L569,162L568,165L570,167L574,169L576,171L579,172L582,175L583,179L586,182L590,183L592,185L593,188L593,191L592,193L592,196L591,197L591,200L594,202L591,205L591,208L590,211L591,214L591,217L596,219L598,221L598,223L602,223L606,223L610,223L614,223L618,224L621,224L625,224L629,224L633,224L637,224L641,224L645,224L649,224L652,224L656,225L660,225L664,225L669,225L673,225L677,225L677,219Z" data-oid="3553" /><path data-fips="54" data-hasc="US.WV" data-iso="USA" d="M800,379L803,378L806,378L809,378L812,378L816,377L816,374L819,374L822,373L825,372L828,373L831,371L832,368L831,366L833,363L834,360L836,358L839,356L840,353L841,351L843,349L844,346L846,344L846,341L847,338L850,339L851,341L855,343L858,342L859,339L861,336L862,334L864,330L867,332L869,330L871,328L873,326L875,324L877,322L878,319L879,316L879,314L882,314L885,316L888,318L891,320L892,321L894,318L895,316L895,316L894,315L893,313L892,310L891,308L888,307L886,306L883,305L881,307L877,307L877,310L874,310L871,309L868,308L866,310L864,312L862,311L859,314L857,315L855,317L851,320L852,304L848,304L845,304L842,304L839,304L835,304L832,304L829,304L826,304L826,300L826,296L826,292L826,287L826,282L826,278L823,278L824,282L823,284L824,287L822,290L821,293L820,296L819,299L818,301L818,304L817,307L812,310L811,312L808,314L805,315L802,314L800,315L798,317L795,320L795,323L794,325L793,327L790,329L790,326L788,325L786,328L784,331L783,333L784,336L781,338L780,341L777,343L774,343L773,343L773,344L773,347L772,350L774,354L775,356L776,358L777,361L779,363L780,365L782,367L784,369L787,370L788,370L789,373L790,376L792,378L795,379L798,380L800,379Z" data-oid="3554" /><path data-fips="10" data-hasc="US.DE" data-iso="USA" d="M951,341L955,341L958,341L962,341L963,341L963,341L963,340L962,338L959,337L962,334L959,331L957,328L955,325L953,323L953,320L952,317L950,314L948,311L948,308L947,306L949,304L951,301L950,301L946,300L944,301L942,304L943,308L943,312L944,317L944,321L945,325L945,330L946,334L946,338L947,341L951,341Z" data-oid="3555" /><path data-fips="11" data-hasc="US.DC" data-iso="USA" d="M916,329L912,328L912,328L913,331L916,329Z" data-oid="3556" /><path data-fips="24" data-hasc="US.MD" data-iso="USA" d="M959,354L959,354L960,352L961,348L962,346L961,349L960,351L959,354L959,354Z M963,341L963,341L963,341L963,344L963,341Z M946,356L949,356L952,355L955,354L956,354L956,352L959,350L961,347L961,344L962,341L958,341L955,341L951,341L947,341L946,338L946,334L945,330L945,325L944,321L944,317L943,312L943,308L942,304L939,304L937,304L934,304L931,304L928,304L925,304L922,304L920,304L917,304L914,304L911,304L908,304L905,304L903,304L900,304L897,304L894,304L891,304L888,304L886,304L883,304L880,304L877,304L874,304L871,304L869,304L866,304L863,304L860,304L857,304L854,304L852,304L851,320L855,317L857,315L859,314L862,311L864,312L866,310L868,308L871,309L874,310L877,310L877,307L881,307L883,305L886,306L888,307L891,308L892,310L893,313L894,315L895,316L898,316L901,318L901,321L902,323L905,323L907,325L910,326L916,329L913,331L913,333L912,335L910,337L908,339L908,342L910,344L912,342L914,342L916,345L919,345L921,348L926,349L927,351L928,349L930,352L932,353L932,350L930,348L928,346L927,344L923,342L922,339L922,336L924,341L928,344L930,345L929,342L926,338L926,334L926,331L925,328L927,327L925,324L929,324L928,322L925,320L924,317L927,318L926,316L928,317L928,314L931,314L932,311L933,314L936,311L936,308L939,307L938,311L941,309L939,311L937,313L940,314L935,314L933,317L932,321L933,324L934,321L936,321L935,323L933,326L930,324L931,327L934,327L935,329L934,332L931,331L931,335L933,333L935,336L938,337L940,335L938,338L936,337L933,337L933,339L932,342L935,344L939,346L942,345L943,343L942,346L943,349L942,351L944,350L946,352L944,354L944,357L946,356Z" data-oid="3557" /><path data-fips="34" data-hasc="US.NJ" data-iso="USA" d="M967,326L969,323L970,321L971,318L971,316L974,315L976,314L977,311L976,308L979,307L981,305L981,302L982,299L982,297L983,294L983,297L983,301L983,298L984,295L983,292L984,289L985,287L982,283L980,282L977,281L977,278L979,276L981,275L982,272L983,270L984,267L981,265L979,264L976,263L974,262L971,260L969,259L966,258L964,257L963,257L961,259L960,262L958,264L956,266L956,268L957,271L955,273L954,275L954,278L957,279L958,282L960,284L962,286L964,288L965,292L962,293L960,295L958,297L956,299L953,300L950,302L949,305L948,307L949,310L950,312L955,315L957,317L959,319L961,318L964,319L965,321L964,324L965,327L967,326Z" data-oid="3558" /><path data-fips="36" data-hasc="US.NY" data-iso="USA" d="M980,279L981,276L980,276L978,278L977,280L980,279Z M997,277L1000,276L1000,276L996,277L994,278L997,277Z M1002,276L1006,275L1009,273L1006,274L1004,275L999,277L1002,276Z M988,278L992,277L994,276L998,275L1000,274L1004,274L1007,273L1009,273L1012,272L1014,271L1018,270L1021,269L1024,267L1027,266L1030,263L1028,264L1025,265L1022,265L1019,266L1017,268L1014,268L1016,266L1018,264L1021,262L1022,261L1019,262L1016,264L1013,266L1010,267L1007,267L1001,268L999,268L996,269L993,269L991,269L989,272L986,272L984,273L982,275L982,278L985,277L988,277L985,279L988,278Z M986,271L987,269L990,266L988,264L990,262L992,260L991,258L991,255L991,251L990,247L990,243L990,239L990,237L989,236L989,235L990,233L990,229L991,225L992,221L992,218L992,218L992,215L991,212L991,209L991,206L990,203L990,200L990,197L988,195L986,196L986,192L986,189L985,186L984,183L984,181L985,178L985,176L985,173L984,171L983,168L983,166L982,163L982,160L982,159L981,159L977,159L973,159L968,159L964,160L960,160L956,160L952,160L950,159L947,160L944,161L940,164L938,166L935,168L933,170L931,172L929,175L925,176L923,180L920,181L917,185L915,187L913,190L912,193L910,195L905,195L899,195L894,195L889,195L884,195L879,195L873,195L867,195L862,197L857,200L860,205L860,207L861,210L862,213L863,215L861,217L858,219L854,220L851,222L847,223L844,225L844,226L844,229L844,232L844,235L844,238L845,239L848,239L851,239L855,239L858,239L861,239L864,239L867,239L871,239L874,239L877,239L880,239L883,239L886,239L890,239L893,239L896,239L899,239L902,239L906,239L909,239L912,239L915,239L918,239L921,239L925,239L928,239L931,239L934,239L937,239L940,239L943,239L947,239L950,241L952,243L954,245L955,247L955,250L957,253L959,254L962,254L964,257L966,258L969,259L971,260L974,262L976,263L979,264L981,265L984,267L983,264L981,260L982,258L983,260L984,263L984,266L984,270L983,272L986,271Z" data-oid="3559" /><path data-fips="42" data-hasc="US.PA" data-iso="USA" d="M839,304L842,304L845,304L848,304L852,304L854,304L857,304L860,304L863,304L866,304L869,304L871,304L874,304L877,304L880,304L883,304L886,304L888,304L891,304L894,304L897,304L900,304L903,304L905,304L908,304L911,304L914,304L917,304L920,304L922,304L925,304L928,304L931,304L934,304L937,304L939,304L942,304L944,301L946,300L950,301L951,301L952,300L956,299L957,297L960,295L962,293L965,292L964,288L962,286L960,284L958,282L957,279L954,278L954,275L955,273L957,271L956,268L956,266L958,264L960,262L961,259L963,257L964,257L962,254L959,254L957,253L955,250L955,247L954,245L952,243L950,241L947,239L943,239L940,239L937,239L934,239L931,239L928,239L925,239L921,239L918,239L915,239L912,239L909,239L906,239L902,239L899,239L896,239L893,239L890,239L886,239L883,239L880,239L877,239L874,239L871,239L867,239L864,239L861,239L858,239L855,239L851,239L848,239L845,239L844,238L844,235L844,232L844,229L844,226L844,225L844,225L840,226L836,228L833,229L830,230L827,230L826,233L826,236L826,239L826,242L826,245L826,248L826,251L826,254L826,257L826,260L826,263L826,266L826,269L826,272L826,275L826,278L826,282L826,287L826,292L826,296L826,300L826,304L829,304L832,304L835,304L839,304Z" data-oid="3560" /><path data-fips="23" data-hasc="US.ME" data-iso="USA" d="M1082,181L1079,181L1082,183L1082,181Z M1092,176L1092,174L1088,173L1088,176L1090,178L1092,176Z M1048,208L1049,205L1049,203L1051,201L1053,198L1052,196L1055,195L1054,192L1055,190L1058,188L1059,190L1061,188L1063,190L1062,187L1061,185L1062,187L1064,190L1063,186L1065,184L1065,186L1067,188L1066,185L1069,187L1071,184L1073,185L1075,183L1075,180L1076,178L1077,175L1077,172L1080,171L1081,173L1080,176L1083,176L1086,176L1086,174L1085,171L1088,173L1089,170L1091,171L1093,173L1096,173L1096,171L1098,173L1097,170L1100,170L1103,170L1103,168L1106,168L1107,166L1110,167L1111,164L1112,162L1110,163L1108,160L1110,159L1109,156L1107,154L1104,155L1101,153L1100,150L1099,148L1099,145L1096,144L1093,143L1091,141L1091,138L1090,135L1089,132L1088,129L1087,126L1086,123L1085,120L1084,117L1083,113L1081,109L1078,107L1076,106L1074,104L1070,103L1068,105L1065,105L1063,106L1060,107L1057,105L1057,104L1056,101L1052,101L1049,105L1047,109L1045,113L1042,118L1042,120L1042,125L1040,127L1039,130L1040,132L1040,135L1041,137L1039,139L1039,142L1036,143L1034,147L1035,150L1033,150L1032,153L1030,151L1028,152L1029,154L1029,157L1030,160L1031,162L1031,165L1032,168L1033,170L1033,173L1034,176L1035,179L1035,181L1036,184L1037,187L1038,190L1038,192L1039,195L1039,198L1040,201L1042,203L1044,204L1044,207L1046,208L1048,208Z" data-oid="3561" /><path data-fips="26" data-hasc="US.MI" data-iso="USA" d="M730,247L734,247L738,247L741,247L745,247L749,247L753,246L757,246L765,241L765,238L766,234L767,231L770,229L774,228L777,224L780,222L781,219L781,217L782,214L783,211L784,209L786,206L788,202L789,199L790,196L789,190L789,185L788,179L787,174L786,168L785,163L785,158L783,150L779,149L774,146L770,144L766,142L762,139L764,137L765,134L761,132L757,132L754,132L753,130L753,127L752,124L752,122L749,123L746,123L743,123L740,120L739,117L738,113L736,112L733,111L731,110L729,108L726,107L724,106L722,105L719,104L717,102L713,101L709,99L705,97L702,95L698,93L695,91L692,90L688,88L685,87L682,85L679,83L674,82L670,83L667,84L664,85L660,87L655,89L652,89L650,91L647,94L645,97L642,101L640,104L639,105L637,108L635,110L632,113L630,116L628,119L628,122L630,124L631,127L634,127L637,128L640,129L643,130L646,130L649,131L652,133L655,134L657,134L660,134L663,135L666,135L668,136L668,139L671,140L673,142L674,144L673,147L671,149L675,150L674,152L673,155L676,157L678,158L680,155L684,152L686,150L687,148L691,148L694,148L697,150L699,151L702,152L704,154L702,155L699,158L697,160L694,162L692,165L691,168L690,170L688,173L687,175L685,181L683,185L682,188L681,191L679,194L679,198L678,202L678,208L678,211L677,217L677,219L677,225L676,228L675,232L673,236L672,240L671,243L670,245L674,245L678,245L681,245L685,245L689,245L692,245L696,245L699,245L703,245L706,245L710,245L714,245L717,245L721,245L724,245L726,247L730,247Z" data-oid="3562" /></g></svg>