<?xml version="1.0" standalone="no"?>
<!DOCTYPE svg PUBLIC "-//W3C//DTD SVG 1.1//EN" "http://www.w3.org/Graphics/SVG/1.1/DTD/svg11.dtd">

<svg style="stroke-width:0.7pt; stroke-linejoin: round; stroke:#444; fill:white;" xmlns="http://www.w3.org/2000/svg" font-family="Helvetica, Arial, FreeSans, Sans, sans, sans-serif" height="741px" viewBox="0 0 1200 741" width="1200px" version="1.1" xmlns:xlink="http://www.w3.org/1999/xlink" enable-background="new 0 0 1200 741"><defs><style type="text/css">path { fill-rule: evenodd; }
#context path { fill: #eee; stroke: #bbb; } </style></defs><metadata><views><view padding="24.0" h="741.356199532" w="1200"><proj lon0="-98.606" id="laea" lat0="39.622" /><bbox y="856.91" h="312.64" w="506.73" x="762.08" /></view></views></metadata><g id="USA"><path data-fips="25" data-hasc="US.MA" data-iso="USA" d="M1139,201L1137,199L1138,200L1137,203L1139,201Z M1125,203L1128,202L1126,200L1125,200L1124,202L1123,205L1125,203Z M1070,201L1075,200L1078,199L1079,199L1080,199L1080,198L1082,198L1084,197L1085,197L1087,196L1090,195L1093,195L1098,193L1100,193L1102,192L1105,191L1106,191L1106,192L1107,194L1107,194L1108,194L1108,194L1108,194L1108,195L1109,196L1109,196L1109,197L1110,197L1110,197L1112,197L1113,195L1113,198L1114,198L1114,199L1114,200L1114,200L1114,200L1115,201L1115,202L1115,201L1118,201L1118,198L1121,197L1121,193L1123,196L1124,199L1127,197L1128,194L1131,194L1133,192L1136,189L1135,186L1133,183L1130,181L1127,182L1130,182L1132,184L1134,186L1133,189L1129,191L1125,191L1123,188L1121,186L1118,183L1116,181L1114,181L1111,181L1111,178L1111,175L1112,173L1114,171L1115,169L1113,169L1111,167L1109,165L1108,165L1108,165L1107,165L1106,166L1105,167L1105,168L1104,168L1104,168L1104,168L1103,169L1103,170L1103,170L1102,171L1102,172L1102,172L1100,173L1098,173L1096,174L1094,174L1092,175L1090,175L1088,176L1085,177L1082,178L1079,179L1077,179L1074,180L1072,180L1070,181L1068,181L1066,182L1065,182L1064,183L1064,186L1065,190L1065,194L1065,196L1065,200L1065,201L1066,202L1070,201Z" data-oid="3513" /><path data-fips="32" data-hasc="US.MN" data-iso="USA" d="M615,234L621,234L628,234L634,233L641,233L647,233L654,232L660,232L666,232L673,231L679,231L686,230L692,230L698,230L705,229L711,229L711,227L711,224L711,221L710,218L708,216L706,214L702,214L698,211L696,207L691,204L688,203L686,201L682,199L680,198L679,195L679,192L678,188L679,186L678,183L679,180L679,177L678,175L675,173L675,171L677,167L679,165L681,163L683,161L685,160L685,157L685,153L685,150L684,146L686,144L687,141L690,142L693,140L696,138L699,136L702,133L706,130L710,127L713,124L716,124L719,124L723,124L726,123L727,121L728,118L728,116L729,113L730,111L731,108L731,106L732,103L729,103L727,103L723,103L719,101L713,103L710,103L708,101L706,100L703,101L700,105L697,105L694,105L692,103L689,102L686,101L685,98L681,99L679,102L677,98L676,96L673,96L672,93L668,92L663,92L659,94L656,95L653,95L651,92L648,92L643,91L638,91L636,88L636,85L635,83L634,78L633,75L630,74L627,73L627,77L628,81L627,84L623,84L620,84L616,84L612,84L608,84L604,85L600,85L596,85L591,85L591,86L592,89L592,91L593,94L592,97L593,100L593,103L593,106L593,109L594,112L595,115L596,118L597,120L598,123L598,126L598,128L599,134L599,136L599,139L600,142L600,146L600,149L601,151L602,154L603,157L604,160L605,162L604,165L605,168L604,170L603,173L601,174L599,177L601,179L603,182L606,184L607,186L607,192L608,198L608,204L608,210L608,216L608,222L608,228L608,234L615,234Z" data-oid="3514" /><path data-fips="30" data-hasc="US.MT" data-iso="USA" d="M461,189L461,185L461,183L462,180L462,177L462,174L462,171L462,168L463,165L463,160L463,155L463,151L464,146L464,141L464,137L465,132L465,128L465,123L466,119L466,114L466,110L467,105L467,101L467,96L468,92L468,87L468,82L466,82L462,81L458,81L454,81L450,81L446,80L442,80L438,80L434,79L430,79L426,79L422,78L418,78L415,77L411,77L407,77L403,76L399,76L395,75L391,75L387,75L383,74L379,74L375,73L371,73L368,72L364,72L360,71L356,71L352,70L348,69L344,69L340,68L336,68L332,67L329,66L325,66L321,65L317,65L313,64L309,63L305,63L301,62L298,61L294,61L290,60L286,59L282,58L278,58L274,57L271,56L267,55L263,55L259,54L255,53L255,56L254,59L253,63L253,66L252,69L251,72L250,75L250,80L251,82L252,85L253,88L253,90L253,94L252,96L254,98L256,101L258,102L259,105L260,107L262,110L263,112L263,114L265,117L267,118L268,121L271,122L273,122L272,125L271,127L270,130L269,133L267,135L267,138L268,141L266,143L264,145L265,148L264,150L266,152L268,153L271,152L273,150L275,150L277,152L278,155L277,157L278,160L279,163L280,166L281,168L281,171L281,173L282,175L285,176L286,178L287,181L287,183L288,186L290,186L294,185L297,187L300,186L302,185L305,186L308,186L310,187L313,187L316,185L318,183L321,183L322,186L323,188L324,190L325,189L325,186L326,183L326,180L327,177L332,177L336,178L340,178L344,179L348,180L352,180L357,181L361,181L365,182L369,182L373,183L377,183L382,184L386,184L390,184L394,185L398,185L402,186L407,186L411,187L415,187L419,187L423,188L427,188L432,188L436,189L440,189L444,189L448,190L453,190L457,190L461,190L461,189Z" data-oid="3515" /><path data-fips="38" data-hasc="US.ND" data-iso="USA" d="M569,168L574,168L578,168L583,168L587,168L592,168L596,168L600,168L605,168L604,165L605,162L604,160L603,157L602,154L601,151L600,149L600,146L600,142L599,139L599,136L599,134L598,128L598,126L598,123L597,120L596,118L595,115L594,112L593,109L593,106L593,103L593,100L592,97L593,94L592,91L592,89L591,86L591,85L588,85L584,85L580,85L576,85L572,85L568,85L564,85L560,85L556,85L552,85L548,85L545,85L541,85L537,85L533,85L529,85L525,84L521,84L516,84L513,84L509,84L505,84L501,84L497,83L493,83L489,83L485,83L481,83L477,82L473,82L468,82L468,87L468,92L467,96L467,101L467,105L466,110L466,114L466,119L465,123L465,128L465,132L464,137L464,141L464,146L463,151L463,155L463,160L463,165L468,165L472,165L476,166L481,166L485,166L490,166L494,166L499,167L503,167L507,167L512,167L516,167L521,167L525,168L530,168L534,168L538,168L543,168L547,168L552,168L556,168L561,168L565,168L569,168Z" data-oid="3516" /><path data-fips="16" data-hasc="US.ID" data-iso="USA" d="M315,254L316,249L316,245L317,241L318,237L318,232L319,228L319,224L320,220L321,216L321,211L322,207L323,203L323,199L324,194L324,190L323,188L322,186L321,183L318,183L316,185L313,187L310,187L308,186L305,186L302,185L300,186L297,187L294,185L290,186L288,186L287,183L287,181L286,178L285,176L282,175L281,173L281,171L281,168L280,166L279,163L278,160L277,157L278,155L277,152L275,150L273,150L271,152L268,153L266,152L264,150L265,148L264,145L266,143L268,141L267,138L267,135L269,133L270,130L271,127L272,125L273,122L271,122L268,121L267,118L265,117L263,114L263,112L262,110L260,107L259,105L258,102L256,101L254,98L252,96L253,94L253,90L253,88L252,85L251,82L250,80L250,75L251,72L252,69L253,66L253,63L254,59L255,56L255,53L255,53L251,52L248,51L244,51L238,49L237,54L236,58L235,62L234,66L233,71L232,75L231,79L230,83L229,88L228,92L227,96L226,100L225,104L224,109L223,113L222,120L223,122L223,125L222,127L222,130L222,131L224,135L226,137L228,140L227,143L226,146L223,148L222,151L220,153L217,158L216,161L214,163L211,165L209,167L207,169L207,173L208,175L210,176L211,179L209,181L209,184L208,186L206,189L206,192L205,195L204,198L204,201L203,204L203,206L202,209L201,212L201,215L200,217L200,220L199,223L198,226L198,229L197,231L197,234L196,237L200,238L203,238L207,239L211,240L214,241L218,241L222,242L225,243L229,244L233,244L236,245L240,246L244,246L247,247L251,248L255,248L259,249L262,250L266,250L270,251L273,252L277,252L281,253L285,253L288,254L292,255L296,255L300,256L303,256L307,257L311,257L315,258L315,254Z" data-oid="3518" /><path data-fips="53" data-hasc="US.WA" data-iso="USA" d="M133,67L132,66L131,69L133,67Z M138,52L136,49L136,47L136,44L138,44L138,41L136,41L134,44L135,46L135,49L136,52L138,54L138,52Z M132,34L129,32L129,35L132,35L132,34Z M135,31L136,34L136,31L135,31L132,33L135,34L135,31Z M222,127L223,125L223,122L222,120L223,113L224,109L225,104L226,100L227,96L228,92L229,88L230,83L231,79L232,75L233,71L234,66L235,62L236,58L237,54L238,49L236,49L232,48L228,47L225,46L221,45L217,45L213,44L209,43L206,42L202,41L198,40L194,39L190,38L187,37L183,36L179,35L175,34L172,33L168,32L164,31L160,30L157,29L153,28L149,27L145,26L140,24L139,27L139,30L142,31L142,33L140,36L139,38L137,38L138,40L139,42L141,45L138,45L137,48L139,51L140,48L140,51L140,53L138,56L136,58L135,60L134,63L134,66L134,69L132,71L130,69L128,72L125,73L122,72L120,73L122,71L119,71L122,70L124,68L126,66L125,69L125,71L126,69L129,68L129,70L130,67L132,64L131,62L131,58L134,58L135,56L134,53L132,55L130,57L128,59L125,60L123,61L121,65L119,65L122,62L123,60L126,59L128,56L130,54L129,57L132,55L132,52L132,49L132,46L130,48L127,46L127,44L124,45L120,43L118,42L115,41L113,40L110,37L107,35L105,33L101,30L101,32L99,36L99,38L99,41L100,44L101,48L101,51L100,55L100,61L100,64L99,67L99,70L101,68L102,71L105,72L102,72L100,74L99,72L98,74L99,77L101,77L103,80L100,79L99,81L98,84L99,87L96,86L97,83L97,80L96,85L96,88L97,90L100,90L102,92L106,93L107,96L109,96L111,96L113,98L114,101L114,104L114,107L113,110L114,113L117,115L120,116L123,117L127,116L129,115L132,116L135,116L141,119L142,121L146,122L149,121L152,121L157,122L160,122L162,122L165,121L171,121L174,121L177,121L181,122L184,121L189,122L194,124L199,125L203,126L208,127L213,128L218,129L222,130L222,127Z M124,65L121,65L121,65L124,65Z" data-oid="3519" /><path data-fips="04" data-hasc="US.AZ" data-iso="USA" d="M322,553L323,548L323,543L324,538L324,534L325,529L325,524L326,519L326,514L327,510L327,505L328,500L328,495L329,490L329,486L330,481L330,476L331,471L332,466L332,462L333,457L333,452L334,447L334,442L335,437L335,433L336,428L336,423L337,418L337,413L338,409L338,404L339,399L336,399L332,398L329,398L325,397L322,397L319,396L315,396L312,396L309,395L305,395L302,394L299,394L295,393L292,393L288,392L285,392L282,391L278,391L275,390L272,390L268,389L265,389L262,388L258,388L255,387L252,387L248,386L245,386L242,385L238,385L235,384L232,383L231,385L231,388L230,392L230,395L229,399L228,403L227,406L226,407L225,409L222,408L221,405L218,405L215,404L213,407L212,410L212,413L212,416L212,420L212,424L212,427L212,430L210,432L210,435L210,435L210,440L212,443L213,448L213,450L215,452L217,455L217,457L215,459L211,460L209,463L207,465L207,468L207,470L206,473L205,475L203,478L201,479L201,482L201,485L200,488L203,489L204,492L203,495L201,497L198,497L197,498L195,500L194,502L195,503L204,508L213,513L222,518L230,523L239,527L248,532L257,537L267,543L271,544L274,546L277,547L280,548L283,548L286,549L289,549L292,549L295,550L298,550L301,551L304,551L307,551L310,552L313,552L316,552L319,553L322,553L322,553Z" data-oid="3520" /><path data-fips="06" data-hasc="US.CA" data-iso="USA" d="M116,476L114,474L112,472L113,474L114,477L117,478L116,476Z M120,462L118,461L115,460L117,461L118,464L121,465L120,462Z M86,437L84,436L82,436L83,439L85,440L86,437Z M97,439L95,439L91,437L90,438L91,440L97,439Z M203,495L204,492L203,489L200,488L201,485L201,482L201,479L203,478L205,475L206,473L207,470L207,468L207,465L209,463L211,460L215,459L217,457L217,455L215,452L213,450L213,448L212,443L210,440L210,435L210,435L206,431L203,426L199,421L196,417L193,413L190,409L188,405L185,400L182,396L179,392L176,388L174,384L170,380L167,375L164,371L161,366L158,361L155,357L152,352L149,348L145,342L141,337L137,331L133,326L129,320L125,315L122,309L118,302L120,297L121,292L122,287L123,282L124,277L125,272L127,267L128,263L129,258L130,253L131,248L133,243L134,238L135,233L136,228L138,223L133,222L127,221L122,219L117,218L112,217L107,215L102,214L97,213L92,211L87,210L82,208L77,207L72,205L67,204L62,202L56,201L56,202L55,205L55,208L55,211L55,214L54,218L53,220L51,223L50,225L50,228L47,233L49,233L47,234L44,235L42,238L40,241L40,244L40,247L42,250L44,253L45,255L46,261L46,264L46,267L45,269L44,272L43,275L43,278L44,281L43,283L42,286L44,290L46,292L48,299L51,302L51,305L53,309L54,313L52,311L49,314L52,313L54,316L56,318L58,321L60,320L61,317L61,315L63,313L66,316L68,318L71,316L72,319L75,319L78,318L76,320L78,319L78,319L79,319L80,321L78,319L76,320L76,320L75,321L72,319L69,318L66,317L64,318L62,320L63,322L63,326L65,328L65,334L63,332L61,330L60,327L61,325L59,323L58,325L57,328L56,330L57,332L58,335L56,338L57,342L59,345L61,347L64,348L66,349L67,352L67,355L65,357L62,357L61,360L61,363L61,366L63,369L65,371L66,375L68,378L68,381L70,383L70,387L73,389L74,392L76,394L77,397L76,400L78,402L80,404L80,407L78,409L79,412L78,415L77,417L78,420L80,423L83,424L87,424L90,426L94,427L96,428L99,429L101,431L105,435L105,438L107,440L111,442L114,443L118,444L120,446L121,450L120,452L122,454L125,453L127,454L130,459L133,462L136,464L138,468L141,473L142,478L141,483L142,486L143,489L141,487L143,489L145,492L148,492L151,492L155,493L158,493L161,493L165,494L168,494L171,494L175,495L178,495L181,495L185,496L188,496L192,496L195,497L198,497L201,497L203,495Z" data-oid="3521" /><path data-fips="08" data-hasc="US.CO" data-iso="USA" d="M491,405L491,400L492,395L492,390L492,385L492,380L492,375L492,370L493,365L493,359L493,354L493,349L493,344L493,339L494,334L494,329L494,325L494,322L494,319L494,315L494,312L495,308L495,305L495,301L491,301L486,301L481,301L476,301L472,300L467,300L462,300L457,300L454,299L451,299L448,299L445,299L441,299L438,298L435,298L432,298L429,298L425,297L422,297L419,297L416,297L412,296L409,296L406,296L403,296L400,295L396,295L393,295L390,294L387,294L384,294L380,293L377,293L374,293L371,292L367,292L364,292L361,291L358,291L355,291L351,290L351,294L351,297L350,300L350,304L349,307L349,311L349,314L348,317L348,321L347,324L347,328L347,331L346,334L346,338L345,341L345,345L345,348L344,351L344,355L344,358L343,362L343,365L342,368L342,372L342,375L341,379L341,382L340,385L340,389L340,392L339,396L339,399L343,399L347,400L351,400L355,401L359,401L363,402L368,402L372,402L376,403L380,403L384,404L388,404L392,404L396,405L400,405L404,405L408,406L413,406L417,406L421,407L425,407L429,407L433,408L437,408L441,408L445,408L450,409L454,409L458,409L462,409L466,409L470,410L473,410L475,410L478,410L481,410L484,410L486,410L491,411L491,405Z" data-oid="3522" /><path data-fips="32" data-hasc="US.NV" data-iso="USA" d="M210,432L212,430L212,427L212,424L212,420L212,416L212,413L212,410L213,407L215,404L218,405L221,405L222,408L225,409L226,407L227,406L228,403L229,399L230,395L230,392L231,388L231,385L232,383L232,379L233,375L234,371L234,367L235,362L236,358L236,354L237,350L238,345L239,341L239,337L240,333L241,329L242,324L242,320L243,316L244,312L244,307L245,303L246,299L247,295L247,291L248,286L249,282L250,278L250,274L251,269L252,265L253,261L253,257L254,253L255,248L251,248L247,247L244,246L240,246L236,245L233,244L229,244L225,243L222,242L218,241L214,241L211,240L207,239L203,238L200,238L196,237L192,236L189,235L185,234L181,234L178,233L174,232L170,231L167,230L163,229L159,229L156,228L152,227L149,226L145,225L141,224L138,223L136,228L135,233L134,238L133,243L131,248L130,253L129,258L128,263L127,267L125,272L124,277L123,282L122,287L121,292L120,297L118,302L122,309L125,315L129,320L133,326L137,331L141,337L145,342L149,348L152,352L155,357L158,361L161,366L164,371L167,375L170,380L174,384L176,388L179,392L182,396L185,400L188,405L190,409L193,413L196,417L199,421L203,426L206,431L210,435L210,432Z" data-oid="3523" /><path data-fips="35" data-hasc="US.NM" data-iso="USA" d="M342,553L342,551L342,548L343,545L344,543L347,543L350,544L353,544L356,544L359,545L362,545L365,545L368,545L371,546L374,546L377,546L380,546L383,547L381,546L381,545L380,543L380,540L385,541L391,541L396,542L401,542L406,542L411,543L416,543L421,543L426,544L432,544L437,544L442,545L447,545L452,545L457,546L462,546L463,542L463,538L463,534L463,531L463,527L464,523L464,519L464,516L464,512L464,508L464,504L465,500L465,497L465,493L465,489L465,485L466,481L466,478L466,474L466,470L466,466L467,463L467,459L467,455L467,451L467,447L468,444L468,440L468,436L468,432L468,428L469,423L470,420L470,416L470,413L470,410L466,409L462,409L458,409L454,409L450,409L445,408L441,408L437,408L433,408L429,407L425,407L421,407L417,406L413,406L408,406L404,405L400,405L396,405L392,404L388,404L384,404L380,403L376,403L372,402L368,402L363,402L359,401L355,401L351,400L347,400L343,399L339,399L338,404L338,409L337,413L337,418L336,423L336,428L335,433L335,437L334,442L334,447L333,452L333,457L332,462L332,466L331,471L330,476L330,481L329,486L329,490L328,495L328,500L327,505L327,510L326,514L326,519L325,524L325,529L324,534L324,538L323,543L323,548L322,553L322,553L325,553L328,554L331,554L334,554L337,555L340,555L342,553Z" data-oid="3524" /><path data-fips="41" data-hasc="US.OR" data-iso="USA" d="M197,234L197,231L198,229L198,226L199,223L200,220L200,217L201,215L201,212L202,209L203,206L203,204L204,201L204,198L205,195L206,192L206,189L208,186L209,184L209,181L211,179L210,176L208,175L207,173L207,169L209,167L211,165L214,163L216,161L217,158L220,153L222,151L223,148L226,146L227,143L228,140L226,137L224,135L222,131L222,130L218,129L213,128L208,127L203,126L199,125L194,124L189,122L184,121L181,122L177,121L174,121L171,121L165,121L162,122L160,122L157,122L152,121L149,121L146,122L142,121L141,119L135,116L132,116L129,115L127,116L123,117L120,116L117,115L114,113L113,110L114,107L114,104L114,101L113,98L111,96L109,96L108,97L105,96L104,93L102,93L97,93L95,91L95,94L94,97L93,100L92,103L91,106L90,108L89,111L88,113L87,116L87,119L85,121L84,125L82,127L81,130L80,133L79,136L78,138L76,142L75,146L74,149L73,151L72,156L70,157L68,160L68,163L65,164L63,166L62,170L60,172L58,174L57,178L57,181L58,183L57,186L56,188L55,191L55,194L55,198L56,201L62,202L67,204L72,205L77,207L82,208L87,210L92,211L97,213L102,214L107,215L112,217L117,218L122,219L127,221L133,222L138,223L141,224L145,225L149,226L152,227L156,228L159,229L163,229L167,230L170,231L174,232L178,233L181,234L185,234L189,235L192,236L196,237L197,234Z" data-oid="3525" /><path data-fips="49" data-hasc="US.UT" data-iso="USA" d="M339,396L340,392L340,389L340,385L341,382L341,379L342,375L342,372L342,368L343,365L343,362L344,358L344,355L344,351L345,348L345,345L345,341L346,338L346,334L347,331L347,328L347,324L348,321L348,317L349,314L349,311L349,307L350,304L350,300L351,297L351,294L351,290L346,290L341,289L336,288L331,288L326,287L321,286L316,286L311,285L311,282L312,278L312,275L313,271L313,268L314,265L314,261L315,258L311,257L307,257L303,256L300,256L296,255L292,255L288,254L285,253L281,253L277,252L273,252L270,251L266,250L262,250L259,249L255,248L254,253L253,257L253,261L252,265L251,269L250,274L250,278L249,282L248,286L247,291L247,295L246,299L245,303L244,307L244,312L243,316L242,320L242,324L241,329L240,333L239,337L239,341L238,345L237,350L236,354L236,358L235,362L234,367L234,371L233,375L232,379L232,383L235,384L238,385L242,385L245,386L248,386L252,387L255,387L258,388L262,388L265,389L268,389L272,390L275,390L278,391L282,391L285,392L288,392L292,393L295,393L299,394L302,394L305,395L309,395L312,396L315,396L319,396L322,397L325,397L329,398L332,398L336,399L339,399L339,396Z" data-oid="3526" /><path data-fips="56" data-hasc="US.WY" data-iso="USA" d="M454,296L454,293L454,289L455,286L455,282L455,279L455,276L455,272L456,269L456,265L456,262L456,259L457,255L457,252L457,248L457,245L457,241L458,238L458,235L458,231L458,228L458,224L459,221L459,218L459,214L459,211L460,207L460,204L460,201L460,197L460,194L461,190L457,190L453,190L448,190L444,189L440,189L436,189L432,188L427,188L423,188L419,187L415,187L411,187L407,186L402,186L398,185L394,185L390,184L386,184L382,184L377,183L373,183L369,182L365,182L361,181L357,181L352,180L348,180L344,179L340,178L336,178L332,177L327,177L326,180L326,183L325,186L325,189L324,190L324,194L323,199L323,203L322,207L321,211L321,216L320,220L319,224L319,228L318,232L318,237L317,241L316,245L316,249L315,254L315,258L314,261L314,265L313,268L313,271L312,275L312,278L311,282L311,285L316,286L321,286L326,287L331,288L336,288L341,289L346,290L351,290L355,291L358,291L361,291L364,292L367,292L371,292L374,293L377,293L380,293L384,294L387,294L390,294L393,295L396,295L400,295L403,296L406,296L409,296L412,296L416,297L419,297L422,297L425,297L429,298L432,298L435,298L438,298L441,299L445,299L448,299L451,299L454,299L454,296Z" data-oid="3527" /><path data-fips="05" data-hasc="US.AR" data-iso="USA" d="M675,518L679,518L683,518L687,517L691,517L695,517L699,517L703,516L707,516L711,516L715,515L719,515L724,515L728,515L732,514L736,514L736,511L737,508L736,506L736,503L735,500L735,498L734,495L737,492L737,489L737,487L740,485L739,483L740,481L742,479L743,476L745,475L746,473L746,468L748,466L748,463L751,461L751,458L752,457L754,455L756,454L755,450L755,447L756,445L758,443L758,440L758,437L761,433L763,432L762,430L761,430L758,430L755,431L752,431L747,431L750,427L751,425L753,423L753,420L752,418L749,417L743,418L737,418L731,419L725,419L719,420L713,420L707,421L701,421L695,421L689,422L683,422L677,423L671,423L665,423L659,423L653,424L654,427L655,431L655,435L656,439L657,443L657,446L658,450L659,454L659,460L659,466L659,472L659,478L659,484L659,489L659,495L660,501L660,502L663,503L666,503L668,503L670,505L670,508L670,512L670,515L670,518L675,518Z" data-oid="3528" /><path data-fips="19" data-hasc="US.IA" data-iso="USA" d="M716,311L715,308L717,307L720,305L721,303L721,300L723,295L722,292L720,290L720,287L721,284L727,283L730,281L733,279L734,276L735,274L737,271L737,268L737,265L735,263L731,261L730,258L728,257L726,254L725,252L722,250L717,249L716,246L715,243L714,240L714,237L715,233L712,232L711,229L705,229L698,230L692,230L686,230L679,231L673,231L666,232L660,232L654,232L647,233L641,233L634,233L628,234L621,234L615,234L608,234L606,235L607,238L606,241L608,242L609,246L608,248L607,251L606,253L606,256L608,258L609,261L610,261L610,265L612,267L612,270L613,272L615,275L616,278L618,280L617,283L617,287L619,289L621,291L622,294L621,296L622,299L622,302L623,304L623,308L623,310L625,313L625,313L629,313L633,313L638,313L642,313L647,313L651,313L656,312L661,312L666,312L670,311L675,311L680,311L684,310L688,310L692,310L695,309L700,309L704,308L708,308L710,310L712,312L715,314L716,311Z" data-oid="3529" /><path data-fips="20" data-hasc="US.KS" data-iso="USA" d="M572,412L577,412L582,412L587,412L592,412L597,412L602,412L607,412L612,411L618,411L623,411L628,411L633,411L638,411L643,411L648,410L653,410L653,407L652,403L652,400L652,396L652,393L652,389L652,386L652,382L651,379L651,375L651,372L651,368L651,365L651,361L650,358L650,354L649,351L646,350L645,348L643,345L641,343L640,340L641,337L644,336L644,333L642,331L639,332L637,330L635,329L630,329L626,329L621,329L617,329L613,330L608,330L604,330L600,330L595,330L591,330L586,330L582,330L578,330L573,330L569,330L564,330L560,330L556,330L551,330L547,330L543,330L538,330L534,330L529,330L525,330L521,330L516,329L512,329L508,329L503,329L499,329L494,329L494,334L493,339L493,344L493,349L493,354L493,359L493,365L492,370L492,375L492,380L492,385L492,390L492,395L491,400L491,405L491,411L497,411L502,411L507,411L512,411L517,411L522,412L527,412L532,412L537,412L542,412L547,412L552,412L557,412L562,412L567,412L572,412Z" data-oid="3530" /><path data-fips="29" data-hasc="US.MO" data-iso="USA" d="M752,431L755,431L758,430L761,430L762,430L762,429L764,426L762,423L764,422L763,420L765,418L764,416L765,416L767,416L767,415L768,412L770,413L772,410L773,408L772,405L772,402L771,402L769,402L766,400L765,397L763,395L764,392L763,389L762,386L762,384L759,382L757,380L754,379L751,377L749,376L746,374L744,372L742,370L742,367L743,365L744,362L745,358L745,355L744,352L741,351L738,351L734,352L733,349L732,346L732,344L730,342L723,336L718,332L717,329L716,327L714,324L713,317L715,314L712,312L710,310L708,308L704,308L700,309L695,309L692,310L688,310L684,310L680,311L675,311L670,311L666,312L661,312L656,312L651,313L647,313L642,313L638,313L633,313L629,313L625,313L625,313L625,314L626,316L627,318L628,321L631,322L632,325L632,327L635,329L637,330L639,332L642,331L644,333L644,336L641,337L640,340L641,343L643,345L645,348L646,350L649,351L650,354L650,358L651,361L651,365L651,368L651,372L651,375L651,379L652,382L652,386L652,389L652,393L652,396L652,400L652,403L653,407L653,410L653,413L653,417L653,420L653,424L659,423L665,423L671,423L677,423L683,422L689,422L695,421L701,421L707,421L713,420L719,420L725,419L731,419L737,418L743,418L749,417L752,418L753,420L753,423L751,425L750,427L747,431L752,431Z" data-oid="3531" /><path data-fips="31" data-hasc="US.NE" data-iso="USA" d="M569,330L573,330L578,330L582,330L586,330L591,330L595,330L600,330L604,330L608,330L613,330L617,329L621,329L626,329L630,329L635,329L632,327L632,325L631,322L628,321L627,318L626,316L625,314L625,313L623,310L623,308L623,304L622,302L622,299L621,296L622,294L621,291L619,289L617,287L617,283L618,280L616,278L615,275L613,272L612,270L612,267L610,265L610,261L609,261L605,259L603,257L601,255L597,254L595,253L592,251L586,252L583,252L580,252L578,254L576,253L571,250L566,248L563,248L560,248L556,248L553,248L549,248L546,248L543,248L539,248L536,248L532,248L529,248L526,248L522,248L519,248L515,248L512,247L509,247L505,247L502,247L498,247L495,247L492,247L488,247L485,246L481,246L478,246L475,246L471,246L468,246L464,245L461,245L457,245L457,248L457,252L457,255L456,259L456,262L456,265L456,269L455,272L455,276L455,279L455,282L455,286L454,289L454,293L454,296L454,299L457,300L462,300L467,300L472,300L476,301L481,301L486,301L491,301L495,301L495,305L495,308L494,312L494,315L494,319L494,322L494,325L494,329L499,329L503,329L508,329L512,329L516,329L521,330L525,330L529,330L534,330L538,330L543,330L547,330L551,330L556,330L560,330L564,330L569,330Z" data-oid="3532" /><path data-fips="40" data-hasc="US.OK" data-iso="USA" d="M659,495L659,489L659,484L659,478L659,472L659,466L659,460L659,454L658,450L657,446L657,443L656,439L655,435L655,431L654,427L653,424L653,420L653,417L653,413L653,410L648,410L643,411L638,411L633,411L628,411L623,411L618,411L612,411L607,412L602,412L597,412L592,412L587,412L582,412L577,412L572,412L567,412L562,412L557,412L552,412L547,412L542,412L537,412L532,412L527,412L522,412L517,411L512,411L507,411L502,411L497,411L491,411L486,410L484,410L481,410L478,410L475,410L473,410L470,410L470,413L470,416L470,420L469,423L472,423L475,424L479,424L484,424L490,424L496,424L502,425L508,425L513,425L519,425L524,425L528,425L531,425L535,427L535,430L535,433L535,436L535,439L535,442L535,445L535,448L535,452L535,455L535,458L535,461L535,464L535,467L535,470L535,473L535,478L537,478L542,483L544,483L547,483L549,481L551,483L552,486L555,488L557,488L560,489L563,490L567,490L570,492L572,490L575,490L577,490L578,493L581,494L581,497L584,497L589,494L591,496L592,498L595,497L598,497L598,499L600,499L602,497L604,495L606,497L609,497L611,497L614,499L616,500L619,500L621,498L624,497L627,496L630,497L632,495L635,495L638,496L641,495L643,493L646,495L649,497L651,499L654,500L657,501L660,501L659,495Z" data-oid="3533" /><path data-fips="46" data-hasc="US.SD" data-iso="USA" d="M608,258L606,256L606,253L607,251L608,248L609,246L608,242L606,241L607,238L606,235L608,234L608,228L608,222L608,216L608,210L608,204L608,198L607,192L607,186L606,184L603,182L601,179L599,177L601,174L603,173L604,170L605,168L600,168L596,168L592,168L587,168L583,168L578,168L574,168L569,168L565,168L561,168L556,168L552,168L547,168L543,168L538,168L534,168L530,168L525,168L521,167L516,167L512,167L507,167L503,167L499,167L494,166L490,166L485,166L481,166L476,166L472,165L468,165L463,165L462,168L462,171L462,174L462,177L462,180L461,183L461,185L461,189L461,190L460,194L460,197L460,201L460,204L460,207L459,211L459,214L459,218L459,221L458,224L458,228L458,231L458,235L458,238L457,241L457,245L461,245L464,245L468,246L471,246L475,246L478,246L481,246L485,246L488,247L492,247L495,247L498,247L502,247L505,247L509,247L512,247L515,248L519,248L522,248L526,248L529,248L532,248L536,248L539,248L543,248L546,248L549,248L553,248L556,248L560,248L563,248L566,248L571,250L576,253L578,254L580,252L583,252L586,252L592,251L595,253L597,254L601,255L603,257L605,259L609,261L608,258Z" data-oid="3534" /><path data-fips="22" data-hasc="US.LA" data-iso="USA" d="M756,620L756,620L754,621L756,620Z M768,607L768,607L771,608L768,607Z M728,611L730,608L727,608L725,607L723,609L725,610L728,611L728,611Z M798,593L797,590L798,593L798,596L798,593Z M788,589L787,589L785,591L788,589Z M788,618L790,616L792,617L794,616L795,613L792,611L790,610L788,609L785,609L782,608L781,606L778,605L776,603L779,603L777,601L780,602L783,602L781,599L782,597L785,597L785,595L782,593L784,591L781,592L780,594L778,596L777,594L774,594L774,592L777,591L775,588L774,590L771,591L769,592L766,593L763,592L760,591L760,588L762,586L764,583L767,584L769,586L772,586L775,587L778,588L780,587L779,587L777,583L776,580L774,578L772,576L772,573L773,571L774,567L771,566L768,566L765,566L762,567L758,567L755,567L751,568L747,568L743,568L740,569L736,569L732,569L729,569L730,567L729,564L729,562L731,561L732,558L731,555L733,552L733,549L734,546L737,544L738,542L740,540L740,537L742,536L743,532L741,530L739,529L738,526L737,523L739,521L737,519L738,516L736,514L732,514L728,515L724,515L719,515L715,515L711,516L707,516L703,516L699,517L695,517L691,517L687,517L683,518L679,518L675,518L670,518L671,521L671,525L671,528L671,531L671,534L671,537L671,541L672,544L673,548L675,549L677,551L677,554L677,557L679,559L680,561L681,564L683,567L684,569L684,572L684,575L684,577L683,581L682,583L681,586L681,588L681,592L682,594L682,598L680,600L681,602L678,606L680,608L682,606L685,606L687,606L690,605L694,605L698,606L704,608L706,609L712,610L717,610L719,609L722,607L720,605L718,604L721,604L723,602L726,602L728,604L732,604L733,607L734,609L737,609L740,610L742,607L741,610L742,612L743,615L741,613L740,615L742,617L747,617L749,618L753,619L755,618L757,616L759,614L761,612L763,613L765,616L766,619L768,617L769,615L770,612L770,609L767,608L766,605L769,606L771,608L774,607L776,609L775,612L781,613L784,613L786,617L789,615L787,618L787,621L788,618Z" data-oid="3535" /><path data-fips="48" data-hasc="US.TX" data-iso="USA" d="M601,708L601,706L601,708L601,708Z M600,703L601,705L601,706L600,703Z M600,702L599,699L597,691L596,686L596,678L595,681L595,684L595,689L597,692L598,695L599,698L600,702L600,703L600,702Z M597,674L598,670L600,666L603,662L601,664L598,669L597,671L596,674L596,677L597,674Z M604,660L606,657L607,654L606,657L604,660L604,660Z M611,652L614,650L616,649L619,647L618,647L616,648L613,650L609,652L609,654L611,652Z M654,622L656,619L655,620L653,622L650,625L654,622Z M597,713L599,712L602,712L601,709L599,711L600,708L598,706L597,704L596,701L594,699L595,697L594,693L593,690L593,687L591,685L593,682L594,680L592,677L590,677L588,675L587,673L590,675L593,674L593,676L595,674L597,670L598,667L598,665L596,664L594,660L598,660L600,661L603,657L603,654L601,656L600,653L603,652L606,653L607,650L608,653L609,649L609,646L610,644L611,646L613,648L617,646L618,643L616,641L614,639L613,637L615,639L617,641L619,639L619,637L621,639L624,638L625,640L628,640L624,643L627,641L631,639L633,637L630,637L635,636L638,635L641,633L644,632L646,629L648,627L648,624L651,623L654,620L655,617L654,615L652,612L652,609L654,610L656,607L658,608L658,610L658,613L662,614L660,615L658,618L660,616L668,612L670,611L675,609L678,607L676,604L680,600L682,598L682,594L681,592L681,588L681,586L682,583L683,581L684,577L684,575L684,572L684,569L683,567L681,564L680,561L679,559L677,557L677,554L677,551L675,549L673,548L672,544L671,541L671,537L671,534L671,531L671,528L671,525L671,521L670,518L670,515L670,512L670,508L670,505L668,503L666,503L663,503L660,502L660,501L657,501L654,500L651,499L649,497L646,495L643,493L641,495L638,496L635,495L632,495L630,497L627,496L624,497L621,498L619,500L616,500L614,499L611,497L609,497L606,497L604,495L602,497L600,499L598,499L598,497L595,497L592,498L591,496L589,494L584,497L581,497L581,494L578,493L577,490L575,490L572,490L570,492L567,490L563,490L560,489L557,488L555,488L552,486L551,483L549,481L547,483L544,483L542,483L537,478L535,478L535,473L535,470L535,467L535,464L535,461L535,458L535,455L535,452L535,448L535,445L535,442L535,439L535,436L535,433L535,430L535,427L531,425L528,425L524,425L519,425L513,425L508,425L502,425L496,424L490,424L484,424L479,424L475,424L472,423L469,423L468,428L468,432L468,436L468,440L468,444L467,447L467,451L467,455L467,459L467,463L466,466L466,470L466,474L466,478L466,481L465,485L465,489L465,493L465,497L465,500L464,504L464,508L464,512L464,516L464,519L464,523L463,527L463,531L463,534L463,538L463,542L462,546L457,546L452,545L447,545L442,545L437,544L432,544L426,544L421,543L416,543L411,543L406,542L401,542L396,542L391,541L385,541L380,540L380,543L381,545L381,546L383,547L384,547L386,550L387,553L389,556L392,557L395,559L396,561L398,564L401,566L403,568L404,571L408,574L410,575L412,577L412,577L415,579L417,581L418,584L418,586L420,589L421,591L422,594L421,597L422,600L423,603L424,605L425,608L427,610L431,612L433,614L435,616L437,618L440,619L442,620L445,622L448,623L449,625L452,626L455,627L458,627L459,625L461,622L463,621L464,618L465,618L465,615L466,612L468,610L470,608L473,607L476,607L477,605L480,605L483,607L487,607L490,607L495,608L498,607L500,609L502,612L503,614L506,616L508,619L511,620L513,622L514,625L517,627L517,630L518,633L520,635L522,639L523,642L524,644L525,647L526,650L528,651L531,654L532,656L534,658L535,661L537,663L538,665L541,667L543,668L544,670L545,673L544,675L544,676L546,678L545,681L546,684L548,686L550,688L551,691L552,695L554,697L554,700L557,701L560,701L561,701L563,703L565,705L569,705L572,706L573,708L577,710L581,710L584,710L587,710L590,711L592,712L594,714L597,713Z" data-oid="3536" /><path data-fips="09" data-hasc="US.CT" data-iso="USA" d="M1071,230L1073,229L1075,227L1077,225L1080,223L1082,221L1084,220L1087,219L1089,217L1092,216L1093,214L1095,216L1098,213L1100,212L1103,212L1103,209L1102,206L1101,202L1100,199L1099,196L1098,193L1098,193L1096,194L1093,195L1090,195L1087,196L1084,197L1082,198L1080,199L1079,199L1078,199L1075,200L1070,201L1066,202L1066,203L1067,207L1068,211L1069,215L1069,218L1070,222L1072,225L1070,227L1069,229L1071,231L1071,230Z" data-oid="3537" /><path data-fips="33" data-hasc="US.NH" data-iso="USA" d="M1080,178L1082,178L1085,177L1088,176L1090,175L1092,175L1093,175L1096,174L1098,173L1100,173L1102,172L1102,172L1102,171L1103,170L1103,170L1103,169L1104,168L1104,168L1104,168L1105,168L1105,167L1106,166L1107,165L1108,165L1109,165L1109,162L1109,159L1108,158L1106,155L1104,154L1102,152L1101,149L1100,146L1099,144L1098,141L1097,138L1096,135L1095,133L1094,130L1093,127L1091,124L1090,122L1089,119L1088,116L1087,113L1086,111L1085,108L1084,105L1083,102L1081,104L1078,104L1078,107L1078,110L1078,112L1078,114L1078,117L1078,121L1080,123L1080,126L1079,129L1077,132L1075,133L1075,136L1076,141L1076,143L1075,146L1075,149L1074,152L1075,154L1074,157L1076,163L1076,166L1077,168L1077,171L1077,174L1078,177L1080,178L1080,178Z" data-oid="3538" /><path data-fips="44" data-hasc="US.RI" data-iso="USA" d="M1111,205L1110,202L1111,205L1111,205Z M1115,201L1114,200L1114,200L1114,200L1114,199L1114,198L1113,198L1113,200L1115,202L1115,201Z M1113,203L1113,203L1112,200L1111,203L1111,205L1113,203Z M1109,197L1110,197L1110,197L1109,197Z M1105,211L1110,208L1110,205L1109,201L1109,199L1108,196L1109,197L1109,197L1109,196L1109,196L1108,195L1108,194L1108,194L1108,194L1107,194L1107,194L1106,192L1106,191L1105,191L1102,192L1100,193L1098,193L1099,196L1100,199L1101,202L1102,206L1103,209L1103,212L1105,211Z" data-oid="3539" /><path data-fips="50" data-hasc="US.VT" data-iso="USA" d="M1066,182L1068,181L1070,181L1072,180L1074,180L1077,179L1079,179L1080,178L1078,177L1077,174L1077,171L1077,168L1076,166L1076,163L1074,157L1075,154L1074,152L1075,149L1075,146L1076,143L1076,141L1075,136L1075,133L1077,132L1079,129L1080,126L1080,123L1078,121L1078,117L1078,114L1078,112L1076,113L1072,114L1069,115L1065,117L1062,118L1058,119L1054,120L1051,121L1047,122L1044,123L1045,125L1045,127L1047,130L1047,133L1048,135L1050,138L1050,141L1051,143L1051,146L1050,149L1052,151L1053,154L1054,157L1055,161L1057,160L1058,162L1059,164L1060,167L1061,170L1062,174L1063,176L1063,180L1065,182L1066,182Z" data-oid="3540" /><path data-fips="01" data-hasc="US.AL" data-iso="USA" d="M814,582L812,582L809,583L814,582Z M818,582L821,582L824,581L826,579L828,577L829,574L829,574L829,571L828,569L825,566L823,563L824,560L828,560L832,559L836,559L839,558L843,558L847,558L850,557L854,557L858,556L861,556L865,555L869,555L872,554L876,554L880,553L883,552L883,550L881,548L880,545L880,542L880,539L880,536L879,534L877,530L878,527L878,524L879,521L881,519L879,517L879,514L879,513L878,511L875,508L875,506L873,503L872,500L871,497L870,494L869,491L868,487L867,483L865,478L864,475L863,470L861,465L860,461L858,456L857,453L856,450L855,446L852,447L848,447L845,448L841,448L838,449L834,449L831,450L827,450L824,450L820,451L817,451L813,451L810,452L806,452L803,453L798,453L801,456L801,459L801,462L801,467L801,470L801,473L801,476L801,479L801,483L801,486L801,490L801,494L801,498L801,502L801,505L801,509L801,513L801,516L800,520L800,523L800,526L800,531L800,535L800,539L801,544L802,549L802,554L803,559L804,564L805,569L805,574L806,579L809,579L811,580L813,578L813,574L814,571L814,569L816,571L817,574L817,577L820,578L821,581L818,582L815,583L818,582Z" data-oid="3541" /><path data-fips="12" data-hasc="US.FL" data-iso="USA" d="M990,711L989,710L988,713L990,711Z M1013,696L1015,694L1017,691L1017,689L1018,686L1016,688L1016,691L1015,694L1013,696L1012,698L1013,696Z M968,661L966,658L968,660L969,663L968,661Z M1006,625L1005,623L1003,620L1005,623L1006,625L1009,631L1012,636L1006,625Z M995,603L996,601L994,601L993,604L996,608L995,603Z M886,588L886,588L883,589L886,588Z M889,590L891,588L893,587L889,590L886,590L889,590Z M849,574L850,574L846,574L843,575L840,576L837,576L834,578L849,574Z M1002,695L1005,693L1008,693L1010,692L1013,691L1015,691L1015,688L1016,685L1016,682L1016,679L1017,676L1018,674L1019,671L1020,674L1019,664L1018,659L1018,656L1018,651L1018,648L1017,645L1016,641L1014,639L1012,637L1009,635L1012,636L1007,628L1005,624L994,608L993,605L992,602L990,599L990,596L992,598L992,600L996,600L997,602L996,606L997,611L999,614L1000,616L1002,618L999,613L998,610L997,608L998,604L997,601L993,597L991,595L986,588L983,585L981,581L979,578L977,574L975,571L974,567L973,564L971,560L969,556L969,553L967,551L965,547L965,547L962,547L959,546L956,546L954,547L953,550L954,552L954,555L953,559L951,559L950,556L948,554L945,554L942,555L938,555L933,556L928,556L923,557L921,557L918,557L915,557L913,557L908,558L903,558L899,559L895,559L892,559L889,559L886,559L885,555L883,552L880,553L876,554L872,554L869,555L865,555L861,556L858,556L854,557L850,557L847,558L843,558L839,558L836,559L832,559L828,560L824,560L823,563L825,566L828,569L829,571L829,574L829,574L830,576L828,579L833,577L835,575L836,572L837,574L838,571L840,573L837,575L835,577L838,575L844,574L846,573L849,572L851,570L853,571L855,570L859,570L860,573L857,573L854,573L851,574L854,574L858,574L861,575L866,577L869,576L866,575L869,574L872,575L870,577L872,578L875,578L876,580L873,580L875,582L879,584L881,586L880,589L878,586L880,589L882,589L886,587L889,586L892,586L894,584L897,582L899,580L902,580L901,578L903,575L906,574L908,574L911,574L914,575L917,576L920,578L921,581L924,582L926,584L927,587L931,589L933,591L935,593L936,595L939,594L942,594L943,597L944,599L947,601L947,605L947,608L948,611L947,615L947,618L946,621L947,624L945,628L946,631L949,633L948,631L951,633L952,631L951,628L949,627L951,625L953,627L955,629L956,626L957,629L955,631L954,634L953,637L953,638L951,640L954,641L955,643L956,646L958,648L961,652L964,655L967,655L965,652L964,650L967,651L970,650L967,652L969,654L969,659L970,662L972,661L975,658L973,661L972,663L974,663L975,666L977,669L978,671L979,674L981,677L984,677L986,677L989,678L990,680L993,682L994,685L996,688L998,690L1001,690L1002,693L999,692L996,691L997,694L999,696L1002,695Z" data-oid="3542" /><path data-fips="13" data-hasc="US.GA" data-iso="USA" d="M966,543L966,540L965,544L966,546L966,543Z M892,559L895,559L899,559L903,558L908,558L913,557L915,557L918,557L921,557L923,557L928,556L933,556L938,555L942,555L945,554L948,554L950,556L951,559L953,559L954,555L954,552L953,550L954,547L956,546L959,546L962,547L965,547L965,547L965,544L965,542L965,539L963,537L966,538L964,535L966,534L968,532L966,530L964,529L967,529L968,527L968,523L966,523L967,521L969,522L970,519L968,518L970,517L970,513L972,511L973,509L973,509L970,508L967,506L966,504L966,501L963,497L961,496L959,494L958,492L957,489L955,485L953,483L949,482L947,480L946,478L944,477L943,474L940,472L938,471L936,469L934,467L932,466L929,464L926,463L925,460L922,458L921,456L920,453L918,451L915,451L912,449L909,448L906,446L907,443L908,440L910,437L907,438L904,439L900,439L897,440L894,440L890,441L887,442L884,442L882,442L877,443L874,444L872,444L869,444L866,445L863,445L861,446L855,446L856,450L857,453L858,456L860,461L861,465L863,470L864,475L865,478L867,483L868,487L869,491L870,494L871,497L872,500L873,503L875,506L875,508L878,511L879,513L879,514L879,517L881,519L879,521L878,524L878,527L877,530L879,534L880,536L880,539L880,542L880,545L881,548L883,550L883,552L885,555L886,559L889,559L892,559Z" data-oid="3543" /><path data-fips="28" data-hasc="US.MS" data-iso="USA" d="M801,584L798,584L803,584L801,584Z M783,585L784,582L787,583L790,582L793,579L796,579L799,581L802,579L804,581L806,579L805,574L805,569L804,564L803,559L802,554L802,549L801,544L800,539L800,535L800,531L800,526L800,523L800,520L801,516L801,513L801,509L801,505L801,502L801,498L801,494L801,490L801,486L801,483L801,479L801,476L801,473L801,470L801,467L801,462L801,459L801,456L798,453L797,454L795,454L792,454L789,454L786,455L783,455L780,455L777,456L774,456L771,456L769,457L766,457L763,457L760,457L757,458L754,458L751,458L751,461L748,463L748,466L746,468L746,473L745,475L743,476L742,479L740,481L739,483L740,485L737,487L737,489L737,492L734,495L735,498L735,500L736,503L736,506L737,508L736,511L736,514L738,516L737,519L739,521L737,523L738,526L739,529L741,530L743,532L742,536L740,537L740,540L738,542L737,544L734,546L733,549L733,552L731,555L732,558L731,561L729,562L729,564L730,567L729,569L732,569L736,569L740,569L743,568L747,568L751,568L755,567L758,567L762,567L765,566L768,566L771,566L774,567L773,571L772,573L772,576L774,578L776,580L777,583L779,587L780,587L781,587L783,585Z" data-oid="3544" /><path data-fips="45" data-hasc="US.SC" data-iso="USA" d="M973,509L973,508L974,505L975,502L976,505L977,502L974,500L973,498L972,495L973,497L975,499L978,498L980,500L982,497L979,498L981,496L979,494L976,494L979,493L982,494L984,493L985,490L988,490L991,488L993,486L991,484L992,482L994,484L996,481L997,479L998,476L1001,476L1003,473L1005,471L1005,468L1004,467L1005,468L1006,463L1007,460L1010,454L1012,452L1015,448L1014,447L1010,444L1007,442L1003,440L1000,437L996,435L993,433L989,430L986,428L983,429L980,429L976,430L972,431L968,432L965,432L962,432L960,428L957,426L955,427L954,425L950,426L947,426L943,427L939,427L935,428L932,428L929,428L926,429L924,430L922,431L919,433L917,434L910,437L908,440L907,443L906,446L909,448L912,449L915,451L918,451L920,453L921,456L922,458L925,460L926,463L929,464L932,466L934,467L936,469L938,471L940,472L943,474L944,477L946,478L947,480L949,482L953,483L955,485L957,489L958,492L959,494L961,496L963,497L966,501L966,504L967,506L970,508L973,509L973,509Z M1004,467L1003,467L1003,467L1004,467Z M1003,467L1003,466L1004,463L1003,467Z" data-oid="3545" /><path data-fips="17" data-hasc="US.IL" data-iso="USA" d="M772,402L771,400L772,398L773,395L776,395L782,397L785,398L787,396L785,393L784,390L786,388L788,387L793,385L792,383L791,380L793,377L793,376L792,373L793,370L794,367L793,365L794,363L796,361L797,358L799,357L799,354L801,351L801,348L800,345L799,343L797,340L798,338L797,335L799,332L798,328L798,324L797,320L797,316L796,312L796,309L795,305L795,301L794,297L794,293L793,289L793,285L792,281L792,277L791,273L791,268L794,268L797,267L797,265L797,263L797,258L797,255L798,250L798,247L794,247L790,248L786,248L783,249L779,249L776,250L772,250L768,250L765,251L761,251L758,251L754,252L751,252L747,253L744,253L740,253L737,253L733,254L729,254L726,254L728,257L730,258L731,261L735,263L737,265L737,268L737,271L735,274L734,276L733,279L730,281L727,283L721,284L720,287L720,290L722,292L723,295L721,300L721,303L720,305L717,307L715,308L716,311L715,314L713,317L714,324L716,327L717,329L718,332L723,336L730,342L732,344L732,346L733,349L734,352L738,351L741,351L744,352L745,355L745,358L744,362L743,365L742,367L742,370L744,372L746,374L749,376L751,377L754,379L757,380L759,382L762,384L762,386L763,389L764,392L763,395L765,397L766,400L769,402L771,402L772,402Z" data-oid="3546" /><path data-fips="18" data-hasc="US.IN" data-iso="USA" d="M797,374L800,373L802,374L802,371L805,372L808,372L811,373L813,375L814,372L816,370L818,368L820,371L823,371L825,369L825,366L827,364L829,363L830,365L833,366L836,366L837,364L838,360L840,358L842,355L843,352L845,351L845,348L845,344L849,343L851,344L855,341L858,341L858,338L857,335L856,332L856,328L855,324L854,319L854,315L853,310L852,306L852,302L851,297L850,293L850,288L849,284L848,279L848,275L847,271L846,266L846,262L844,261L841,261L838,261L835,262L831,262L828,263L825,263L822,264L819,264L816,265L813,265L810,266L807,266L803,266L800,267L797,267L794,268L791,268L791,273L792,277L792,281L793,285L793,289L794,293L794,297L795,301L795,305L796,309L796,312L797,316L797,320L798,324L798,328L799,332L797,335L798,338L797,340L799,343L800,345L801,348L801,351L799,354L799,357L797,358L796,361L794,363L793,365L794,367L793,370L792,373L793,376L793,377L795,377L797,374Z" data-oid="3547" /><path data-fips="21" data-hasc="US.KY" data-iso="USA" d="M771,415L774,415L778,414L782,414L786,414L789,413L793,413L797,410L797,407L800,407L803,408L806,407L810,407L815,406L820,405L824,405L828,404L831,404L833,403L836,403L839,403L844,403L849,402L853,402L860,400L865,400L871,399L875,399L880,398L884,398L888,397L891,396L892,395L894,394L897,393L900,391L902,389L904,387L907,385L907,383L910,381L910,378L913,376L916,373L918,371L921,367L923,364L922,364L918,363L916,362L914,359L912,356L910,354L908,352L906,350L907,347L906,344L905,342L902,340L899,338L897,335L895,337L894,339L891,340L888,339L886,339L883,340L880,341L878,339L876,338L873,339L869,336L868,334L865,332L863,331L860,332L859,331L856,332L857,335L858,338L858,341L855,341L851,344L849,343L845,344L845,348L845,351L843,352L842,355L840,358L838,360L837,364L836,366L833,366L830,365L829,363L827,364L825,366L825,369L823,371L820,371L818,368L816,370L814,372L813,375L811,373L808,372L805,372L802,371L802,374L800,373L797,374L795,377L793,377L791,380L792,383L793,385L788,387L786,388L784,390L785,393L787,396L785,398L782,397L776,395L773,395L772,398L771,400L772,402L772,405L773,408L772,410L770,413L768,412L767,415L767,416L771,415Z" data-oid="3548" /><path data-fips="37" data-hasc="US.NC" data-iso="USA" d="M1030,436L1030,436L1030,439L1030,436Z M1036,427L1038,425L1037,426L1034,430L1036,427Z M1055,417L1053,417L1055,417L1055,417Z M1049,417L1052,416L1051,416L1047,417L1043,420L1049,417Z M1058,412L1059,410L1061,407L1059,409L1057,412L1056,418L1058,412Z M1066,400L1068,398L1066,400L1064,403L1066,400Z M1073,396L1073,395L1073,393L1073,386L1071,383L1072,386L1073,389L1073,391L1073,395L1070,397L1073,396Z M1067,380L1065,378L1067,380L1067,380Z M1068,378L1063,373L1061,368L1060,366L1058,362L1057,362L1058,363L1059,366L1060,369L1062,371L1063,374L1065,376L1068,378L1070,381L1068,378Z M1055,363L1056,363L1054,363L1055,363Z M1057,362L1056,363L1056,363L1057,362Z M1018,447L1021,446L1025,445L1028,445L1028,442L1028,439L1030,441L1029,437L1031,434L1032,430L1035,427L1038,424L1036,422L1037,420L1037,423L1040,423L1041,420L1044,419L1047,416L1051,414L1053,416L1053,413L1055,414L1056,412L1058,410L1059,407L1057,408L1054,407L1054,409L1051,409L1049,411L1047,410L1044,409L1041,406L1044,408L1047,409L1050,407L1052,405L1050,403L1052,402L1052,399L1048,399L1044,398L1040,396L1043,397L1046,397L1049,396L1049,393L1051,393L1050,395L1052,396L1054,395L1057,396L1060,395L1061,393L1062,390L1063,387L1066,388L1065,385L1065,383L1065,380L1062,377L1062,380L1059,381L1059,386L1058,384L1058,381L1057,378L1054,379L1051,381L1048,381L1046,382L1043,381L1042,379L1041,376L1041,373L1042,375L1043,378L1046,380L1048,379L1049,376L1047,375L1050,376L1053,376L1051,374L1054,375L1054,372L1052,371L1055,372L1058,372L1057,369L1059,371L1061,373L1059,369L1057,367L1056,366L1054,363L1053,363L1049,364L1047,365L1044,366L1041,366L1038,367L1036,368L1033,368L1030,369L1028,370L1025,370L1023,371L1020,372L1017,372L1015,373L1011,374L1008,375L1005,375L1002,376L998,377L995,378L992,378L986,380L981,381L978,381L973,382L968,383L965,384L962,384L959,385L956,385L953,386L950,386L947,387L944,387L941,388L937,388L934,388L934,390L934,393L932,396L930,398L928,403L926,403L923,403L921,405L920,408L917,409L915,408L913,410L911,411L911,414L909,416L907,417L904,418L902,420L900,422L898,424L895,424L892,426L890,428L889,431L888,433L886,434L883,436L884,440L884,442L887,442L890,441L894,440L897,440L900,439L904,439L907,438L910,437L917,434L919,433L922,431L924,430L926,429L929,428L932,428L935,428L939,427L943,427L947,426L950,426L954,425L955,427L957,426L960,428L962,432L965,432L968,432L972,431L976,430L980,429L983,429L986,428L989,430L993,433L996,435L1000,437L1003,440L1007,442L1010,444L1014,447L1015,448L1018,447Z" data-oid="3549" /><path data-fips="39" data-hasc="US.OH" data-iso="USA" d="M909,342L911,340L912,337L913,335L912,332L913,329L914,326L917,325L919,327L920,325L920,321L920,319L921,316L923,314L926,312L928,312L930,310L932,307L934,305L935,302L935,299L935,296L936,293L936,291L936,288L937,285L936,282L936,279L934,276L937,275L936,272L936,269L935,266L935,263L934,260L933,258L933,255L932,252L932,249L931,246L930,244L930,241L929,238L929,235L928,232L927,229L925,230L923,231L920,233L918,234L916,235L913,236L911,238L908,240L906,243L903,245L901,247L898,250L896,252L893,255L887,255L884,254L880,252L878,250L872,256L869,257L866,258L862,259L859,259L856,260L852,261L849,261L846,262L846,266L847,271L848,275L848,279L849,284L850,288L850,293L851,297L852,302L852,306L853,310L854,315L854,319L855,324L856,328L856,332L859,331L860,332L863,331L865,332L868,334L869,336L873,339L876,338L878,339L880,341L883,340L886,339L888,339L891,340L894,339L895,337L897,335L899,338L902,340L905,342L906,343L907,343L909,342Z" data-oid="3550" /><path data-fips="47" data-hasc="US.TN" data-iso="USA" d="M754,458L757,458L760,457L763,457L766,457L769,457L771,456L774,456L777,456L780,455L783,455L786,455L789,454L792,454L795,454L797,454L798,453L803,453L806,452L810,452L813,451L817,451L820,451L824,450L827,450L831,450L834,449L838,449L841,448L845,448L848,447L852,447L855,446L861,446L863,445L866,445L869,444L872,444L874,444L877,443L882,442L884,442L884,440L883,436L886,434L888,433L889,431L890,428L892,426L895,424L898,424L900,422L902,420L904,418L907,417L909,416L911,414L911,411L913,410L915,408L917,409L920,408L921,405L923,403L926,403L928,403L930,398L932,396L934,393L934,390L934,388L930,389L927,390L923,391L918,391L914,392L909,393L905,394L900,395L896,395L891,396L888,397L884,398L880,398L875,399L871,399L865,400L860,400L853,402L849,402L844,403L839,403L836,403L833,403L831,404L828,404L824,405L820,405L815,406L810,407L806,407L803,408L800,407L797,407L797,410L793,413L789,413L786,414L782,414L778,414L774,415L771,415L767,416L765,416L764,416L765,418L763,420L764,422L762,423L764,426L762,429L762,430L763,432L761,433L758,437L758,440L758,443L756,445L755,447L755,450L756,454L754,455L752,457L751,458L754,458Z" data-oid="3551" /><path data-fips="51" data-hasc="US.VA" data-iso="USA" d="M1057,362L1056,362L1056,363L1057,362Z M1053,343L1053,339L1053,337L1056,335L1056,332L1056,330L1058,323L1057,323L1058,320L1057,320L1055,321L1053,323L1052,324L1052,327L1051,329L1051,332L1049,334L1049,337L1050,340L1050,342L1050,345L1053,346L1053,343Z M1060,322L1061,319L1060,319L1060,319L1060,321L1060,323L1060,322Z M896,395L900,395L905,394L909,393L914,392L918,391L923,391L927,390L930,389L934,388L937,388L941,388L944,387L947,387L950,386L953,386L956,385L959,385L962,384L965,384L968,383L973,382L978,381L981,381L986,380L992,378L995,378L998,377L1002,376L1005,375L1008,375L1011,374L1015,373L1017,372L1020,372L1023,371L1025,370L1028,370L1030,369L1033,368L1036,368L1038,367L1041,366L1044,366L1047,365L1049,364L1053,363L1054,363L1054,363L1055,363L1055,361L1055,359L1057,362L1058,362L1057,361L1054,356L1052,353L1050,354L1047,353L1045,356L1042,356L1040,354L1038,353L1036,349L1034,350L1030,350L1027,349L1024,348L1026,348L1029,348L1032,348L1035,349L1038,350L1040,351L1043,354L1045,352L1044,350L1043,348L1040,347L1037,346L1035,344L1033,342L1036,343L1039,346L1042,345L1042,343L1044,341L1043,339L1041,337L1038,337L1036,336L1034,334L1031,333L1030,331L1027,330L1026,327L1023,326L1026,327L1028,329L1030,331L1033,332L1035,334L1038,335L1041,335L1041,333L1041,330L1040,327L1036,326L1034,325L1031,324L1028,324L1025,324L1023,322L1021,319L1019,321L1015,322L1015,319L1015,316L1016,313L1018,312L1019,309L1017,305L1017,305L1015,304L1012,303L1009,303L1007,301L1007,298L1004,297L1001,297L1001,300L1000,303L1000,303L997,301L994,300L991,299L988,300L988,302L988,305L987,307L986,311L984,313L982,315L981,317L978,316L977,320L976,323L976,327L973,329L970,328L966,326L966,329L966,332L965,334L964,337L963,339L963,342L962,345L960,348L958,352L959,355L959,358L954,360L952,362L950,364L947,363L947,366L944,367L940,369L937,368L935,370L931,372L929,370L926,369L924,367L923,364L921,367L918,371L916,373L913,376L910,378L910,381L907,383L907,385L904,387L902,389L900,391L897,393L894,394L892,395L891,396L896,395Z" data-oid="3552" /><path data-fips="55" data-hasc="US.WI" data-iso="USA" d="M729,254L733,254L737,253L740,253L744,253L747,253L751,252L754,252L758,251L761,251L765,251L768,250L772,250L776,250L779,249L783,249L786,248L790,248L794,247L798,247L796,241L796,239L795,234L794,230L793,227L792,225L792,220L791,216L792,213L792,210L792,207L792,201L793,196L794,193L794,190L794,188L795,182L797,179L798,177L800,174L802,171L800,170L797,168L794,167L792,166L787,167L785,168L783,172L780,175L778,178L775,176L774,174L775,171L773,171L771,169L772,166L771,163L770,161L767,160L765,159L764,156L761,156L759,155L755,155L753,155L750,155L747,153L744,152L740,152L737,151L734,151L730,150L727,150L725,148L723,145L720,144L720,142L721,138L722,134L724,131L725,127L726,123L723,124L719,124L716,124L713,124L710,127L706,130L702,133L699,136L696,138L693,140L690,142L687,141L686,144L684,146L685,150L685,153L685,157L685,160L683,161L681,163L679,165L677,167L675,171L675,173L678,175L679,177L679,180L678,183L679,186L678,188L679,192L679,195L680,198L682,199L686,201L688,203L691,204L696,207L698,211L702,214L706,214L708,216L710,218L711,221L711,224L711,227L711,229L712,232L715,233L714,237L714,240L715,243L716,246L717,249L722,250L725,252L726,254L729,254Z" data-oid="3553" /><path data-fips="54" data-hasc="US.WV" data-iso="USA" d="M935,370L937,368L940,369L944,367L947,366L947,363L950,364L952,362L954,360L959,358L959,355L958,352L960,348L962,345L963,342L963,339L964,337L965,334L966,332L966,329L966,326L970,328L973,329L976,327L976,323L977,320L978,316L981,317L982,315L984,313L986,311L987,307L988,305L988,302L988,300L991,299L994,300L997,301L1000,303L1000,303L1001,300L1001,297L1000,295L997,293L996,290L994,291L989,290L988,292L986,294L983,296L980,296L978,295L977,298L974,300L972,301L970,303L968,306L966,309L963,295L961,296L958,296L955,297L953,297L950,298L947,298L945,299L942,300L941,296L940,292L940,288L939,283L938,279L937,275L934,276L936,279L936,282L937,285L936,288L936,291L936,293L935,296L935,299L935,302L934,305L932,307L930,310L928,312L926,312L923,314L921,316L920,319L920,321L920,325L919,327L917,325L914,326L913,329L912,332L913,335L912,337L911,340L909,342L907,343L906,343L906,344L907,347L906,350L908,352L910,354L912,356L914,359L916,362L918,363L922,364L923,364L924,367L926,369L929,370L931,372L935,370Z" data-oid="3554" /><path data-fips="10" data-hasc="US.DE" data-iso="USA" d="M1051,310L1054,309L1058,308L1061,307L1061,307L1062,307L1061,305L1060,303L1058,304L1060,301L1057,298L1055,297L1053,295L1051,292L1049,290L1049,287L1046,285L1044,283L1044,281L1042,278L1044,276L1044,273L1044,273L1041,273L1039,274L1038,277L1039,281L1040,285L1041,289L1043,292L1044,296L1045,300L1046,304L1047,308L1048,310L1051,310Z" data-oid="3555" /><path data-fips="11" data-hasc="US.DC" data-iso="USA" d="M1021,305L1017,305L1017,305L1019,308L1021,305Z" data-oid="3556" /><path data-fips="24" data-hasc="US.MD" data-iso="USA" d="M1060,319L1061,319L1061,319L1061,315L1061,312L1061,316L1060,319L1060,319Z M1062,307L1061,307L1061,307L1062,310L1062,307Z M1053,323L1055,321L1057,320L1058,320L1058,318L1059,316L1061,313L1060,310L1061,307L1058,308L1054,309L1051,310L1048,310L1047,308L1046,304L1045,300L1044,296L1043,292L1041,289L1040,285L1039,281L1038,277L1033,278L1029,279L1024,281L1019,282L1015,283L1010,284L1005,285L1001,286L996,287L991,289L987,290L982,291L977,292L973,293L968,294L963,295L966,309L968,306L970,303L972,301L974,300L977,298L978,295L980,296L983,296L986,294L988,292L989,290L994,291L996,290L997,293L1000,295L1001,297L1004,297L1007,298L1007,301L1009,303L1012,303L1015,304L1021,305L1019,308L1019,310L1018,313L1017,315L1016,318L1018,320L1019,318L1022,318L1023,320L1026,319L1028,322L1032,322L1035,321L1038,323L1037,321L1034,318L1032,317L1029,315L1028,313L1027,310L1029,314L1032,316L1035,317L1034,314L1031,312L1030,309L1029,306L1028,303L1029,301L1027,298L1029,300L1029,297L1027,296L1025,293L1029,292L1028,289L1030,289L1031,286L1032,288L1034,285L1033,283L1036,281L1036,284L1038,282L1036,285L1038,287L1034,288L1033,291L1033,295L1035,296L1035,299L1032,298L1032,301L1034,300L1037,302L1036,304L1033,304L1034,308L1036,306L1039,307L1041,309L1038,309L1035,309L1037,311L1036,313L1038,315L1041,317L1043,318L1045,315L1046,313L1045,315L1047,317L1046,319L1050,320L1050,324L1053,323Z" data-oid="3557" /><path data-fips="34" data-hasc="US.NJ" data-iso="USA" d="M1063,290L1063,287L1064,285L1064,282L1066,281L1066,278L1067,275L1069,273L1070,270L1070,267L1070,264L1070,262L1070,259L1070,262L1071,265L1071,261L1070,257L1070,254L1070,252L1069,249L1066,248L1063,249L1063,246L1063,243L1065,241L1065,238L1066,237L1066,233L1061,231L1057,230L1052,229L1048,227L1047,228L1045,230L1045,233L1044,236L1043,238L1042,241L1044,243L1043,245L1043,248L1043,250L1046,251L1049,254L1051,256L1053,258L1055,261L1053,263L1051,265L1050,267L1049,270L1046,271L1044,274L1044,277L1044,280L1046,283L1050,285L1053,286L1055,288L1057,287L1060,287L1060,291L1062,293L1063,290Z" data-oid="3558" /><path data-fips="36" data-hasc="US.NY" data-iso="USA" d="M1065,245L1065,243L1063,245L1063,247L1065,245Z M1079,240L1081,238L1081,238L1078,239L1076,241L1079,240Z M1083,237L1086,235L1088,233L1086,235L1084,237L1081,239L1083,237Z M1072,242L1074,241L1078,238L1080,237L1083,235L1085,234L1088,233L1090,231L1092,230L1095,228L1097,226L1100,223L1102,221L1105,218L1102,220L1100,222L1098,222L1096,224L1094,227L1091,227L1093,224L1094,222L1097,219L1095,220L1093,223L1091,225L1088,227L1085,227L1081,230L1078,231L1075,231L1073,233L1070,235L1070,237L1067,239L1066,242L1069,243L1071,242L1069,244L1072,242Z M1068,237L1069,234L1071,231L1069,229L1070,227L1072,225L1070,222L1069,218L1069,215L1068,211L1067,207L1066,203L1066,202L1065,201L1065,200L1065,198L1065,194L1065,190L1064,186L1064,183L1065,182L1063,180L1063,176L1062,174L1061,170L1060,167L1059,164L1058,162L1057,160L1055,161L1054,157L1053,154L1052,151L1050,149L1051,146L1051,143L1050,141L1050,138L1048,135L1047,133L1047,130L1045,127L1045,125L1044,123L1042,124L1038,125L1034,126L1031,127L1027,129L1023,130L1020,131L1017,131L1014,133L1012,135L1009,139L1008,141L1006,144L1005,147L1003,150L1002,153L998,157L998,159L996,162L994,166L993,169L992,172L991,176L990,178L986,179L981,180L977,181L972,182L968,183L964,184L959,186L954,187L951,190L947,193L950,198L951,200L952,203L953,205L955,207L954,210L951,212L948,214L946,217L943,219L941,221L941,222L942,225L943,228L943,231L944,234L945,235L948,234L950,234L953,233L956,232L958,232L961,231L964,231L966,230L969,229L972,229L974,228L977,228L980,227L982,226L985,226L987,225L990,224L993,224L995,223L998,222L1001,222L1003,221L1006,220L1009,220L1011,219L1014,218L1017,218L1019,217L1022,216L1024,215L1027,215L1031,214L1033,217L1037,217L1038,220L1039,223L1043,226L1045,226L1048,227L1052,229L1057,230L1061,231L1066,233L1065,230L1063,227L1063,224L1064,227L1065,229L1066,233L1066,237L1066,240L1068,237Z" data-oid="3559" /><path data-fips="42" data-hasc="US.PA" data-iso="USA" d="M945,299L947,298L950,298L953,297L955,297L958,296L961,296L963,295L968,294L973,293L977,292L982,291L987,290L991,289L996,287L1001,286L1005,285L1010,284L1015,283L1019,282L1024,281L1029,279L1033,278L1038,277L1039,274L1041,273L1044,273L1044,273L1045,271L1048,270L1049,267L1051,265L1053,263L1055,261L1053,258L1051,256L1049,254L1046,251L1043,250L1043,248L1043,245L1044,243L1042,241L1043,238L1044,236L1045,233L1045,230L1047,228L1048,227L1045,226L1043,226L1039,223L1038,220L1037,217L1033,217L1031,214L1027,215L1024,215L1022,216L1019,217L1017,218L1014,218L1011,219L1009,220L1006,220L1003,221L1001,222L998,222L995,223L993,224L990,224L987,225L985,226L982,226L980,227L977,228L974,228L972,229L969,229L966,230L964,231L961,231L958,232L956,232L953,233L950,234L948,234L945,235L944,234L943,231L943,228L942,225L941,222L941,221L941,221L938,223L935,225L933,227L930,228L927,229L928,232L929,235L929,238L930,241L930,244L931,246L932,249L932,252L933,255L933,258L934,260L935,263L935,266L936,269L936,272L937,275L938,279L939,283L940,288L940,292L941,296L942,300L945,299Z" data-oid="3560" /><path data-fips="23" data-hasc="US.ME" data-iso="USA" d="M1136,119L1133,119L1135,121L1136,119Z M1144,109L1143,108L1140,109L1140,111L1142,112L1144,109Z M1110,158L1111,154L1110,151L1112,149L1113,146L1112,144L1114,142L1113,139L1113,136L1116,133L1117,135L1118,132L1120,134L1119,132L1118,128L1119,131L1121,133L1120,130L1121,126L1121,129L1123,131L1123,128L1125,130L1124,127L1126,124L1127,126L1129,124L1130,122L1129,119L1129,116L1130,114L1129,111L1131,109L1131,107L1133,109L1132,112L1135,113L1137,112L1138,109L1137,106L1140,106L1142,104L1144,105L1146,108L1147,105L1146,103L1148,104L1147,101L1149,99L1150,101L1151,97L1153,95L1156,94L1158,93L1160,90L1160,87L1157,87L1158,84L1156,82L1153,80L1151,82L1148,81L1147,78L1145,75L1145,72L1142,72L1139,72L1137,71L1135,67L1135,64L1133,61L1132,57L1130,54L1129,50L1127,47L1126,43L1125,40L1122,35L1119,34L1117,33L1114,32L1111,31L1109,34L1107,36L1105,37L1103,40L1100,39L1099,37L1098,34L1094,35L1094,38L1093,41L1092,44L1092,47L1091,50L1090,53L1089,56L1089,59L1089,62L1090,67L1089,69L1089,72L1090,75L1090,78L1091,80L1091,83L1090,85L1090,88L1088,90L1087,95L1089,98L1086,97L1087,100L1087,103L1085,101L1083,102L1084,105L1085,108L1086,111L1087,113L1088,116L1089,119L1090,122L1091,124L1093,127L1094,130L1095,133L1096,135L1097,138L1098,141L1099,144L1100,146L1101,149L1102,152L1104,154L1106,155L1108,158L1109,159L1110,158Z" data-oid="3561" /><path data-fips="26" data-hasc="US.MI" data-iso="USA" d="M800,267L803,266L807,266L810,266L813,265L816,265L819,264L822,264L825,263L828,263L831,262L835,262L838,261L841,261L844,261L846,262L849,261L852,261L856,260L859,259L862,259L866,258L869,257L872,256L878,250L877,247L876,243L877,240L880,238L882,236L884,231L886,229L887,226L886,224L886,221L887,218L887,215L887,212L888,208L889,205L889,201L887,196L885,190L883,185L880,179L878,174L876,168L874,163L871,155L867,154L862,152L858,150L854,149L850,147L851,143L850,140L847,139L843,140L841,140L838,137L838,135L836,132L836,129L833,131L831,131L828,132L826,130L824,128L822,124L821,122L818,120L816,119L813,118L811,117L808,116L806,115L803,114L801,113L798,112L794,110L790,109L786,107L781,105L778,104L774,102L770,101L767,99L763,97L759,96L756,94L751,93L747,94L742,98L739,100L735,103L732,103L731,106L731,108L730,111L729,113L728,116L728,118L727,121L726,123L725,127L724,131L722,134L721,138L720,142L720,144L723,145L725,148L727,150L730,150L734,151L737,151L740,152L744,152L747,153L750,155L753,155L755,155L759,155L761,156L764,156L765,159L767,160L770,161L771,163L772,166L771,169L773,171L775,171L774,174L775,176L778,178L780,175L783,172L785,168L787,167L792,166L794,167L797,168L800,170L802,171L800,174L798,177L797,179L795,182L794,188L794,190L794,193L793,196L792,201L792,207L792,210L792,213L791,216L792,220L792,225L793,227L794,230L795,234L796,239L796,241L798,247L798,250L797,255L797,258L797,263L797,265L797,267L800,267Z" data-oid="3562" /></g></svg>